<svg width="221" height="103" viewBox="0 0 221 103" fill="none" xmlns="http://www.w3.org/2000/svg">
<path d="M17.53 17.75H6.37L4.06 23H0.97L10.48 2H13.45L22.99 23H19.84L17.53 17.75ZM16.48 15.35L11.95 5.06L7.42 15.35H16.48ZM25.7027 0.739999H28.5827V23H25.7027V0.739999ZM48.4516 15.14C48.4516 15.36 48.4316 15.65 48.3916 16.01H35.4916C35.6716 17.41 36.2816 18.54 37.3216 19.4C38.3816 20.24 39.6916 20.66 41.2516 20.66C43.1516 20.66 44.6816 20.02 45.8416 18.74L47.4316 20.6C46.7116 21.44 45.8116 22.08 44.7316 22.52C43.6716 22.96 42.4816 23.18 41.1616 23.18C39.4816 23.18 37.9916 22.84 36.6916 22.16C35.3916 21.46 34.3816 20.49 33.6616 19.25C32.9616 18.01 32.6116 16.61 32.6116 15.05C32.6116 13.51 32.9516 12.12 33.6316 10.88C34.3316 9.64 35.2816 8.68 36.4816 8C37.7016 7.3 39.0716 6.95 40.5916 6.95C42.1116 6.95 43.4616 7.3 44.6416 8C45.8416 8.68 46.7716 9.64 47.4316 10.88C48.1116 12.12 48.4516 13.54 48.4516 15.14ZM40.5916 9.38C39.2116 9.38 38.0516 9.8 37.1116 10.64C36.1916 11.48 35.6516 12.58 35.4916 13.94H45.6916C45.5316 12.6 44.9816 11.51 44.0416 10.67C43.1216 9.81 41.9716 9.38 40.5916 9.38ZM62.1513 23L57.5613 16.91L52.9113 23H49.7013L55.9713 14.87L50.0013 7.1H53.2113L57.5913 12.83L61.9413 7.1H65.0913L59.0913 14.87L65.4213 23H62.1513ZM74.061 6.95C76.261 6.95 77.941 7.49 79.101 8.57C80.281 9.65 80.871 11.26 80.871 13.4V23H78.141V20.9C77.661 21.64 76.971 22.21 76.071 22.61C75.191 22.99 74.141 23.18 72.921 23.18C71.141 23.18 69.711 22.75 68.631 21.89C67.571 21.03 67.041 19.9 67.041 18.5C67.041 17.1 67.551 15.98 68.571 15.14C69.591 14.28 71.211 13.85 73.431 13.85H77.991V13.28C77.991 12.04 77.631 11.09 76.911 10.43C76.191 9.77 75.131 9.44 73.731 9.44C72.791 9.44 71.871 9.6 70.971 9.92C70.071 10.22 69.311 10.63 68.691 11.15L67.491 8.99C68.311 8.33 69.291 7.83 70.431 7.49C71.571 7.13 72.781 6.95 74.061 6.95ZM73.401 20.96C74.501 20.96 75.451 20.72 76.251 20.24C77.051 19.74 77.631 19.04 77.991 18.14V15.92H73.551C71.111 15.92 69.891 16.74 69.891 18.38C69.891 19.18 70.201 19.81 70.821 20.27C71.441 20.73 72.301 20.96 73.401 20.96ZM94.6907 6.95C96.7107 6.95 98.3107 7.54 99.4907 8.72C100.691 9.88 101.291 11.59 101.291 13.85V23H98.4107V14.18C98.4107 12.64 98.0407 11.48 97.3007 10.7C96.5607 9.92 95.5007 9.53 94.1207 9.53C92.5607 9.53 91.3307 9.99 90.4307 10.91C89.5307 11.81 89.0807 13.11 89.0807 14.81V23H86.2007V7.1H88.9607V9.5C89.5407 8.68 90.3207 8.05 91.3007 7.61C92.3007 7.17 93.4307 6.95 94.6907 6.95ZM121.709 0.739999V23H118.949V20.48C118.309 21.36 117.499 22.03 116.519 22.49C115.539 22.95 114.459 23.18 113.279 23.18C111.739 23.18 110.359 22.84 109.139 22.16C107.919 21.48 106.959 20.53 106.259 19.31C105.579 18.07 105.239 16.65 105.239 15.05C105.239 13.45 105.579 12.04 106.259 10.82C106.959 9.6 107.919 8.65 109.139 7.97C110.359 7.29 111.739 6.95 113.279 6.95C114.419 6.95 115.469 7.17 116.429 7.61C117.389 8.03 118.189 8.66 118.829 9.5V0.739999H121.709ZM113.519 20.66C114.519 20.66 115.429 20.43 116.249 19.97C117.069 19.49 117.709 18.83 118.169 17.99C118.629 17.13 118.859 16.15 118.859 15.05C118.859 13.95 118.629 12.98 118.169 12.14C117.709 11.28 117.069 10.62 116.249 10.16C115.429 9.7 114.519 9.47 113.519 9.47C112.499 9.47 111.579 9.7 110.759 10.16C109.959 10.62 109.319 11.28 108.839 12.14C108.379 12.98 108.149 13.95 108.149 15.05C108.149 16.15 108.379 17.13 108.839 17.99C109.319 18.83 109.959 19.49 110.759 19.97C111.579 20.43 112.499 20.66 113.519 20.66ZM141.528 15.14C141.528 15.36 141.508 15.65 141.468 16.01H128.568C128.748 17.41 129.358 18.54 130.398 19.4C131.458 20.24 132.768 20.66 134.328 20.66C136.228 20.66 137.758 20.02 138.918 18.74L140.508 20.6C139.788 21.44 138.888 22.08 137.808 22.52C136.748 22.96 135.558 23.18 134.238 23.18C132.558 23.18 131.068 22.84 129.768 22.16C128.468 21.46 127.458 20.49 126.738 19.25C126.038 18.01 125.688 16.61 125.688 15.05C125.688 13.51 126.028 12.12 126.708 10.88C127.408 9.64 128.358 8.68 129.558 8C130.778 7.3 132.148 6.95 133.668 6.95C135.188 6.95 136.538 7.3 137.718 8C138.918 8.68 139.848 9.64 140.508 10.88C141.188 12.12 141.528 13.54 141.528 15.14ZM133.668 9.38C132.288 9.38 131.128 9.8 130.188 10.64C129.268 11.48 128.728 12.58 128.568 13.94H138.768C138.608 12.6 138.058 11.51 137.118 10.67C136.198 9.81 135.048 9.38 133.668 9.38ZM148.287 9.77C148.787 8.85 149.527 8.15 150.507 7.67C151.487 7.19 152.677 6.95 154.077 6.95V9.74C153.917 9.72 153.697 9.71 153.417 9.71C151.857 9.71 150.627 10.18 149.727 11.12C148.847 12.04 148.407 13.36 148.407 15.08V23H145.527V7.1H148.287V9.77ZM18.52 44.1V60H15.64V46.62H6.67V60H3.79V44.1H18.52ZM32.5227 43.95C34.0627 43.95 35.4427 44.29 36.6627 44.97C37.8827 45.65 38.8327 46.6 39.5127 47.82C40.2127 49.04 40.5627 50.45 40.5627 52.05C40.5627 53.65 40.2127 55.07 39.5127 56.31C38.8327 57.53 37.8827 58.48 36.6627 59.16C35.4427 59.84 34.0627 60.18 32.5227 60.18C31.3827 60.18 30.3327 59.96 29.3727 59.52C28.4327 59.08 27.6327 58.44 26.9727 57.6V65.82H24.0927V44.1H26.8527V46.62C27.4927 45.74 28.3027 45.08 29.2827 44.64C30.2627 44.18 31.3427 43.95 32.5227 43.95ZM32.2827 57.66C33.3027 57.66 34.2127 57.43 35.0127 56.97C35.8327 56.49 36.4727 55.83 36.9327 54.99C37.4127 54.13 37.6527 53.15 37.6527 52.05C37.6527 50.95 37.4127 49.98 36.9327 49.14C36.4727 48.28 35.8327 47.62 35.0127 47.16C34.2127 46.7 33.3027 46.47 32.2827 46.47C31.2827 46.47 30.3727 46.71 29.5527 47.19C28.7527 47.65 28.1127 48.3 27.6327 49.14C27.1727 49.98 26.9427 50.95 26.9427 52.05C26.9427 53.15 27.1727 54.13 27.6327 54.99C28.0927 55.83 28.7327 56.49 29.5527 56.97C30.3727 57.43 31.2827 57.66 32.2827 57.66ZM44.747 44.1H47.627V55.68L57.377 44.1H59.987V60H57.107V48.42L47.387 60H44.747V44.1ZM65.5771 44.1H68.4571V50.85H77.5171V44.1H80.3971V60H77.5171V53.34H68.4571V60H65.5771V44.1ZM98.747 44.1V60H96.167V54.96H91.547H91.217L87.737 60H84.647L88.517 54.57C87.317 54.21 86.397 53.62 85.757 52.8C85.117 51.96 84.797 50.92 84.797 49.68C84.797 47.86 85.417 46.48 86.657 45.54C87.897 44.58 89.607 44.1 91.787 44.1H98.747ZM87.737 49.77C87.737 50.83 88.067 51.62 88.727 52.14C89.407 52.64 90.417 52.89 91.757 52.89H96.167V46.62H91.877C89.117 46.62 87.737 47.67 87.737 49.77ZM118.016 44.1V60H115.136V46.62H108.296L108.116 50.16C108.016 52.3 107.826 54.09 107.546 55.53C107.266 56.95 106.806 58.09 106.166 58.95C105.526 59.81 104.636 60.24 103.496 60.24C102.976 60.24 102.386 60.15 101.726 59.97L101.906 57.54C102.166 57.6 102.406 57.63 102.626 57.63C103.426 57.63 104.026 57.28 104.426 56.58C104.826 55.88 105.086 55.05 105.206 54.09C105.326 53.13 105.436 51.76 105.536 49.98L105.806 44.1H118.016ZM142.472 51.75C144.532 52.27 145.562 53.56 145.562 55.62C145.562 57.02 145.032 58.1 143.972 58.86C142.932 59.62 141.372 60 139.292 60H131.642V44.1H139.022C140.902 44.1 142.372 44.46 143.432 45.18C144.492 45.88 145.022 46.88 145.022 48.18C145.022 49.02 144.792 49.75 144.332 50.37C143.892 50.97 143.272 51.43 142.472 51.75ZM134.462 50.94H138.782C139.882 50.94 140.712 50.74 141.272 50.34C141.852 49.94 142.142 49.36 142.142 48.6C142.142 47.08 141.022 46.32 138.782 46.32H134.462V50.94ZM139.082 57.78C140.282 57.78 141.182 57.59 141.782 57.21C142.382 56.83 142.682 56.24 142.682 55.44C142.682 54.62 142.402 54.01 141.842 53.61C141.302 53.21 140.442 53.01 139.262 53.01H134.462V57.78H139.082ZM155.739 43.95C157.939 43.95 159.619 44.49 160.779 45.57C161.959 46.65 162.549 48.26 162.549 50.4V60H159.819V57.9C159.339 58.64 158.649 59.21 157.749 59.61C156.869 59.99 155.819 60.18 154.599 60.18C152.819 60.18 151.389 59.75 150.309 58.89C149.249 58.03 148.719 56.9 148.719 55.5C148.719 54.1 149.229 52.98 150.249 52.14C151.269 51.28 152.889 50.85 155.109 50.85H159.669V50.28C159.669 49.04 159.309 48.09 158.589 47.43C157.869 46.77 156.809 46.44 155.409 46.44C154.469 46.44 153.549 46.6 152.649 46.92C151.749 47.22 150.989 47.63 150.369 48.15L149.169 45.99C149.989 45.33 150.969 44.83 152.109 44.49C153.249 44.13 154.459 43.95 155.739 43.95ZM155.079 57.96C156.179 57.96 157.129 57.72 157.929 57.24C158.729 56.74 159.309 56.04 159.669 55.14V52.92H155.229C152.789 52.92 151.569 53.74 151.569 55.38C151.569 56.18 151.879 56.81 152.499 57.27C153.119 57.73 153.979 57.96 155.079 57.96ZM190.385 44.1V60H167.735V44.1H170.615V57.48H177.635V44.1H180.515V57.48H187.505V44.1H190.385ZM210.348 52.14C210.348 52.36 210.328 52.65 210.288 53.01H197.388C197.568 54.41 198.178 55.54 199.218 56.4C200.278 57.24 201.588 57.66 203.148 57.66C205.048 57.66 206.578 57.02 207.738 55.74L209.328 57.6C208.608 58.44 207.708 59.08 206.628 59.52C205.568 59.96 204.378 60.18 203.058 60.18C201.378 60.18 199.888 59.84 198.588 59.16C197.288 58.46 196.278 57.49 195.558 56.25C194.858 55.01 194.508 53.61 194.508 52.05C194.508 50.51 194.848 49.12 195.528 47.88C196.228 46.64 197.178 45.68 198.378 45C199.598 44.3 200.968 43.95 202.488 43.95C204.008 43.95 205.358 44.3 206.538 45C207.738 45.68 208.668 46.64 209.328 47.88C210.008 49.12 210.348 50.54 210.348 52.14ZM202.488 46.38C201.108 46.38 199.948 46.8 199.008 47.64C198.088 48.48 197.548 49.58 197.388 50.94H207.588C207.428 49.6 206.878 48.51 205.938 47.67C205.018 46.81 203.868 46.38 202.488 46.38ZM18.52 81.1V97H15.64V83.62H6.67V97H3.79V81.1H18.52ZM32.5227 80.95C34.0627 80.95 35.4427 81.29 36.6627 81.97C37.8827 82.65 38.8327 83.6 39.5127 84.82C40.2127 86.04 40.5627 87.45 40.5627 89.05C40.5627 90.65 40.2127 92.07 39.5127 93.31C38.8327 94.53 37.8827 95.48 36.6627 96.16C35.4427 96.84 34.0627 97.18 32.5227 97.18C31.3827 97.18 30.3327 96.96 29.3727 96.52C28.4327 96.08 27.6327 95.44 26.9727 94.6V102.82H24.0927V81.1H26.8527V83.62C27.4927 82.74 28.3027 82.08 29.2827 81.64C30.2627 81.18 31.3427 80.95 32.5227 80.95ZM32.2827 94.66C33.3027 94.66 34.2127 94.43 35.0127 93.97C35.8327 93.49 36.4727 92.83 36.9327 91.99C37.4127 91.13 37.6527 90.15 37.6527 89.05C37.6527 87.95 37.4127 86.98 36.9327 86.14C36.4727 85.28 35.8327 84.62 35.0127 84.16C34.2127 83.7 33.3027 83.47 32.2827 83.47C31.2827 83.47 30.3727 83.71 29.5527 84.19C28.7527 84.65 28.1127 85.3 27.6327 86.14C27.1727 86.98 26.9427 87.95 26.9427 89.05C26.9427 90.15 27.1727 91.13 27.6327 91.99C28.0927 92.83 28.7327 93.49 29.5527 93.97C30.3727 94.43 31.2827 94.66 32.2827 94.66ZM59.117 89.14C59.117 89.36 59.097 89.65 59.057 90.01H46.157C46.337 91.41 46.947 92.54 47.987 93.4C49.047 94.24 50.357 94.66 51.917 94.66C53.817 94.66 55.347 94.02 56.507 92.74L58.097 94.6C57.377 95.44 56.477 96.08 55.397 96.52C54.337 96.96 53.147 97.18 51.827 97.18C50.147 97.18 48.657 96.84 47.357 96.16C46.057 95.46 45.047 94.49 44.327 93.25C43.627 92.01 43.277 90.61 43.277 89.05C43.277 87.51 43.617 86.12 44.297 84.88C44.997 83.64 45.947 82.68 47.147 82C48.367 81.3 49.737 80.95 51.257 80.95C52.777 80.95 54.127 81.3 55.307 82C56.507 82.68 57.437 83.64 58.097 84.88C58.777 86.12 59.117 87.54 59.117 89.14ZM51.257 83.38C49.877 83.38 48.717 83.8 47.777 84.64C46.857 85.48 46.317 86.58 46.157 87.94H56.357C56.197 86.6 55.647 85.51 54.707 84.67C53.787 83.81 52.637 83.38 51.257 83.38ZM79.4913 94.48V100.69H76.7913V97H63.5013V100.69H60.7713V94.48H61.6113C62.6313 94.42 63.3313 93.7 63.7113 92.32C64.0913 90.94 64.3512 88.99 64.4912 86.47L64.7313 81.1H77.0612V94.48H79.4913ZM67.1313 86.68C67.0513 88.68 66.8813 90.34 66.6213 91.66C66.3813 92.96 65.9313 93.9 65.2713 94.48H74.1813V83.62H67.2813L67.1313 86.68ZM96.8931 81.1V97H94.0131V83.62H87.1731L86.9931 87.16C86.8931 89.3 86.7031 91.09 86.4231 92.53C86.1431 93.95 85.6831 95.09 85.0431 95.95C84.4031 96.81 83.5131 97.24 82.3731 97.24C81.8531 97.24 81.2631 97.15 80.6031 96.97L80.7831 94.54C81.0431 94.6 81.2831 94.63 81.5031 94.63C82.3031 94.63 82.9031 94.28 83.3031 93.58C83.7031 92.88 83.9631 92.05 84.0831 91.09C84.2031 90.13 84.3131 88.76 84.4131 86.98L84.6831 81.1H96.8931ZM109.272 97.18C107.692 97.18 106.272 96.83 105.012 96.13C103.752 95.43 102.762 94.47 102.042 93.25C101.342 92.01 100.992 90.61 100.992 89.05C100.992 87.49 101.342 86.1 102.042 84.88C102.762 83.64 103.752 82.68 105.012 82C106.272 81.3 107.692 80.95 109.272 80.95C110.852 80.95 112.262 81.3 113.502 82C114.762 82.68 115.742 83.64 116.442 84.88C117.162 86.1 117.522 87.49 117.522 89.05C117.522 90.61 117.162 92.01 116.442 93.25C115.742 94.47 114.762 95.43 113.502 96.13C112.262 96.83 110.852 97.18 109.272 97.18ZM109.272 94.66C110.292 94.66 111.202 94.43 112.002 93.97C112.822 93.49 113.462 92.83 113.922 91.99C114.382 91.13 114.612 90.15 114.612 89.05C114.612 87.95 114.382 86.98 113.922 86.14C113.462 85.28 112.822 84.62 112.002 84.16C111.202 83.7 110.292 83.47 109.272 83.47C108.252 83.47 107.332 83.7 106.512 84.16C105.712 84.62 105.072 85.28 104.592 86.14C104.132 86.98 103.902 87.95 103.902 89.05C103.902 90.15 104.132 91.13 104.592 91.99C105.072 92.83 105.712 93.49 106.512 93.97C107.332 94.43 108.252 94.66 109.272 94.66ZM135.613 90.28H132.523V97H129.643V90.28H126.553L122.173 97H118.753L124.213 88.78L119.173 81.1H122.233L126.523 87.82H129.643V81.1H132.523V87.82H135.643L139.933 81.1H143.023L137.983 88.81L143.443 97H140.023L135.613 90.28ZM160.455 89.14C160.455 89.36 160.435 89.65 160.395 90.01H147.495C147.675 91.41 148.285 92.54 149.325 93.4C150.385 94.24 151.695 94.66 153.255 94.66C155.155 94.66 156.685 94.02 157.845 92.74L159.435 94.6C158.715 95.44 157.815 96.08 156.735 96.52C155.675 96.96 154.485 97.18 153.165 97.18C151.485 97.18 149.995 96.84 148.695 96.16C147.395 95.46 146.385 94.49 145.665 93.25C144.965 92.01 144.615 90.61 144.615 89.05C144.615 87.51 144.955 86.12 145.635 84.88C146.335 83.64 147.285 82.68 148.485 82C149.705 81.3 151.075 80.95 152.595 80.95C154.115 80.95 155.465 81.3 156.645 82C157.845 82.68 158.775 83.64 159.435 84.88C160.115 86.12 160.455 87.54 160.455 89.14ZM152.595 83.38C151.215 83.38 150.055 83.8 149.115 84.64C148.195 85.48 147.655 86.58 147.495 87.94H157.695C157.535 86.6 156.985 85.51 156.045 84.67C155.125 83.81 153.975 83.38 152.595 83.38ZM164.923 81.1H167.803V87.85H176.863V81.1H179.743V97H176.863V90.34H167.803V97H164.923V81.1ZM185.343 81.1H188.223V92.68L197.973 81.1H200.583V97H197.703V85.42L187.983 97H185.343V81.1ZM220.543 89.14C220.543 89.36 220.523 89.65 220.483 90.01H207.583C207.763 91.41 208.373 92.54 209.413 93.4C210.473 94.24 211.783 94.66 213.343 94.66C215.243 94.66 216.773 94.02 217.933 92.74L219.523 94.6C218.803 95.44 217.903 96.08 216.823 96.52C215.763 96.96 214.573 97.18 213.253 97.18C211.573 97.18 210.083 96.84 208.783 96.16C207.483 95.46 206.473 94.49 205.753 93.25C205.053 92.01 204.703 90.61 204.703 89.05C204.703 87.51 205.043 86.12 205.723 84.88C206.423 83.64 207.373 82.68 208.573 82C209.793 81.3 211.163 80.95 212.683 80.95C214.203 80.95 215.553 81.3 216.733 82C217.933 82.68 218.863 83.64 219.523 84.88C220.203 86.12 220.543 87.54 220.543 89.14ZM212.683 83.38C211.303 83.38 210.143 83.8 209.203 84.64C208.283 85.48 207.743 86.58 207.583 87.94H217.783C217.623 86.6 217.073 85.51 216.133 84.67C215.213 83.81 214.063 83.38 212.683 83.38Z" fill="white"/>
</svg>
