<svg width="1329" height="494" viewBox="0 0 1329 494" fill="none" xmlns="http://www.w3.org/2000/svg">
<g filter="url(#filter0_d_54_363)">
<g opacity="0.2" filter="url(#filter1_d_54_363)">
<path d="M24 24H1195C1250.23 24 1295 68.7715 1295 124V360C1295 415.228 1250.23 460 1195 460H24V24Z" fill="#D9D9D9"/>
<path d="M27 27H1195C1248.57 27 1292 70.4284 1292 124V360C1292 413.572 1248.57 457 1195 457H27V27Z" stroke="white" stroke-width="6"/>
</g>
<path d="M24 44H1166C1221.23 44 1266 88.7715 1266 144V339C1266 394.228 1221.23 439 1166 439H24V44Z" fill="url(#paint0_linear_54_363)"/>
</g>
<defs>
<filter id="filter0_d_54_363" x="20" y="24" width="1279" height="444" filterUnits="userSpaceOnUse" color-interpolation-filters="sRGB">
<feFlood flood-opacity="0" result="BackgroundImageFix"/>
<feColorMatrix in="SourceAlpha" type="matrix" values="0 0 0 0 0 0 0 0 0 0 0 0 0 0 0 0 0 0 127 0" result="hardAlpha"/>
<feOffset dy="4"/>
<feGaussianBlur stdDeviation="2"/>
<feComposite in2="hardAlpha" operator="out"/>
<feColorMatrix type="matrix" values="0 0 0 0 0 0 0 0 0 0 0 0 0 0 0 0 0 0 0.25 0"/>
<feBlend mode="normal" in2="BackgroundImageFix" result="effect1_dropShadow_54_363"/>
<feBlend mode="normal" in="SourceGraphic" in2="effect1_dropShadow_54_363" result="shape"/>
</filter>
<filter id="filter1_d_54_363" x="0" y="0" width="1329" height="494" filterUnits="userSpaceOnUse" color-interpolation-filters="sRGB">
<feFlood flood-opacity="0" result="BackgroundImageFix"/>
<feColorMatrix in="SourceAlpha" type="matrix" values="0 0 0 0 0 0 0 0 0 0 0 0 0 0 0 0 0 0 127 0" result="hardAlpha"/>
<feMorphology radius="20" operator="dilate" in="SourceAlpha" result="effect1_dropShadow_54_363"/>
<feOffset dx="5" dy="5"/>
<feGaussianBlur stdDeviation="4.5"/>
<feComposite in2="hardAlpha" operator="out"/>
<feColorMatrix type="matrix" values="0 0 0 0 0.758333 0 0 0 0 0.0600347 0 0 0 0 0.56281 0 0 0 0.44 0"/>
<feBlend mode="normal" in2="BackgroundImageFix" result="effect1_dropShadow_54_363"/>
<feBlend mode="normal" in="SourceGraphic" in2="effect1_dropShadow_54_363" result="shape"/>
</filter>
<linearGradient id="paint0_linear_54_363" x1="896.412" y1="183.5" x2="142.091" y2="557.045" gradientUnits="userSpaceOnUse">
<stop offset="0.450175" stop-color="#FFE7FE"/>
<stop offset="1" stop-color="#FFE7FE" stop-opacity="0"/>
</linearGradient>
</defs>
</svg>
