<svg width="263" height="43" viewBox="0 0 263 43" fill="none" xmlns="http://www.w3.org/2000/svg">
<path d="M7.87063 16.24C6.76397 16.24 5.7373 16.06 4.79063 15.7C3.8573 15.34 3.04397 14.8333 2.35063 14.18C1.67063 13.5267 1.1373 12.76 0.750634 11.88C0.3773 11 0.190634 10.04 0.190634 9C0.190634 7.96 0.3773 7 0.750634 6.12C1.1373 5.24 1.6773 4.47333 2.37063 3.82C3.06397 3.16667 3.8773 2.66 4.81063 2.3C5.74397 1.94 6.7573 1.76 7.85063 1.76C8.9573 1.76 9.97063 1.94 10.8906 2.3C11.824 2.66 12.6306 3.16667 13.3106 3.82C14.004 4.47333 14.544 5.24 14.9306 6.12C15.3173 6.98667 15.5106 7.94667 15.5106 9C15.5106 10.04 15.3173 11.0067 14.9306 11.9C14.544 12.78 14.004 13.5467 13.3106 14.2C12.6306 14.84 11.824 15.34 10.8906 15.7C9.97063 16.06 8.96397 16.24 7.87063 16.24ZM7.85063 13.48C8.4773 13.48 9.05063 13.3733 9.57063 13.16C10.104 12.9467 10.5706 12.64 10.9706 12.24C11.3706 11.84 11.6773 11.3667 11.8906 10.82C12.1173 10.2733 12.2306 9.66667 12.2306 9C12.2306 8.33333 12.1173 7.72667 11.8906 7.18C11.6773 6.63333 11.3706 6.16 10.9706 5.76C10.584 5.36 10.124 5.05333 9.59063 4.84C9.0573 4.62667 8.4773 4.52 7.85063 4.52C7.22397 4.52 6.64397 4.62667 6.11063 4.84C5.59063 5.05333 5.13063 5.36 4.73063 5.76C4.33063 6.16 4.0173 6.63333 3.79063 7.18C3.5773 7.72667 3.47063 8.33333 3.47063 9C3.47063 9.65333 3.5773 10.26 3.79063 10.82C4.0173 11.3667 4.32397 11.84 4.71063 12.24C5.11063 12.64 5.5773 12.9467 6.11063 13.16C6.64397 13.3733 7.22397 13.48 7.85063 13.48ZM23.1066 16.24C22.2266 16.24 21.4266 16.1133 20.7066 15.86C19.9866 15.5933 19.3599 15.1867 18.8266 14.64C18.3066 14.08 17.8999 13.3667 17.6066 12.5C17.3266 11.6333 17.1866 10.6 17.1866 9.4C17.1866 8.54667 17.2599 7.76667 17.4066 7.06C17.5532 6.35333 17.7732 5.71333 18.0666 5.14C18.3599 4.55333 18.7332 4.04 19.1866 3.6C19.6532 3.14667 20.1932 2.77333 20.8066 2.48C21.4332 2.17333 22.1399 1.94 22.9266 1.78L28.0466 0.76L28.4666 3.44L23.9466 4.34C23.6799 4.39333 23.3732 4.46667 23.0266 4.56C22.6932 4.64 22.3532 4.76667 22.0066 4.94C21.6732 5.11333 21.3599 5.36 21.0666 5.68C20.7866 5.98667 20.5599 6.39333 20.3866 6.9C20.2132 7.39333 20.1266 8.00667 20.1266 8.74C20.1266 8.96667 20.1332 9.14 20.1466 9.26C20.1732 9.38 20.1932 9.50667 20.2066 9.64C20.2332 9.77333 20.2466 9.98 20.2466 10.26L19.2466 9.28C19.5399 8.65333 19.9132 8.12 20.3666 7.68C20.8332 7.24 21.3666 6.90667 21.9666 6.68C22.5799 6.44 23.2599 6.32 24.0066 6.32C25.0199 6.32 25.9066 6.52667 26.6666 6.94C27.4399 7.34 28.0399 7.90667 28.4666 8.64C28.8932 9.37333 29.1066 10.2067 29.1066 11.14C29.1066 12.1533 28.8532 13.0467 28.3466 13.82C27.8399 14.58 27.1332 15.1733 26.2266 15.6C25.3332 16.0267 24.2932 16.24 23.1066 16.24ZM23.2666 13.82C23.7866 13.82 24.2466 13.7067 24.6466 13.48C25.0466 13.24 25.3532 12.9267 25.5666 12.54C25.7932 12.14 25.9066 11.6933 25.9066 11.2C25.9066 10.72 25.7932 10.2933 25.5666 9.92C25.3532 9.54667 25.0466 9.25333 24.6466 9.04C24.2466 8.82667 23.7799 8.72 23.2466 8.72C22.7266 8.72 22.2599 8.82667 21.8466 9.04C21.4332 9.24 21.1132 9.52 20.8866 9.88C20.6599 10.24 20.5466 10.66 20.5466 11.14C20.5466 11.6333 20.6599 12.0867 20.8866 12.5C21.1266 12.9 21.4466 13.22 21.8466 13.46C22.2599 13.7 22.7332 13.82 23.2666 13.82ZM38.5636 13.44L37.8836 14.16V5.24H41.0036V14.16L40.2836 13.44H45.2436L44.5436 14.16V5.24H47.6436V16H31.2236V5.24H34.3236V14.16L33.6236 13.44H38.5636ZM46.2436 18.14V15.28L46.9436 16H44.4636V13.44H49.1436V18.14H46.2436ZM57.0777 16V13.9L56.8777 13.44V9.68C56.8777 9.01333 56.671 8.49333 56.2577 8.12C55.8577 7.74667 55.2377 7.56 54.3977 7.56C53.8243 7.56 53.2577 7.65333 52.6977 7.84C52.151 8.01333 51.6843 8.25333 51.2977 8.56L50.1777 6.38C50.7643 5.96667 51.471 5.64667 52.2977 5.42C53.1243 5.19333 53.9643 5.08 54.8177 5.08C56.4577 5.08 57.731 5.46667 58.6377 6.24C59.5443 7.01333 59.9977 8.22 59.9977 9.86V16H57.0777ZM53.7977 16.16C52.9577 16.16 52.2377 16.02 51.6377 15.74C51.0377 15.4467 50.5777 15.0533 50.2577 14.56C49.9377 14.0667 49.7777 13.5133 49.7777 12.9C49.7777 12.26 49.931 11.7 50.2377 11.22C50.5577 10.74 51.0577 10.3667 51.7377 10.1C52.4177 9.82 53.3043 9.68 54.3977 9.68H57.2577V11.5H54.7377C54.0043 11.5 53.4977 11.62 53.2177 11.86C52.951 12.1 52.8177 12.4 52.8177 12.76C52.8177 13.16 52.971 13.48 53.2777 13.72C53.5977 13.9467 54.031 14.06 54.5777 14.06C55.0977 14.06 55.5643 13.94 55.9777 13.7C56.391 13.4467 56.691 13.08 56.8777 12.6L57.3577 14.04C57.131 14.7333 56.7177 15.26 56.1177 15.62C55.5177 15.98 54.7443 16.16 53.7977 16.16ZM62.708 16V5.24H65.808V11.64L71.048 5.24H73.908V16H70.808V9.6L65.588 16H62.708ZM68.108 4.08C66.9346 4.08 66.0546 3.82667 65.468 3.32C64.8813 2.8 64.5813 2.02 64.568 0.979999H66.608C66.6213 1.43333 66.748 1.79333 66.988 2.06C67.228 2.32667 67.5946 2.46 68.088 2.46C68.568 2.46 68.9346 2.32667 69.188 2.06C69.4546 1.79333 69.588 1.43333 69.588 0.979999H71.668C71.668 2.02 71.368 2.8 70.768 3.32C70.168 3.82667 69.2813 4.08 68.108 4.08ZM82.0272 16.16C80.8672 16.16 79.8339 15.9267 78.9272 15.46C78.0205 14.98 77.3072 14.32 76.7872 13.48C76.2805 12.64 76.0272 11.6867 76.0272 10.62C76.0272 9.54 76.2805 8.58667 76.7872 7.76C77.3072 6.92 78.0205 6.26667 78.9272 5.8C79.8339 5.32 80.8672 5.08 82.0272 5.08C83.1605 5.08 84.1472 5.32 84.9872 5.8C85.8272 6.26667 86.4472 6.94 86.8472 7.82L84.4272 9.12C84.1472 8.61333 83.7939 8.24 83.3672 8C82.9539 7.76 82.5005 7.64 82.0072 7.64C81.4739 7.64 80.9939 7.76 80.5672 8C80.1405 8.24 79.8005 8.58 79.5472 9.02C79.3072 9.46 79.1872 9.99333 79.1872 10.62C79.1872 11.2467 79.3072 11.78 79.5472 12.22C79.8005 12.66 80.1405 13 80.5672 13.24C80.9939 13.48 81.4739 13.6 82.0072 13.6C82.5005 13.6 82.9539 13.4867 83.3672 13.26C83.7939 13.02 84.1472 12.64 84.4272 12.12L86.8472 13.44C86.4472 14.3067 85.8272 14.98 84.9872 15.46C84.1472 15.9267 83.1605 16.16 82.0272 16.16ZM95.2692 16V12.42L95.7092 12.92H92.7292C91.1826 12.92 89.9692 12.6 89.0892 11.96C88.2092 11.32 87.7692 10.4 87.7692 9.2C87.7692 7.92 88.2292 6.94 89.1492 6.26C90.0826 5.58 91.3359 5.24 92.9092 5.24H98.0492V16H95.2692ZM87.6092 16L90.4692 11.9H93.6492L90.9292 16H87.6092ZM95.2692 11.46V6.98L95.7092 7.78H92.9692C92.3292 7.78 91.8292 7.9 91.4692 8.14C91.1226 8.38 90.9492 8.76667 90.9492 9.3C90.9492 10.3267 91.6092 10.84 92.9292 10.84H95.7092L95.2692 11.46ZM111.832 16.16C110.672 16.16 109.639 15.9267 108.732 15.46C107.825 14.98 107.112 14.32 106.592 13.48C106.085 12.64 105.832 11.6867 105.832 10.62C105.832 9.54 106.085 8.58667 106.592 7.76C107.112 6.92 107.825 6.26667 108.732 5.8C109.639 5.32 110.672 5.08 111.832 5.08C112.965 5.08 113.952 5.32 114.792 5.8C115.632 6.26667 116.252 6.94 116.652 7.82L114.232 9.12C113.952 8.61333 113.599 8.24 113.172 8C112.759 7.76 112.305 7.64 111.812 7.64C111.279 7.64 110.799 7.76 110.372 8C109.945 8.24 109.605 8.58 109.352 9.02C109.112 9.46 108.992 9.99333 108.992 10.62C108.992 11.2467 109.112 11.78 109.352 12.22C109.605 12.66 109.945 13 110.372 13.24C110.799 13.48 111.279 13.6 111.812 13.6C112.305 13.6 112.759 13.4867 113.172 13.26C113.599 13.02 113.952 12.64 114.232 12.12L116.652 13.44C116.252 14.3067 115.632 14.98 114.792 15.46C113.952 15.9267 112.965 16.16 111.832 16.16ZM127.852 16.2C128.865 16.2 129.772 16.0667 130.572 15.8C131.385 15.52 132.025 15.1267 132.492 14.62C132.972 14.1 133.212 13.4933 133.212 12.8C133.212 11.9867 132.872 11.3467 132.192 10.88C131.512 10.4 130.579 10.16 129.392 10.16L129.312 10.78C129.992 10.78 130.605 10.6667 131.152 10.44C131.699 10.2 132.125 9.87333 132.432 9.46C132.752 9.04667 132.912 8.58 132.912 8.06C132.912 7.40667 132.679 6.85333 132.212 6.4C131.759 5.94667 131.132 5.6 130.332 5.36C129.532 5.12 128.632 5.01333 127.632 5.04C126.952 5.05333 126.265 5.14667 125.572 5.32C124.879 5.49333 124.179 5.72667 123.472 6.02L124.232 8.18C124.832 7.94 125.419 7.76 125.992 7.64C126.565 7.50667 127.119 7.44 127.652 7.44C128.119 7.44 128.505 7.48667 128.812 7.58C129.119 7.66 129.352 7.78 129.512 7.94C129.672 8.1 129.752 8.29333 129.752 8.52C129.752 8.73333 129.685 8.92 129.552 9.08C129.432 9.22667 129.245 9.34 128.992 9.42C128.739 9.5 128.432 9.54 128.072 9.54H126.132V11.48H128.332C128.892 11.48 129.319 11.5733 129.612 11.76C129.905 11.9333 130.052 12.1933 130.052 12.54C130.052 12.8067 129.959 13.0333 129.772 13.22C129.585 13.4067 129.312 13.5533 128.952 13.66C128.605 13.7533 128.192 13.8 127.712 13.8C127.045 13.8 126.385 13.7333 125.732 13.6C125.092 13.4533 124.499 13.2467 123.952 12.98L123.112 15.16C123.805 15.5067 124.559 15.7667 125.372 15.94C126.199 16.1133 127.025 16.2 127.852 16.2ZM141.882 16V13.9L141.682 13.44V9.68C141.682 9.01333 141.476 8.49333 141.062 8.12C140.662 7.74667 140.042 7.56 139.202 7.56C138.629 7.56 138.062 7.65333 137.502 7.84C136.956 8.01333 136.489 8.25333 136.102 8.56L134.982 6.38C135.569 5.96667 136.276 5.64667 137.102 5.42C137.929 5.19333 138.769 5.08 139.622 5.08C141.262 5.08 142.536 5.46667 143.442 6.24C144.349 7.01333 144.802 8.22 144.802 9.86V16H141.882ZM138.602 16.16C137.762 16.16 137.042 16.02 136.442 15.74C135.842 15.4467 135.382 15.0533 135.062 14.56C134.742 14.0667 134.582 13.5133 134.582 12.9C134.582 12.26 134.736 11.7 135.042 11.22C135.362 10.74 135.862 10.3667 136.542 10.1C137.222 9.82 138.109 9.68 139.202 9.68H142.062V11.5H139.542C138.809 11.5 138.302 11.62 138.022 11.86C137.756 12.1 137.622 12.4 137.622 12.76C137.622 13.16 137.776 13.48 138.082 13.72C138.402 13.9467 138.836 14.06 139.382 14.06C139.902 14.06 140.369 13.94 140.782 13.7C141.196 13.4467 141.496 13.08 141.682 12.6L142.162 14.04C141.936 14.7333 141.522 15.26 140.922 15.62C140.322 15.98 139.549 16.16 138.602 16.16ZM155.133 16L151.533 10.9L154.073 9.4L158.813 16H155.133ZM147.513 16V5.24H150.633V16H147.513ZM149.713 11.92V9.42H153.473V11.92H149.713ZM154.373 10.98L151.453 10.66L155.233 5.24H158.553L154.373 10.98ZM166.589 16V13.9L166.389 13.44V9.68C166.389 9.01333 166.183 8.49333 165.769 8.12C165.369 7.74667 164.749 7.56 163.909 7.56C163.336 7.56 162.769 7.65333 162.209 7.84C161.663 8.01333 161.196 8.25333 160.809 8.56L159.689 6.38C160.276 5.96667 160.983 5.64667 161.809 5.42C162.636 5.19333 163.476 5.08 164.329 5.08C165.969 5.08 167.243 5.46667 168.149 6.24C169.056 7.01333 169.509 8.22 169.509 9.86V16H166.589ZM163.309 16.16C162.469 16.16 161.749 16.02 161.149 15.74C160.549 15.4467 160.089 15.0533 159.769 14.56C159.449 14.0667 159.289 13.5133 159.289 12.9C159.289 12.26 159.443 11.7 159.749 11.22C160.069 10.74 160.569 10.3667 161.249 10.1C161.929 9.82 162.816 9.68 163.909 9.68H166.769V11.5H164.249C163.516 11.5 163.009 11.62 162.729 11.86C162.463 12.1 162.329 12.4 162.329 12.76C162.329 13.16 162.483 13.48 162.789 13.72C163.109 13.9467 163.543 14.06 164.089 14.06C164.609 14.06 165.076 13.94 165.489 13.7C165.903 13.4467 166.203 13.08 166.389 12.6L166.869 14.04C166.643 14.7333 166.229 15.26 165.629 15.62C165.029 15.98 164.256 16.16 163.309 16.16ZM175.762 16.2C176.775 16.2 177.682 16.0667 178.482 15.8C179.295 15.52 179.935 15.1267 180.402 14.62C180.882 14.1 181.122 13.4933 181.122 12.8C181.122 11.9867 180.782 11.3467 180.102 10.88C179.422 10.4 178.489 10.16 177.302 10.16L177.222 10.78C177.902 10.78 178.515 10.6667 179.062 10.44C179.609 10.2 180.035 9.87333 180.342 9.46C180.662 9.04667 180.822 8.58 180.822 8.06C180.822 7.40667 180.589 6.85333 180.122 6.4C179.669 5.94667 179.042 5.6 178.242 5.36C177.442 5.12 176.542 5.01333 175.542 5.04C174.862 5.05333 174.175 5.14667 173.482 5.32C172.789 5.49333 172.089 5.72667 171.382 6.02L172.142 8.18C172.742 7.94 173.329 7.76 173.902 7.64C174.475 7.50667 175.029 7.44 175.562 7.44C176.029 7.44 176.415 7.48667 176.722 7.58C177.029 7.66 177.262 7.78 177.422 7.94C177.582 8.1 177.662 8.29333 177.662 8.52C177.662 8.73333 177.595 8.92 177.462 9.08C177.342 9.22667 177.155 9.34 176.902 9.42C176.649 9.5 176.342 9.54 175.982 9.54H174.042V11.48H176.242C176.802 11.48 177.229 11.5733 177.522 11.76C177.815 11.9333 177.962 12.1933 177.962 12.54C177.962 12.8067 177.869 13.0333 177.682 13.22C177.495 13.4067 177.222 13.5533 176.862 13.66C176.515 13.7533 176.102 13.8 175.622 13.8C174.955 13.8 174.295 13.7333 173.642 13.6C173.002 13.4533 172.409 13.2467 171.862 12.98L171.022 15.16C171.715 15.5067 172.469 15.7667 173.282 15.94C174.109 16.1133 174.935 16.2 175.762 16.2ZM190.133 11.88C189.693 12.12 189.206 12.3133 188.673 12.46C188.139 12.6067 187.553 12.68 186.913 12.68C185.499 12.68 184.413 12.36 183.653 11.72C182.893 11.0667 182.513 10.0333 182.513 8.62V5.24H185.633V8.42C185.633 9.08667 185.806 9.56667 186.153 9.86C186.499 10.14 186.986 10.28 187.613 10.28C188.066 10.28 188.499 10.2267 188.913 10.12C189.339 10.0133 189.746 9.86 190.133 9.66V11.88ZM189.913 16V5.24H193.033V16H189.913ZM196.028 16V5.24H199.128V11.64L204.368 5.24H207.228V16H204.128V9.6L198.908 16H196.028ZM217.848 16L214.248 10.9L216.788 9.4L221.528 16H217.848ZM210.228 16V5.24H213.348V16H210.228ZM212.428 11.92V9.42H216.188V11.92H212.428ZM217.088 10.98L214.168 10.66L217.948 5.24H221.268L217.088 10.98ZM229.304 16V13.9L229.104 13.44V9.68C229.104 9.01333 228.898 8.49333 228.484 8.12C228.084 7.74667 227.464 7.56 226.624 7.56C226.051 7.56 225.484 7.65333 224.924 7.84C224.378 8.01333 223.911 8.25333 223.524 8.56L222.404 6.38C222.991 5.96667 223.698 5.64667 224.524 5.42C225.351 5.19333 226.191 5.08 227.044 5.08C228.684 5.08 229.958 5.46667 230.864 6.24C231.771 7.01333 232.224 8.22 232.224 9.86V16H229.304ZM226.024 16.16C225.184 16.16 224.464 16.02 223.864 15.74C223.264 15.4467 222.804 15.0533 222.484 14.56C222.164 14.0667 222.004 13.5133 222.004 12.9C222.004 12.26 222.158 11.7 222.464 11.22C222.784 10.74 223.284 10.3667 223.964 10.1C224.644 9.82 225.531 9.68 226.624 9.68H229.484V11.5H226.964C226.231 11.5 225.724 11.62 225.444 11.86C225.178 12.1 225.044 12.4 225.044 12.76C225.044 13.16 225.198 13.48 225.504 13.72C225.824 13.9467 226.258 14.06 226.804 14.06C227.324 14.06 227.791 13.94 228.204 13.7C228.618 13.4467 228.918 13.08 229.104 12.6L229.584 14.04C229.358 14.7333 228.944 15.26 228.344 15.62C227.744 15.98 226.971 16.16 226.024 16.16ZM234.935 16V5.24H238.195L242.255 12.6H240.955L245.295 5.24H248.215L248.255 16H245.435V8.44L245.915 8.76L242.215 14.96H240.895L237.175 8.54L237.755 8.4V16H234.935ZM251.243 16V5.24H254.343V11.64L259.583 5.24H262.443V16H259.343V9.6L254.123 16H251.243ZM54.1435 40V29.24H59.6435C60.9902 29.24 62.0435 29.4867 62.8035 29.98C63.5635 30.46 63.9435 31.14 63.9435 32.02C63.9435 32.9 63.5835 33.5933 62.8635 34.1C62.1569 34.5933 61.2169 34.84 60.0435 34.84L60.3635 34.12C61.6702 34.12 62.6435 34.36 63.2835 34.84C63.9369 35.32 64.2635 36.02 64.2635 36.94C64.2635 37.8867 63.9035 38.6333 63.1835 39.18C62.4635 39.7267 61.3635 40 59.8835 40H54.1435ZM57.0035 37.88H59.6235C60.1969 37.88 60.6235 37.7867 60.9035 37.6C61.1969 37.4 61.3435 37.1 61.3435 36.7C61.3435 36.2867 61.2102 35.9867 60.9435 35.8C60.6769 35.6 60.2569 35.5 59.6835 35.5H57.0035V37.88ZM57.0035 33.66H59.3635C59.9102 33.66 60.3169 33.56 60.5835 33.36C60.8635 33.16 61.0035 32.8733 61.0035 32.5C61.0035 32.1133 60.8635 31.8267 60.5835 31.64C60.3169 31.4533 59.9102 31.36 59.3635 31.36H57.0035V33.66ZM77.289 40.16C76.1423 40.16 75.1223 39.92 74.229 39.44C73.349 38.96 72.649 38.3067 72.129 37.48C71.6223 36.64 71.369 35.6867 71.369 34.62C71.369 33.54 71.6223 32.5867 72.129 31.76C72.649 30.92 73.349 30.2667 74.229 29.8C75.1223 29.32 76.1423 29.08 77.289 29.08C78.4223 29.08 79.4357 29.32 80.329 29.8C81.2223 30.2667 81.9223 30.9133 82.429 31.74C82.9357 32.5667 83.189 33.5267 83.189 34.62C83.189 35.6867 82.9357 36.64 82.429 37.48C81.9223 38.3067 81.2223 38.96 80.329 39.44C79.4357 39.92 78.4223 40.16 77.289 40.16ZM77.289 37.6C77.809 37.6 78.2757 37.48 78.689 37.24C79.1023 37 79.429 36.66 79.669 36.22C79.909 35.7667 80.029 35.2333 80.029 34.62C80.029 33.9933 79.909 33.46 79.669 33.02C79.429 32.58 79.1023 32.24 78.689 32C78.2757 31.76 77.809 31.64 77.289 31.64C76.769 31.64 76.3023 31.76 75.889 32C75.4757 32.24 75.1423 32.58 74.889 33.02C74.649 33.46 74.529 33.9933 74.529 34.62C74.529 35.2333 74.649 35.7667 74.889 36.22C75.1423 36.66 75.4757 37 75.889 37.24C76.3023 37.48 76.769 37.6 77.289 37.6ZM92.5787 38.6V31.8H89.0587L88.9987 33.18C88.972 33.7533 88.9387 34.3 88.8987 34.82C88.8587 35.34 88.7787 35.8133 88.6587 36.24C88.552 36.6533 88.392 37.0067 88.1787 37.3C87.9653 37.58 87.6787 37.7733 87.3187 37.88L84.2387 37.44C84.6253 37.44 84.9387 37.3267 85.1787 37.1C85.4187 36.86 85.6053 36.5333 85.7387 36.12C85.872 35.6933 85.972 35.2133 86.0387 34.68C86.1053 34.1333 86.152 33.56 86.1787 32.96L86.3187 29.24H95.6987V38.6H92.5787ZM83.8787 42.32V37.44H97.2387V42.32H94.3387V40H86.7787V42.32H83.8787ZM99.2021 40V29.24H102.302V33.44H106.982V29.24H110.102V40H106.982V35.98H102.302V40H99.2021ZM118.129 40.16C116.982 40.16 115.962 39.92 115.069 39.44C114.189 38.96 113.489 38.3067 112.969 37.48C112.462 36.64 112.209 35.6867 112.209 34.62C112.209 33.54 112.462 32.5867 112.969 31.76C113.489 30.92 114.189 30.2667 115.069 29.8C115.962 29.32 116.982 29.08 118.129 29.08C119.262 29.08 120.276 29.32 121.169 29.8C122.062 30.2667 122.762 30.9133 123.269 31.74C123.776 32.5667 124.029 33.5267 124.029 34.62C124.029 35.6867 123.776 36.64 123.269 37.48C122.762 38.3067 122.062 38.96 121.169 39.44C120.276 39.92 119.262 40.16 118.129 40.16ZM118.129 37.6C118.649 37.6 119.116 37.48 119.529 37.24C119.942 37 120.269 36.66 120.509 36.22C120.749 35.7667 120.869 35.2333 120.869 34.62C120.869 33.9933 120.749 33.46 120.509 33.02C120.269 32.58 119.942 32.24 119.529 32C119.116 31.76 118.649 31.64 118.129 31.64C117.609 31.64 117.142 31.76 116.729 32C116.316 32.24 115.982 32.58 115.729 33.02C115.489 33.46 115.369 33.9933 115.369 34.62C115.369 35.2333 115.489 35.7667 115.729 36.22C115.982 36.66 116.316 37 116.729 37.24C117.142 37.48 117.609 37.6 118.129 37.6ZM126.175 40V29.24H129.435L133.495 36.6H132.195L136.535 29.24H139.455L139.495 40H136.675V32.44L137.155 32.76L133.455 38.96H132.135L128.415 32.54L128.995 32.4V40H126.175ZM148.147 40V29.24H151.407L155.467 36.6H154.167L158.507 29.24H161.427L161.467 40H158.647V32.44L159.127 32.76L155.427 38.96H154.107L150.387 32.54L150.967 32.4V40H148.147ZM169.716 40.16C168.489 40.16 167.409 39.92 166.476 39.44C165.556 38.96 164.843 38.3067 164.336 37.48C163.829 36.64 163.576 35.6867 163.576 34.62C163.576 33.54 163.823 32.5867 164.316 31.76C164.823 30.92 165.509 30.2667 166.376 29.8C167.243 29.32 168.223 29.08 169.316 29.08C170.369 29.08 171.316 29.3067 172.156 29.76C173.009 30.2 173.683 30.84 174.176 31.68C174.669 32.5067 174.916 33.5 174.916 34.66C174.916 34.78 174.909 34.92 174.896 35.08C174.883 35.2267 174.869 35.3667 174.856 35.5H166.116V33.68H173.216L172.016 34.22C172.016 33.66 171.903 33.1733 171.676 32.76C171.449 32.3467 171.136 32.0267 170.736 31.8C170.336 31.56 169.869 31.44 169.336 31.44C168.803 31.44 168.329 31.56 167.916 31.8C167.516 32.0267 167.203 32.3533 166.976 32.78C166.749 33.1933 166.636 33.6867 166.636 34.26V34.74C166.636 35.3267 166.763 35.8467 167.016 36.3C167.283 36.74 167.649 37.08 168.116 37.32C168.596 37.5467 169.156 37.66 169.796 37.66C170.369 37.66 170.869 37.5733 171.296 37.4C171.736 37.2267 172.136 36.9667 172.496 36.62L174.156 38.42C173.663 38.98 173.043 39.4133 172.296 39.72C171.549 40.0133 170.689 40.16 169.716 40.16ZM182.428 40.16C181.268 40.16 180.234 39.9267 179.328 39.46C178.421 38.98 177.708 38.32 177.188 37.48C176.681 36.64 176.428 35.6867 176.428 34.62C176.428 33.54 176.681 32.5867 177.188 31.76C177.708 30.92 178.421 30.2667 179.328 29.8C180.234 29.32 181.268 29.08 182.428 29.08C183.561 29.08 184.548 29.32 185.388 29.8C186.228 30.2667 186.848 30.94 187.248 31.82L184.828 33.12C184.548 32.6133 184.194 32.24 183.768 32C183.354 31.76 182.901 31.64 182.408 31.64C181.874 31.64 181.394 31.76 180.968 32C180.541 32.24 180.201 32.58 179.948 33.02C179.708 33.46 179.588 33.9933 179.588 34.62C179.588 35.2467 179.708 35.78 179.948 36.22C180.201 36.66 180.541 37 180.968 37.24C181.394 37.48 181.874 37.6 182.408 37.6C182.901 37.6 183.354 37.4867 183.768 37.26C184.194 37.02 184.548 36.64 184.828 36.12L187.248 37.44C186.848 38.3067 186.228 38.98 185.388 39.46C184.548 39.9267 183.561 40.16 182.428 40.16ZM191.424 40V31.08L192.124 31.8H187.784V29.24H198.164V31.8H193.824L194.524 31.08V40H191.424ZM204.638 40.16C203.411 40.16 202.331 39.92 201.398 39.44C200.478 38.96 199.765 38.3067 199.258 37.48C198.751 36.64 198.498 35.6867 198.498 34.62C198.498 33.54 198.745 32.5867 199.238 31.76C199.745 30.92 200.431 30.2667 201.298 29.8C202.165 29.32 203.145 29.08 204.238 29.08C205.291 29.08 206.238 29.3067 207.078 29.76C207.931 30.2 208.605 30.84 209.098 31.68C209.591 32.5067 209.838 33.5 209.838 34.66C209.838 34.78 209.831 34.92 209.818 35.08C209.805 35.2267 209.791 35.3667 209.778 35.5H201.038V33.68H208.138L206.938 34.22C206.938 33.66 206.825 33.1733 206.598 32.76C206.371 32.3467 206.058 32.0267 205.658 31.8C205.258 31.56 204.791 31.44 204.258 31.44C203.725 31.44 203.251 31.56 202.838 31.8C202.438 32.0267 202.125 32.3533 201.898 32.78C201.671 33.1933 201.558 33.6867 201.558 34.26V34.74C201.558 35.3267 201.685 35.8467 201.938 36.3C202.205 36.74 202.571 37.08 203.038 37.32C203.518 37.5467 204.078 37.66 204.718 37.66C205.291 37.66 205.791 37.5733 206.218 37.4C206.658 37.2267 207.058 36.9667 207.418 36.62L209.078 38.42C208.585 38.98 207.965 39.4133 207.218 39.72C206.471 40.0133 205.611 40.16 204.638 40.16Z" fill="url(#paint0_linear_2_260)"/>
<defs>
<linearGradient id="paint0_linear_2_260" x1="131.686" y1="-3" x2="131.686" y2="51.182" gradientUnits="userSpaceOnUse">
<stop stop-color="white"/>
<stop offset="1" stop-color="#F88600"/>
</linearGradient>
</defs>
</svg>
