<svg width="676" height="160" viewBox="0 0 676 160" fill="none" xmlns="http://www.w3.org/2000/svg">
<path d="M21.7117 92.1802C18.2567 92.4645 15.2162 92.096 12.5902 91.0747C9.99476 90.0173 7.941 88.4304 6.42897 86.314C4.91419 84.1644 4.03513 81.6112 3.79178 78.6545C3.46914 74.7344 4.05692 71.1073 5.55514 67.7732C7.08659 64.4363 9.40494 61.7203 12.5102 59.6252C15.6128 57.4969 19.2569 56.2605 23.4428 55.9159C26.8978 55.6316 29.923 56.0181 32.5185 57.0754C35.1445 58.0968 37.2148 59.6823 38.7296 61.8319C40.2416 63.9484 41.1193 66.4849 41.3627 69.4416C41.6853 73.3617 41.0809 76.9901 39.5495 80.327C38.0513 83.6611 35.7509 86.3924 32.6483 88.5207C29.5431 90.6158 25.8975 91.8356 21.7117 92.1802ZM21.7922 86.4543C24.616 86.2218 27.0529 85.3523 29.1029 83.8458C31.1834 82.3033 32.712 80.3546 33.6888 77.9999C34.6961 75.6092 35.089 73.0684 34.8676 70.3775C34.6269 67.4541 33.4887 65.2065 31.453 63.6349C29.4477 62.0273 26.7341 61.3643 23.3124 61.646C20.4886 61.8784 18.0365 62.7658 15.956 64.3084C13.906 65.8149 12.394 67.7622 11.4199 70.1501C10.4431 72.5049 10.0654 75.0277 10.2869 77.7186C10.5275 80.642 11.6505 82.9076 13.6558 84.5151C15.6583 86.0895 18.3705 86.7359 21.7922 86.4543ZM63.9549 57.6988C57.9406 59.3979 54.2164 63.1159 52.7822 68.8529C55.4732 65.7885 58.8784 64.0867 62.9978 63.7477C66.3864 63.4688 69.1192 64.1636 71.1964 65.8322C73.2736 67.5008 74.4449 69.9463 74.7101 73.1687C74.9398 75.9593 74.4486 78.5249 73.2365 80.8655C72.0549 83.1702 70.2869 85.0549 67.9324 86.5197C65.578 87.9844 62.8559 88.8439 59.7664 89.0982C55.7467 89.429 52.5489 88.5718 50.1731 86.5265C47.8278 84.4452 46.4761 81.2285 46.1179 76.8766C45.8171 73.2223 46.2663 69.7404 47.4656 66.4308C48.698 63.1186 50.5722 60.2886 53.0881 57.941C55.6345 55.5574 58.6563 53.8705 62.1535 52.8803L74.8548 49.3265L75.2397 54.6127L63.9549 57.6988ZM61.0864 69.1728C59.4586 69.3068 57.9452 69.8159 56.5464 70.7003C55.1808 71.582 54.1181 72.6896 53.3582 74.0231C52.5956 75.3233 52.2704 76.6545 52.3825 78.0165C52.5602 80.1759 53.2977 81.821 54.5948 82.9517C55.8892 84.0492 57.5662 84.5132 59.6259 84.3437C61.3534 84.2015 62.8834 83.691 64.2157 82.812C65.5454 81.8999 66.5542 80.7466 67.2421 79.3521C67.9273 77.9244 68.2029 76.3967 68.069 74.7689C67.9076 72.8088 67.2019 71.3451 65.9516 70.3777C64.7346 69.4076 63.1129 69.006 61.0864 69.1728ZM121.609 56.666L118.517 83.7108L79.3 86.9386L82.4418 59.8897L88.6209 59.3812L86.2403 81.0495L96.5554 80.2005L98.9859 58.5281L105.165 58.0195L102.784 79.6878L113 78.847L115.43 57.1746L121.609 56.666ZM123.016 78.0226L121.709 88.9667L115.879 89.4465L116.574 83.8707L112.089 84.2399L112.751 78.8675L123.016 78.0226ZM157.217 53.7353L154.125 80.7801L148.195 81.2681L148.518 78.4823C146.362 80.7334 143.556 82.0011 140.101 82.2855C137.909 82.4659 135.877 82.1649 134.007 81.3824C132.169 80.5971 130.663 79.3665 129.489 77.6905C128.311 75.9814 127.624 73.9308 127.427 71.5389C127.184 68.5822 127.613 65.8712 128.714 63.4059C129.846 60.9046 131.487 58.8966 133.637 57.3818C135.82 55.8643 138.323 54.9894 141.147 54.757C145.399 54.407 148.538 55.57 150.565 58.2462L150.988 54.248L157.217 53.7353ZM141.257 76.8223C143.018 76.6773 144.545 76.1336 145.839 75.1909C147.163 74.2124 148.162 72.9428 148.836 71.3822C149.508 69.7884 149.764 68.0281 149.606 66.1013C149.434 64.0084 148.685 62.4311 147.36 61.3696C146.032 60.2748 144.256 59.819 142.03 60.0022C140.269 60.1471 138.727 60.7088 137.403 61.6874C136.109 62.6301 135.126 63.8983 134.455 65.4921C133.781 67.0526 133.523 68.7963 133.681 70.7231C133.854 72.8161 134.603 74.4099 135.931 75.5047C137.256 76.5663 139.031 77.0055 141.257 76.8223ZM165.705 53.0367L171.984 52.5199L169.831 70.8583L186.435 51.3305L192.365 50.8424L189.223 77.8913L182.895 78.4122L185.143 60.0157L168.543 79.5934L162.563 80.0855L165.705 53.0367ZM179.387 48.5994C176.995 48.7962 175.129 48.4649 173.787 47.6054C172.445 46.7459 171.702 45.4358 171.557 43.6751C171.513 43.1436 171.517 42.5747 171.567 41.9685L175.653 41.6322C175.625 42.1028 175.616 42.4045 175.627 42.5374C175.709 43.534 176.088 44.2721 176.763 44.7517C177.438 45.2313 178.34 45.4246 179.47 45.3316C180.732 45.2277 181.751 44.8094 182.527 44.0766C183.333 43.3079 183.833 42.2634 184.025 40.9432L188.161 40.6027C187.926 43.0302 187.062 44.9241 185.568 46.2846C184.072 47.6118 182.012 48.3834 179.387 48.5994ZM211.083 76.4432C208.459 76.6593 206.11 76.3676 204.038 75.5682C201.996 74.7329 200.371 73.4787 199.163 71.8054C197.955 70.1322 197.255 68.1329 197.064 65.8074C196.82 62.8508 197.282 60.137 198.45 57.6662C199.618 55.1954 201.344 53.1972 203.626 51.6715C205.939 50.1098 208.64 49.2018 211.73 48.9475C214.421 48.7261 216.773 49.0676 218.788 49.972C220.833 50.8406 222.471 52.2609 223.704 54.2331L218.597 57.4127C217.166 55.0555 214.856 54.0082 211.666 54.2707C209.906 54.4156 208.363 54.9774 207.039 55.9559C205.745 56.8986 204.763 58.1668 204.091 59.7606C203.417 61.3211 203.159 63.0648 203.318 64.9917C203.49 67.0846 204.24 68.6784 205.567 69.7732C206.892 70.8348 208.684 71.2726 210.943 71.0867C212.471 70.9609 213.826 70.5484 215.006 69.8493C216.183 69.1169 217.153 68.1006 217.915 66.8003L222.754 69.5126C221.678 71.4741 220.104 73.0753 218.032 74.3161C215.958 75.5236 213.641 76.2327 211.083 76.4432ZM252.074 45.928L248.982 72.9727L243.451 73.428L244.323 65.1285L237.496 65.6904L231.242 74.4328L224.316 75.0029L231.792 65.2569C230.178 64.7542 228.925 63.9543 228.032 62.8572C227.136 61.7268 226.62 60.3311 226.483 58.6701C226.213 55.3812 227.247 52.704 229.585 50.6386C231.921 48.5399 235.281 47.3101 239.666 46.9492L252.074 45.928ZM239.599 52.2225C237.307 52.4112 235.583 53.0046 234.427 54.0027C233.272 55.0009 232.764 56.3471 232.904 58.0413C233.106 60.4997 234.851 61.5935 238.14 61.3228L244.868 60.7691L245.878 51.7058L239.599 52.2225ZM284.565 70.3952C281.941 70.6112 279.592 70.3196 277.52 69.5202C275.478 68.6849 273.853 67.4307 272.645 65.7574C271.437 64.0842 270.737 62.0849 270.546 59.7594C270.302 56.8027 270.764 54.089 271.932 51.6182C273.1 49.1474 274.826 47.1492 277.108 45.6235C279.421 44.0618 282.122 43.1538 285.212 42.8995C287.903 42.678 290.255 43.0196 292.27 43.924C294.315 44.7926 295.953 46.2129 297.186 48.1851L292.079 51.3647C290.648 49.0075 288.338 47.9602 285.148 48.2227C283.388 48.3676 281.845 48.9293 280.521 49.9079C279.227 50.8506 278.245 52.1188 277.573 53.7126C276.899 55.2731 276.641 57.0168 276.8 58.9436C276.972 61.0366 277.722 62.6304 279.049 63.7252C280.374 64.7868 282.166 65.2246 284.425 65.0387C285.953 64.9129 287.308 64.5004 288.488 63.8013C289.665 63.0689 290.635 62.0526 291.397 60.7523L296.236 63.4645C295.16 65.4261 293.586 67.0273 291.514 68.2681C289.44 69.4756 287.123 70.1847 284.565 70.3952ZM331.055 52.4212C332.524 52.802 333.68 53.4426 334.524 54.3431C335.398 55.2077 335.888 56.2878 335.995 57.5834C336.129 59.2112 335.652 60.7388 334.566 62.166C333.476 63.5601 331.917 64.7253 329.887 65.6616C327.854 66.5648 325.542 67.123 322.951 67.3362C318.997 67.6616 315.345 66.9755 311.995 65.278L313.88 60.7581C315.001 61.3682 316.324 61.7945 317.849 62.0369C319.407 62.2765 321.033 62.3266 322.728 62.1872C324.953 62.004 326.701 61.4923 327.969 60.652C329.271 59.8091 329.873 58.7896 329.774 57.5936C329.698 56.6635 329.242 55.9986 328.406 55.5992C327.568 55.1665 326.418 55.0103 324.956 55.1306L319.824 55.553L320.123 51.264L324.408 50.9113C326.169 50.7664 327.524 50.3705 328.475 49.7238C329.455 49.041 329.904 48.2013 329.822 47.2047C329.746 46.2745 329.255 45.5958 328.35 45.1686C327.479 44.7386 326.229 44.5906 324.601 44.7246C323.306 44.8313 322.024 45.104 320.756 45.5428C319.521 45.979 318.134 46.6115 316.597 47.4403L314.742 42.5761C318.043 40.8328 321.372 39.823 324.727 39.5469C327.95 39.2816 330.593 39.6996 332.657 40.8006C334.754 41.899 335.89 43.5112 336.065 45.6374C336.183 47.0659 335.789 48.3859 334.886 49.5974C333.982 50.809 332.705 51.7502 331.055 52.4212ZM370.607 36.172L367.515 63.2168L361.585 63.7049L361.908 60.919C359.752 63.1701 356.946 64.4379 353.491 64.7222C351.299 64.9027 349.267 64.6017 347.396 63.8191C345.559 63.0338 344.053 61.8032 342.878 60.1273C341.701 58.4181 341.014 56.3676 340.817 53.9757C340.574 51.019 341.003 48.308 342.104 45.8427C343.236 43.3414 344.877 41.3334 347.027 39.8186C349.209 38.3011 351.713 37.4261 354.537 37.1937C358.789 36.8437 361.928 38.0068 363.954 40.6829L364.378 36.6847L370.607 36.172ZM354.647 59.259C356.408 59.1141 357.935 58.5703 359.228 57.6277C360.553 56.6491 361.552 55.3795 362.226 53.819C362.898 52.2252 363.154 50.4649 362.996 48.538C362.823 46.4451 362.075 44.8679 360.75 43.8063C359.422 42.7115 357.646 42.2557 355.42 42.4389C353.659 42.5838 352.117 43.1456 350.792 44.1242C349.499 45.0668 348.516 46.335 347.845 47.9288C347.17 49.4894 346.912 51.2331 347.071 53.1599C347.243 55.2528 347.993 56.8467 349.321 57.9415C350.646 59.003 352.421 59.4422 354.647 59.259ZM393.383 47.542L402.264 60.3567L395.039 60.9514L388.53 50.751L383.447 51.1693L382.182 62.0096L375.953 62.5223L379.095 35.4734L385.324 34.9607L384.067 45.9007L388.851 45.507L398.081 33.9108L404.908 33.3489L393.383 47.542ZM435.037 30.869L431.945 57.9138L426.016 58.4019L426.338 55.616C424.182 57.8671 421.377 59.1348 417.922 59.4192C415.729 59.5997 413.698 59.2986 411.827 58.5161C409.99 57.7308 408.484 56.5002 407.309 54.8243C406.132 53.1151 405.444 51.0646 405.247 48.6726C405.004 45.716 405.433 43.005 406.535 40.5396C407.667 38.0384 409.307 36.0303 411.457 34.5156C413.64 32.9981 416.143 32.1231 418.967 31.8907C423.219 31.5407 426.359 32.7038 428.385 35.3799L428.808 31.3817L435.037 30.869ZM419.077 53.956C420.838 53.8111 422.365 53.2673 423.659 52.3247C424.983 51.3461 425.982 50.0765 426.657 48.5159C427.328 46.9221 427.585 45.1618 427.426 43.235C427.254 41.1421 426.505 39.5649 425.18 38.5033C423.853 37.4085 422.076 36.9527 419.85 37.1359C418.09 37.2808 416.547 37.8426 415.223 38.8212C413.929 39.7638 412.947 41.032 412.275 42.6258C411.601 44.1864 411.343 45.9301 411.502 47.8569C411.674 49.9498 412.424 51.5436 413.751 52.6384C415.076 53.7 416.852 54.1392 419.077 53.956ZM456.655 42.0835C458.125 42.4643 459.281 43.1049 460.125 44.0054C460.998 44.87 461.489 45.9501 461.595 47.2457C461.729 48.8735 461.253 50.4011 460.166 51.8284C459.077 53.2224 457.517 54.3876 455.487 55.3239C453.455 56.2271 451.143 56.7853 448.551 56.9985C444.598 57.3239 440.946 56.6378 437.596 54.9403L439.481 50.4204C440.602 51.0305 441.924 51.4568 443.449 51.6992C445.008 51.9388 446.634 51.9889 448.328 51.8495C450.554 51.6663 452.301 51.1546 453.57 50.3143C454.872 49.4714 455.474 48.4519 455.375 47.256C455.299 46.3258 454.843 45.6609 454.007 45.2615C453.169 44.8288 452.019 44.6726 450.557 44.7929L445.424 45.2153L445.723 40.9263L450.009 40.5736C451.77 40.4287 453.125 40.0329 454.075 39.3861C455.056 38.7033 455.505 37.8636 455.423 36.867C455.347 35.9368 454.856 35.2581 453.951 34.8309C453.08 34.4009 451.83 34.2529 450.202 34.3869C448.906 34.4936 447.625 34.7663 446.356 35.2052C445.121 35.6413 443.735 36.2738 442.198 37.1027L440.343 32.2384C443.644 30.4951 446.972 29.4853 450.328 29.2092C453.55 28.9439 456.193 29.3619 458.257 30.4629C460.355 31.5613 461.491 33.1735 461.666 35.2997C461.783 36.7282 461.39 38.0482 460.486 39.2597C459.583 40.4713 458.306 41.4125 456.655 42.0835ZM492.57 26.1337L489.428 53.1826L483.249 53.6912L484.41 43.4113C481.842 44.7264 479.246 45.4919 476.622 45.7079C473.599 45.9567 471.241 45.5488 469.548 44.4841C467.852 43.3861 466.904 41.6246 466.704 39.1995C466.628 38.2693 466.64 37.3987 466.74 36.5877L467.704 28.1804L473.933 27.6677L472.924 36.129C472.868 36.6687 472.857 37.1545 472.893 37.5864C472.991 38.7824 473.445 39.6147 474.252 40.0833C475.06 40.552 476.195 40.7261 477.657 40.6058C479.949 40.4172 482.409 39.6294 485.038 38.2424L486.341 26.6464L492.57 26.1337ZM500.997 25.4401L507.276 24.9233L505.123 43.2618L521.727 23.7339L527.657 23.2459L524.515 50.2947L518.187 50.8156L520.435 32.4192L503.835 51.9968L497.855 52.489L500.997 25.4401ZM550.372 34.6209L559.253 47.4356L552.027 48.0303L545.519 37.8298L540.436 38.2482L539.171 49.0885L532.942 49.6012L536.084 22.5523L542.313 22.0396L541.056 32.9796L545.84 32.5859L555.069 20.9897L561.896 20.4278L550.372 34.6209ZM592.026 17.9479L588.934 44.9927L583.004 45.4807L583.327 42.6949C581.171 44.946 578.365 46.2137 574.91 46.4981C572.718 46.6786 570.686 46.3775 568.816 45.595C566.978 44.8097 565.472 43.5791 564.298 41.9032C563.12 40.194 562.433 38.1434 562.236 35.7515C561.993 32.7949 562.422 30.0839 563.523 27.6185C564.655 25.1173 566.296 23.1092 568.446 21.5945C570.629 20.0769 573.132 19.202 575.956 18.9696C580.208 18.6196 583.347 19.7827 585.374 22.4588L585.797 18.4606L592.026 17.9479ZM576.066 41.0349C577.827 40.89 579.354 40.3462 580.648 39.4036C581.972 38.425 582.971 37.1554 583.645 35.5948C584.317 34.001 584.573 32.2407 584.415 30.3139C584.243 28.221 583.494 26.6438 582.169 25.5822C580.842 24.4874 579.065 24.0316 576.839 24.2148C575.078 24.3597 573.536 24.9215 572.212 25.9001C570.918 26.8427 569.935 28.1109 569.264 29.7047C568.59 31.2653 568.332 33.0089 568.49 34.9358C568.663 37.0287 569.412 38.6225 570.74 39.7173C572.065 40.7789 573.84 41.2181 576.066 41.0349ZM632.207 14.6408L629.165 41.6814L623.484 42.149L625.483 24.3752L614.982 40.0393L612.292 40.2608L605.111 25.5502L603.003 43.8347L597.372 44.2982L600.514 17.2493L606.942 16.7202L614.442 32.8594L626.327 15.1247L632.207 14.6408ZM640.662 13.9449L646.94 13.4281L644.787 31.7665L661.392 12.2387L667.322 11.7506L664.18 38.7995L657.851 39.3204L660.1 20.924L643.5 40.5016L637.52 40.9938L640.662 13.9449ZM29.3337 138.461C31.9268 139.084 33.3369 140.774 33.5638 143.531C33.7771 146.122 32.8822 148.253 30.8791 149.923C28.9065 151.557 26.0432 152.528 22.2892 152.837L8.48589 153.973L11.6277 126.924L24.4344 125.87C27.3911 125.627 29.7105 125.971 31.3926 126.903C33.0747 127.835 33.9991 129.314 34.1659 131.341C34.2917 132.869 33.9207 134.254 33.053 135.496C32.2185 136.735 30.9787 137.723 29.3337 138.461ZM16.2299 137.733L22.7578 137.196C24.4188 137.059 25.719 136.601 26.6582 135.821C27.6306 135.039 28.0703 134.083 27.9774 132.954C27.8242 131.093 26.3524 130.278 23.5618 130.508L17.0339 131.045L16.2299 137.733ZM22.0655 148.29C23.8926 148.14 25.309 147.672 26.3147 146.887C27.3176 146.069 27.7671 145.028 27.6632 143.766C27.5839 142.802 27.1777 142.133 26.4445 141.759C25.7418 141.349 24.6762 141.202 23.2477 141.32L15.773 141.935L14.9894 148.873L22.0655 148.29ZM66.3943 149.558C63.803 149.772 61.4878 149.477 59.4484 148.675C57.4396 147.837 55.8312 146.581 54.6232 144.908C53.4152 143.235 52.7155 141.236 52.5241 138.91C52.2807 135.953 52.7264 133.241 53.8611 130.773C55.029 128.302 56.7543 126.304 59.0368 124.778C61.3498 123.217 64.0179 122.311 67.041 122.063C69.6323 121.849 71.9476 122.144 73.9869 122.946C76.0262 123.748 77.6499 124.986 78.8579 126.659C80.0659 128.332 80.7656 130.331 80.957 132.657C81.2003 135.613 80.738 138.327 79.5701 140.798C78.4022 143.269 76.6617 145.285 74.3487 146.847C72.0689 148.406 69.4174 149.309 66.3943 149.558ZM66.3541 144.193C68.1148 144.049 69.642 143.505 70.9357 142.562C72.2599 141.584 73.2591 140.314 73.9334 138.753C74.6049 137.16 74.8614 135.399 74.7028 133.473C74.5305 131.38 73.782 129.802 72.4571 128.741C71.1295 127.646 69.3528 127.19 67.127 127.373C65.3662 127.518 63.8238 128.08 62.4996 129.059C61.2059 130.001 60.2233 131.27 59.5518 132.863C58.8775 134.424 58.6197 136.168 58.7782 138.094C58.9505 140.187 59.7004 141.781 61.0281 142.876C62.3529 143.938 64.1283 144.377 66.3541 144.193ZM110.453 140.263L114.39 139.939L113.07 151.335L107.24 151.815L107.948 145.787L87.4174 147.477L86.7095 153.505L80.9291 153.981L82.1989 142.588L83.2453 142.502C84.9341 142.296 86.2683 141.033 87.2478 138.711C88.2246 136.356 89.0236 133.264 89.6449 129.433L91.0077 120.391L112.934 118.586L110.453 140.263ZM95.2001 129.879C94.6931 133.065 94.1659 135.6 93.6187 137.484C93.1046 139.366 92.3378 140.817 91.318 141.838L104.224 140.776L106.093 124.467L95.8775 125.308L95.2001 129.879ZM122.435 117.804L128.614 117.296L127.361 128.286L140.766 127.182L142.018 116.192L148.247 115.68L145.155 142.725L138.926 143.237L140.154 132.551L126.749 133.654L125.522 144.341L119.293 144.853L122.435 117.804ZM166.787 141.295C164.196 141.509 161.881 141.214 159.841 140.412C157.833 139.574 156.224 138.318 155.016 136.645C153.808 134.972 153.108 132.973 152.917 130.647C152.674 127.691 153.119 124.978 154.254 122.51C155.422 120.039 157.147 118.041 159.43 116.515C161.743 114.954 164.411 114.048 167.434 113.8C170.025 113.586 172.341 113.881 174.38 114.683C176.419 115.485 178.043 116.723 179.251 118.396C180.459 120.069 181.159 122.068 181.35 124.394C181.593 127.35 181.131 130.064 179.963 132.535C178.795 135.006 177.055 137.022 174.742 138.584C172.462 140.143 169.81 141.047 166.787 141.295ZM166.747 135.931C168.508 135.786 170.035 135.242 171.329 134.299C172.653 133.321 173.652 132.051 174.326 130.491C174.998 128.897 175.254 127.136 175.096 125.21C174.923 123.117 174.175 121.539 172.85 120.478C171.522 119.383 169.746 118.927 167.52 119.11C165.759 119.255 164.217 119.817 162.893 120.796C161.599 121.738 160.616 123.007 159.945 124.6C159.27 126.161 159.013 127.905 159.171 129.831C159.343 131.924 160.093 133.518 161.421 134.613C162.746 135.675 164.521 136.114 166.747 135.931ZM220.894 109.701L217.852 136.741L212.171 137.209L214.17 119.435L203.669 135.099L200.978 135.321L193.797 120.61L191.69 138.894L186.059 139.358L189.201 112.309L195.629 111.78L203.129 127.919L215.014 110.185L220.894 109.701ZM274.813 105.263L271.771 132.303L266.09 132.771L268.089 114.997L257.589 130.661L254.898 130.883L247.717 116.172L245.609 134.457L239.979 134.92L243.12 107.871L249.549 107.342L257.048 123.481L268.933 105.747L274.813 105.263ZM306.876 114.062C306.983 115.358 306.954 116.631 306.789 117.882L285.661 119.621C286.119 123.965 288.856 125.93 293.872 125.518C295.4 125.392 296.81 125.042 298.1 124.467C299.388 123.86 300.461 123.086 301.321 122.145L304.269 126.267C303.008 127.609 301.44 128.674 299.565 129.464C297.721 130.218 295.752 130.681 293.659 130.853C291.001 131.072 288.636 130.781 286.564 129.982C284.524 129.18 282.901 127.942 281.693 126.269C280.482 124.563 279.781 122.547 279.589 120.221C279.346 117.265 279.775 114.554 280.877 112.088C282.009 109.587 283.683 107.576 285.899 106.056C288.148 104.533 290.735 103.651 293.658 103.411C297.379 103.104 300.438 103.906 302.836 105.816C305.232 107.692 306.578 110.441 306.876 114.062ZM293.769 108.418C291.676 108.591 289.929 109.303 288.527 110.556C287.158 111.805 286.272 113.434 285.868 115.44L301.117 114.185C300.986 112.189 300.244 110.695 298.892 109.703C297.57 108.674 295.862 108.246 293.769 108.418ZM324.753 128.294C322.128 128.51 319.78 128.218 317.707 127.419C315.665 126.584 314.04 125.329 312.832 123.656C311.624 121.983 310.924 119.983 310.733 117.658C310.49 114.701 310.952 111.988 312.12 109.517C313.288 107.046 315.013 105.048 317.296 103.522C319.609 101.96 322.31 101.052 325.399 100.798C328.09 100.577 330.443 100.918 332.457 101.823C334.502 102.691 336.141 104.112 337.373 106.084L332.267 109.263C330.835 106.906 328.525 105.859 325.336 106.121C323.575 106.266 322.033 106.828 320.709 107.807C319.415 108.749 318.432 110.017 317.761 111.611C317.086 113.172 316.829 114.915 316.987 116.842C317.159 118.935 317.909 120.529 319.237 121.624C320.562 122.685 322.354 123.123 324.613 122.937C326.141 122.811 327.495 122.399 328.675 121.7C329.852 120.968 330.822 119.951 331.585 118.651L336.424 121.363C335.347 123.325 333.774 124.926 331.702 126.167C329.627 127.374 327.311 128.083 324.753 128.294ZM364.224 103.222L354.756 104.001L352.325 125.673L346.096 126.186L348.527 104.514L339.258 105.276L339.87 99.9081L364.835 97.8533L364.224 103.222ZM391.794 107.073C391.901 108.369 391.872 109.642 391.707 110.893L370.579 112.632C371.037 116.976 373.774 118.941 378.79 118.528C380.318 118.403 381.728 118.052 383.018 117.478C384.306 116.87 385.379 116.096 386.238 115.156L389.187 119.278C387.926 120.619 386.358 121.685 384.483 122.475C382.639 123.228 380.67 123.692 378.577 123.864C375.919 124.083 373.554 123.792 371.482 122.993C369.442 122.191 367.819 120.953 366.611 119.28C365.4 117.573 364.699 115.558 364.507 113.232C364.264 110.275 364.693 107.564 365.795 105.099C366.927 102.598 368.601 100.587 370.817 99.0668C373.066 97.5438 375.652 96.662 378.576 96.4214C382.297 96.1151 385.356 96.9169 387.754 98.8266C390.149 100.703 391.496 103.452 391.794 107.073ZM378.687 101.429C376.594 101.601 374.847 102.314 373.445 103.566C372.076 104.816 371.19 106.444 370.786 108.451L386.035 107.196C385.904 105.2 385.162 103.706 383.81 102.713C382.487 101.685 380.78 101.257 378.687 101.429Z" fill="url(#paint0_linear_2_171)"/>
<defs>
<linearGradient id="paint0_linear_2_171" x1="341.037" y1="17.2338" x2="355.979" y2="198.779" gradientUnits="userSpaceOnUse">
<stop stop-color="white"/>
<stop offset="1" stop-color="#F88600"/>
</linearGradient>
</defs>
</svg>
