<svg width="1329" height="494" viewBox="0 0 1329 494" fill="none" xmlns="http://www.w3.org/2000/svg">
<g filter="url(#filter0_d_57_366)">
<g opacity="0.2" filter="url(#filter1_d_57_366)">
<path d="M24 24H1195C1250.23 24 1295 68.7715 1295 124V360C1295 415.228 1250.23 460 1195 460H24V24Z" fill="#D9D9D9"/>
<path d="M27 27H1195C1248.57 27 1292 70.4284 1292 124V360C1292 413.572 1248.57 457 1195 457H27V27Z" stroke="white" stroke-width="6"/>
</g>
<path d="M24 44H1166C1221.23 44 1266 88.7715 1266 144V339C1266 394.228 1221.23 439 1166 439H24V44Z" fill="url(#paint0_linear_57_366)"/>
</g>
<g filter="url(#filter2_d_57_366)">
<path d="M561.35 198V163H593.25V198H585.2V167.75L587.05 169.6H567.55L569.4 167.75V198H561.35ZM613.926 198.4C611.06 198.4 608.51 197.8 606.276 196.6C604.076 195.4 602.326 193.767 601.026 191.7C599.76 189.6 599.126 187.217 599.126 184.55C599.126 181.85 599.76 179.467 601.026 177.4C602.326 175.3 604.076 173.667 606.276 172.5C608.51 171.3 611.06 170.7 613.926 170.7C616.76 170.7 619.293 171.3 621.526 172.5C623.76 173.667 625.51 175.283 626.776 177.35C628.043 179.417 628.676 181.817 628.676 184.55C628.676 187.217 628.043 189.6 626.776 191.7C625.51 193.767 623.76 195.4 621.526 196.6C619.293 197.8 616.76 198.4 613.926 198.4ZM613.926 192C615.226 192 616.393 191.7 617.426 191.1C618.46 190.5 619.276 189.65 619.876 188.55C620.476 187.417 620.776 186.083 620.776 184.55C620.776 182.983 620.476 181.65 619.876 180.55C619.276 179.45 618.46 178.6 617.426 178C616.393 177.4 615.226 177.1 613.926 177.1C612.626 177.1 611.46 177.4 610.426 178C609.393 178.6 608.56 179.45 607.926 180.55C607.326 181.65 607.026 182.983 607.026 184.55C607.026 186.083 607.326 187.417 607.926 188.55C608.56 189.65 609.393 190.5 610.426 191.1C611.46 191.7 612.626 192 613.926 192ZM630.25 197.95L630.65 191.55C630.85 191.583 631.05 191.617 631.25 191.65C631.45 191.65 631.634 191.65 631.8 191.65C632.734 191.65 633.467 191.383 634 190.85C634.534 190.317 634.934 189.6 635.2 188.7C635.467 187.767 635.65 186.717 635.75 185.55C635.884 184.383 635.984 183.167 636.05 181.9L636.45 171.1H659.45V198H651.65V175.6L653.4 177.5H641.6L643.25 175.5L642.9 182.25C642.8 184.65 642.6 186.85 642.3 188.85C642.034 190.85 641.584 192.583 640.95 194.05C640.317 195.483 639.467 196.6 638.4 197.4C637.334 198.167 635.967 198.55 634.3 198.55C633.7 198.55 633.067 198.5 632.4 198.4C631.734 198.3 631.017 198.15 630.25 197.95ZM670.601 208.1C669.201 208.1 667.818 207.883 666.451 207.45C665.085 207.017 663.968 206.417 663.101 205.65L665.951 200.1C666.551 200.633 667.235 201.05 668.001 201.35C668.801 201.65 669.585 201.8 670.351 201.8C671.451 201.8 672.318 201.533 672.951 201C673.618 200.5 674.218 199.65 674.751 198.45L676.151 195.15L676.751 194.3L686.401 171.1H693.901L681.751 199.65C680.885 201.817 679.885 203.517 678.751 204.75C677.651 205.983 676.418 206.85 675.051 207.35C673.718 207.85 672.235 208.1 670.601 208.1ZM675.201 199.05L663.201 171.1H671.251L680.551 193.6L675.201 199.05ZM714.614 187.7C713.514 188.3 712.297 188.783 710.964 189.15C709.631 189.517 708.164 189.7 706.564 189.7C703.031 189.7 700.314 188.9 698.414 187.3C696.514 185.667 695.564 183.083 695.564 179.55V171.1H703.364V179.05C703.364 180.717 703.797 181.917 704.664 182.65C705.531 183.35 706.747 183.7 708.314 183.7C709.447 183.7 710.531 183.567 711.564 183.3C712.631 183.033 713.647 182.65 714.614 182.15V187.7ZM714.064 198V171.1H721.864V198H714.064ZM745.454 198V192.75L744.954 191.6V182.2C744.954 180.533 744.437 179.233 743.404 178.3C742.404 177.367 740.854 176.9 738.754 176.9C737.32 176.9 735.904 177.133 734.504 177.6C733.137 178.033 731.97 178.633 731.004 179.4L728.204 173.95C729.67 172.917 731.437 172.117 733.504 171.55C735.57 170.983 737.67 170.7 739.804 170.7C743.904 170.7 747.087 171.667 749.354 173.6C751.62 175.533 752.754 178.55 752.754 182.65V198H745.454ZM737.254 198.4C735.154 198.4 733.354 198.05 731.854 197.35C730.354 196.617 729.204 195.633 728.404 194.4C727.604 193.167 727.204 191.783 727.204 190.25C727.204 188.65 727.587 187.25 728.354 186.05C729.154 184.85 730.404 183.917 732.104 183.25C733.804 182.55 736.02 182.2 738.754 182.2H745.904V186.75H739.604C737.77 186.75 736.504 187.05 735.804 187.65C735.137 188.25 734.804 189 734.804 189.9C734.804 190.9 735.187 191.7 735.954 192.3C736.754 192.867 737.837 193.15 739.204 193.15C740.504 193.15 741.67 192.85 742.704 192.25C743.737 191.617 744.487 190.7 744.954 189.5L746.154 193.1C745.587 194.833 744.554 196.15 743.054 197.05C741.554 197.95 739.62 198.4 737.254 198.4ZM759.529 198V171.1H767.279V187.1L780.379 171.1H787.529V198H779.779V182L766.729 198H759.529ZM773.029 168.2C770.096 168.2 767.896 167.567 766.429 166.3C764.963 165 764.213 163.05 764.179 160.45H769.279C769.313 161.583 769.629 162.483 770.229 163.15C770.829 163.817 771.746 164.15 772.979 164.15C774.179 164.15 775.096 163.817 775.729 163.15C776.396 162.483 776.729 161.583 776.729 160.45H781.929C781.929 163.05 781.179 165 779.679 166.3C778.179 167.567 775.963 168.2 773.029 168.2ZM812.838 208.1C811.438 208.1 810.054 207.883 808.688 207.45C807.321 207.017 806.204 206.417 805.337 205.65L808.188 200.1C808.788 200.633 809.471 201.05 810.238 201.35C811.038 201.65 811.821 201.8 812.588 201.8C813.688 201.8 814.554 201.533 815.188 201C815.854 200.5 816.454 199.65 816.988 198.45L818.388 195.15L818.988 194.3L828.638 171.1H836.138L823.988 199.65C823.121 201.817 822.121 203.517 820.988 204.75C819.888 205.983 818.654 206.85 817.288 207.35C815.954 207.85 814.471 208.1 812.838 208.1ZM817.438 199.05L805.438 171.1H813.488L822.788 193.6L817.438 199.05ZM839.9 198V171.1H853.65C857.017 171.1 859.65 171.717 861.55 172.95C863.45 174.15 864.4 175.85 864.4 178.05C864.4 180.25 863.5 181.983 861.7 183.25C859.934 184.483 857.584 185.1 854.65 185.1L855.45 183.3C858.717 183.3 861.15 183.9 862.75 185.1C864.384 186.3 865.2 188.05 865.2 190.35C865.2 192.717 864.3 194.583 862.5 195.95C860.7 197.317 857.95 198 854.25 198H839.9ZM847.05 192.7H853.6C855.034 192.7 856.1 192.467 856.8 192C857.534 191.5 857.9 190.75 857.9 189.75C857.9 188.717 857.567 187.967 856.9 187.5C856.234 187 855.184 186.75 853.75 186.75H847.05V192.7ZM847.05 182.15H852.95C854.317 182.15 855.334 181.9 856 181.4C856.7 180.9 857.05 180.183 857.05 179.25C857.05 178.283 856.7 177.567 856 177.1C855.334 176.633 854.317 176.4 852.95 176.4H847.05V182.15ZM884.154 198.4C881.087 198.4 878.387 197.8 876.054 196.6C873.754 195.4 871.971 193.767 870.704 191.7C869.437 189.6 868.804 187.217 868.804 184.55C868.804 181.85 869.421 179.467 870.654 177.4C871.921 175.3 873.637 173.667 875.804 172.5C877.971 171.3 880.421 170.7 883.154 170.7C885.787 170.7 888.154 171.267 890.254 172.4C892.387 173.5 894.071 175.1 895.304 177.2C896.537 179.267 897.154 181.75 897.154 184.65C897.154 184.95 897.137 185.3 897.104 185.7C897.071 186.067 897.037 186.417 897.004 186.75H875.154V182.2H892.904L889.904 183.55C889.904 182.15 889.621 180.933 889.054 179.9C888.487 178.867 887.704 178.067 886.704 177.5C885.704 176.9 884.537 176.6 883.204 176.6C881.871 176.6 880.687 176.9 879.654 177.5C878.654 178.067 877.871 178.883 877.304 179.95C876.737 180.983 876.454 182.217 876.454 183.65V184.85C876.454 186.317 876.771 187.617 877.404 188.75C878.071 189.85 878.987 190.7 880.154 191.3C881.354 191.867 882.754 192.15 884.354 192.15C885.787 192.15 887.037 191.933 888.104 191.5C889.204 191.067 890.204 190.417 891.104 189.55L895.254 194.05C894.021 195.45 892.471 196.533 890.604 197.3C888.737 198.033 886.587 198.4 884.154 198.4ZM921.389 194.5V177.5H912.589L912.439 180.95C912.372 182.383 912.289 183.75 912.189 185.05C912.089 186.35 911.889 187.533 911.589 188.6C911.322 189.633 910.922 190.517 910.389 191.25C909.855 191.95 909.139 192.433 908.239 192.7L900.539 191.6C901.505 191.6 902.289 191.317 902.889 190.75C903.489 190.15 903.955 189.333 904.289 188.3C904.622 187.233 904.872 186.033 905.039 184.7C905.205 183.333 905.322 181.9 905.389 180.4L905.739 171.1H929.189V194.5H921.389ZM899.639 203.8V191.6H933.039V203.8H925.789V198H906.889V203.8H899.639ZM950.547 198.4C947.681 198.4 945.131 197.8 942.897 196.6C940.697 195.4 938.947 193.767 937.647 191.7C936.381 189.6 935.747 187.217 935.747 184.55C935.747 181.85 936.381 179.467 937.647 177.4C938.947 175.3 940.697 173.667 942.897 172.5C945.131 171.3 947.681 170.7 950.547 170.7C953.381 170.7 955.914 171.3 958.147 172.5C960.381 173.667 962.131 175.283 963.397 177.35C964.664 179.417 965.297 181.817 965.297 184.55C965.297 187.217 964.664 189.6 963.397 191.7C962.131 193.767 960.381 195.4 958.147 196.6C955.914 197.8 953.381 198.4 950.547 198.4ZM950.547 192C951.847 192 953.014 191.7 954.047 191.1C955.081 190.5 955.897 189.65 956.497 188.55C957.097 187.417 957.397 186.083 957.397 184.55C957.397 182.983 957.097 181.65 956.497 180.55C955.897 179.45 955.081 178.6 954.047 178C953.014 177.4 951.847 177.1 950.547 177.1C949.247 177.1 948.081 177.4 947.047 178C946.014 178.6 945.181 179.45 944.547 180.55C943.947 181.65 943.647 182.983 943.647 184.55C943.647 186.083 943.947 187.417 944.547 188.55C945.181 189.65 946.014 190.5 947.047 191.1C948.081 191.7 949.247 192 950.547 192ZM970.662 198V171.1H978.812L988.962 189.5H985.712L996.562 171.1H1003.86L1003.96 198H996.912V179.1L998.112 179.9L988.862 195.4H985.562L976.262 179.35L977.712 179V198H970.662ZM1008.03 197.95L1008.43 191.55C1008.63 191.583 1008.83 191.617 1009.03 191.65C1009.23 191.65 1009.42 191.65 1009.58 191.65C1010.52 191.65 1011.25 191.383 1011.78 190.85C1012.32 190.317 1012.72 189.6 1012.98 188.7C1013.25 187.767 1013.43 186.717 1013.53 185.55C1013.67 184.383 1013.77 183.167 1013.83 181.9L1014.23 171.1H1037.23V198H1029.43V175.6L1031.18 177.5H1019.38L1021.03 175.5L1020.68 182.25C1020.58 184.65 1020.38 186.85 1020.08 188.85C1019.82 190.85 1019.37 192.583 1018.73 194.05C1018.1 195.483 1017.25 196.6 1016.18 197.4C1015.12 198.167 1013.75 198.55 1012.08 198.55C1011.48 198.55 1010.85 198.5 1010.18 198.4C1009.52 198.3 1008.8 198.15 1008.03 197.95ZM1057.88 198.4C1054.82 198.4 1052.12 197.8 1049.78 196.6C1047.48 195.4 1045.7 193.767 1044.43 191.7C1043.17 189.6 1042.53 187.217 1042.53 184.55C1042.53 181.85 1043.15 179.467 1044.38 177.4C1045.65 175.3 1047.37 173.667 1049.53 172.5C1051.7 171.3 1054.15 170.7 1056.88 170.7C1059.52 170.7 1061.88 171.267 1063.98 172.4C1066.12 173.5 1067.8 175.1 1069.03 177.2C1070.27 179.267 1070.88 181.75 1070.88 184.65C1070.88 184.95 1070.87 185.3 1070.83 185.7C1070.8 186.067 1070.77 186.417 1070.73 186.75H1048.88V182.2H1066.63L1063.63 183.55C1063.63 182.15 1063.35 180.933 1062.78 179.9C1062.22 178.867 1061.43 178.067 1060.43 177.5C1059.43 176.9 1058.27 176.6 1056.93 176.6C1055.6 176.6 1054.42 176.9 1053.38 177.5C1052.38 178.067 1051.6 178.883 1051.03 179.95C1050.47 180.983 1050.18 182.217 1050.18 183.65V184.85C1050.18 186.317 1050.5 187.617 1051.13 188.75C1051.8 189.85 1052.72 190.7 1053.88 191.3C1055.08 191.867 1056.48 192.15 1058.08 192.15C1059.52 192.15 1060.77 191.933 1061.83 191.5C1062.93 191.067 1063.93 190.417 1064.83 189.55L1068.98 194.05C1067.75 195.45 1066.2 196.533 1064.33 197.3C1062.47 198.033 1060.32 198.4 1057.88 198.4ZM1076.86 198V171.1H1084.61V181.6H1096.31V171.1H1104.11V198H1096.31V187.95H1084.61V198H1076.86ZM1111.58 198V171.1H1119.33V187.1L1132.43 171.1H1139.58V198H1131.83V182L1118.78 198H1111.58ZM1164.03 198V189.05L1165.13 190.3H1157.68C1153.81 190.3 1150.78 189.5 1148.58 187.9C1146.38 186.3 1145.28 184 1145.28 181C1145.28 177.8 1146.43 175.35 1148.73 173.65C1151.06 171.95 1154.19 171.1 1158.13 171.1H1170.98V198H1164.03ZM1144.88 198L1152.03 187.75H1159.98L1153.18 198H1144.88ZM1164.03 186.65V175.45L1165.13 177.45H1158.28C1156.68 177.45 1155.43 177.75 1154.53 178.35C1153.66 178.95 1153.23 179.917 1153.23 181.25C1153.23 183.817 1154.88 185.1 1158.18 185.1H1165.13L1164.03 186.65ZM560.75 259V232.1H568.5V248.1L581.6 232.1H588.75V259H581V243L567.95 259H560.75ZM623.008 259.4C620.142 259.4 617.592 258.8 615.358 257.6C613.158 256.4 611.408 254.767 610.108 252.7C608.842 250.6 608.208 248.217 608.208 245.55C608.208 242.85 608.842 240.467 610.108 238.4C611.408 236.3 613.158 234.667 615.358 233.5C617.592 232.3 620.142 231.7 623.008 231.7C625.842 231.7 628.375 232.3 630.608 233.5C632.842 234.667 634.592 236.283 635.858 238.35C637.125 240.417 637.758 242.817 637.758 245.55C637.758 248.217 637.125 250.6 635.858 252.7C634.592 254.767 632.842 256.4 630.608 257.6C628.375 258.8 625.842 259.4 623.008 259.4ZM623.008 253C624.308 253 625.475 252.7 626.508 252.1C627.542 251.5 628.358 250.65 628.958 249.55C629.558 248.417 629.858 247.083 629.858 245.55C629.858 243.983 629.558 242.65 628.958 241.55C628.358 240.45 627.542 239.6 626.508 239C625.475 238.4 624.308 238.1 623.008 238.1C621.708 238.1 620.542 238.4 619.508 239C618.475 239.6 617.642 240.45 617.008 241.55C616.408 242.65 616.108 243.983 616.108 245.55C616.108 247.083 616.408 248.417 617.008 249.55C617.642 250.65 618.475 251.5 619.508 252.1C620.542 252.7 621.708 253 623.008 253ZM647.896 259V236.7L649.646 238.5H638.796V232.1H664.746V238.5H653.896L655.646 236.7V259H647.896ZM668.904 259V232.1H682.654C686.021 232.1 688.654 232.717 690.554 233.95C692.454 235.15 693.404 236.85 693.404 239.05C693.404 241.25 692.504 242.983 690.704 244.25C688.938 245.483 686.588 246.1 683.654 246.1L684.454 244.3C687.721 244.3 690.154 244.9 691.754 246.1C693.388 247.3 694.204 249.05 694.204 251.35C694.204 253.717 693.304 255.583 691.504 256.95C689.704 258.317 686.954 259 683.254 259H668.904ZM676.054 253.7H682.604C684.038 253.7 685.104 253.467 685.804 253C686.538 252.5 686.904 251.75 686.904 250.75C686.904 249.717 686.571 248.967 685.904 248.5C685.238 248 684.188 247.75 682.754 247.75H676.054V253.7ZM676.054 243.15H681.954C683.321 243.15 684.338 242.9 685.004 242.4C685.704 241.9 686.054 241.183 686.054 240.25C686.054 239.283 685.704 238.567 685.004 238.1C684.338 237.633 683.321 237.4 681.954 237.4H676.054V243.15ZM713.158 259.4C710.091 259.4 707.391 258.8 705.058 257.6C702.758 256.4 700.974 254.767 699.708 252.7C698.441 250.6 697.808 248.217 697.808 245.55C697.808 242.85 698.424 240.467 699.658 238.4C700.924 236.3 702.641 234.667 704.808 233.5C706.974 232.3 709.424 231.7 712.158 231.7C714.791 231.7 717.158 232.267 719.258 233.4C721.391 234.5 723.074 236.1 724.308 238.2C725.541 240.267 726.158 242.75 726.158 245.65C726.158 245.95 726.141 246.3 726.108 246.7C726.074 247.067 726.041 247.417 726.008 247.75H704.158V243.2H721.908L718.908 244.55C718.908 243.15 718.624 241.933 718.058 240.9C717.491 239.867 716.708 239.067 715.708 238.5C714.708 237.9 713.541 237.6 712.208 237.6C710.874 237.6 709.691 237.9 708.658 238.5C707.658 239.067 706.874 239.883 706.308 240.95C705.741 241.983 705.458 243.217 705.458 244.65V245.85C705.458 247.317 705.774 248.617 706.408 249.75C707.074 250.85 707.991 251.7 709.158 252.3C710.358 252.867 711.758 253.15 713.358 253.15C714.791 253.15 716.041 252.933 717.108 252.5C718.208 252.067 719.208 251.417 720.108 250.55L724.258 255.05C723.024 256.45 721.474 257.533 719.608 258.3C717.741 259.033 715.591 259.4 713.158 259.4ZM749.087 248.7C747.987 249.3 746.77 249.783 745.437 250.15C744.103 250.517 742.637 250.7 741.037 250.7C737.503 250.7 734.787 249.9 732.887 248.3C730.987 246.667 730.037 244.083 730.037 240.55V232.1H737.837V240.05C737.837 241.717 738.27 242.917 739.137 243.65C740.003 244.35 741.22 244.7 742.787 244.7C743.92 244.7 745.003 244.567 746.037 244.3C747.103 244.033 748.12 243.65 749.087 243.15V248.7ZM748.537 259V232.1H756.337V259H748.537ZM779.926 259V253.75L779.426 252.6V243.2C779.426 241.533 778.91 240.233 777.876 239.3C776.876 238.367 775.326 237.9 773.226 237.9C771.793 237.9 770.376 238.133 768.976 238.6C767.61 239.033 766.443 239.633 765.476 240.4L762.676 234.95C764.143 233.917 765.91 233.117 767.976 232.55C770.043 231.983 772.143 231.7 774.276 231.7C778.376 231.7 781.56 232.667 783.826 234.6C786.093 236.533 787.226 239.55 787.226 243.65V259H779.926ZM771.726 259.4C769.626 259.4 767.826 259.05 766.326 258.35C764.826 257.617 763.676 256.633 762.876 255.4C762.076 254.167 761.676 252.783 761.676 251.25C761.676 249.65 762.06 248.25 762.826 247.05C763.626 245.85 764.876 244.917 766.576 244.25C768.276 243.55 770.493 243.2 773.226 243.2H780.376V247.75H774.076C772.243 247.75 770.976 248.05 770.276 248.65C769.61 249.25 769.276 250 769.276 250.9C769.276 251.9 769.66 252.7 770.426 253.3C771.226 253.867 772.31 254.15 773.676 254.15C774.976 254.15 776.143 253.85 777.176 253.25C778.21 252.617 778.96 251.7 779.426 250.5L780.626 254.1C780.06 255.833 779.026 257.15 777.526 258.05C776.026 258.95 774.093 259.4 771.726 259.4ZM794.002 259V232.1H801.752V248.1L814.852 232.1H822.002V259H814.252V243L801.202 259H794.002ZM807.502 229.2C804.569 229.2 802.369 228.567 800.902 227.3C799.435 226 798.685 224.05 798.652 221.45H803.752C803.785 222.583 804.102 223.483 804.702 224.15C805.302 224.817 806.219 225.15 807.452 225.15C808.652 225.15 809.569 224.817 810.202 224.15C810.869 223.483 811.202 222.583 811.202 221.45H816.402C816.402 224.05 815.652 226 814.152 227.3C812.652 228.567 810.435 229.2 807.502 229.2ZM843.66 259V232.1H857.41C860.777 232.1 863.41 232.717 865.31 233.95C867.21 235.15 868.16 236.85 868.16 239.05C868.16 241.25 867.26 242.983 865.46 244.25C863.693 245.483 861.343 246.1 858.41 246.1L859.21 244.3C862.477 244.3 864.91 244.9 866.51 246.1C868.143 247.3 868.96 249.05 868.96 251.35C868.96 253.717 868.06 255.583 866.26 256.95C864.46 258.317 861.71 259 858.01 259H843.66ZM850.81 253.7H857.36C858.793 253.7 859.86 253.467 860.56 253C861.293 252.5 861.66 251.75 861.66 250.75C861.66 249.717 861.327 248.967 860.66 248.5C859.993 248 858.943 247.75 857.51 247.75H850.81V253.7ZM850.81 243.15H856.71C858.077 243.15 859.093 242.9 859.76 242.4C860.46 241.9 860.81 241.183 860.81 240.25C860.81 239.283 860.46 238.567 859.76 238.1C859.093 237.633 858.077 237.4 856.71 237.4H850.81V243.15ZM887.564 259.4C884.664 259.4 882.08 258.817 879.814 257.65C877.547 256.45 875.764 254.8 874.464 252.7C873.197 250.6 872.564 248.217 872.564 245.55C872.564 242.85 873.197 240.467 874.464 238.4C875.764 236.3 877.547 234.667 879.814 233.5C882.08 232.3 884.664 231.7 887.564 231.7C890.397 231.7 892.864 232.3 894.964 233.5C897.064 234.667 898.614 236.35 899.614 238.55L893.564 241.8C892.864 240.533 891.98 239.6 890.914 239C889.88 238.4 888.747 238.1 887.514 238.1C886.18 238.1 884.98 238.4 883.914 239C882.847 239.6 881.997 240.45 881.364 241.55C880.764 242.65 880.464 243.983 880.464 245.55C880.464 247.117 880.764 248.45 881.364 249.55C881.997 250.65 882.847 251.5 883.914 252.1C884.98 252.7 886.18 253 887.514 253C888.747 253 889.88 252.717 890.914 252.15C891.98 251.55 892.864 250.6 893.564 249.3L899.614 252.6C898.614 254.767 897.064 256.45 894.964 257.65C892.864 258.817 890.397 259.4 887.564 259.4ZM917.162 259.4C914.095 259.4 911.395 258.8 909.062 257.6C906.762 256.4 904.978 254.767 903.712 252.7C902.445 250.6 901.812 248.217 901.812 245.55C901.812 242.85 902.428 240.467 903.662 238.4C904.928 236.3 906.645 234.667 908.812 233.5C910.978 232.3 913.428 231.7 916.162 231.7C918.795 231.7 921.162 232.267 923.262 233.4C925.395 234.5 927.078 236.1 928.312 238.2C929.545 240.267 930.162 242.75 930.162 245.65C930.162 245.95 930.145 246.3 930.112 246.7C930.078 247.067 930.045 247.417 930.012 247.75H908.162V243.2H925.912L922.912 244.55C922.912 243.15 922.628 241.933 922.062 240.9C921.495 239.867 920.712 239.067 919.712 238.5C918.712 237.9 917.545 237.6 916.212 237.6C914.878 237.6 913.695 237.9 912.662 238.5C911.662 239.067 910.878 239.883 910.312 240.95C909.745 241.983 909.462 243.217 909.462 244.65V245.85C909.462 247.317 909.778 248.617 910.412 249.75C911.078 250.85 911.995 251.7 913.162 252.3C914.362 252.867 915.762 253.15 917.362 253.15C918.795 253.15 920.045 252.933 921.112 252.5C922.212 252.067 923.212 251.417 924.112 250.55L928.262 255.05C927.028 256.45 925.478 257.533 923.612 258.3C921.745 259.033 919.595 259.4 917.162 259.4ZM936.141 259V232.1H944.291L954.441 250.5H951.191L962.041 232.1H969.341L969.441 259H962.391V240.1L963.591 240.9L954.341 256.4H951.041L941.741 240.35L943.191 240V259H936.141ZM1008.02 248.7C1006.92 249.3 1005.71 249.783 1004.37 250.15C1003.04 250.517 1001.57 250.7 999.972 250.7C996.439 250.7 993.722 249.9 991.822 248.3C989.922 246.667 988.972 244.083 988.972 240.55V232.1H996.772V240.05C996.772 241.717 997.206 242.917 998.072 243.65C998.939 244.35 1000.16 244.7 1001.72 244.7C1002.86 244.7 1003.94 244.567 1004.97 244.3C1006.04 244.033 1007.06 243.65 1008.02 243.15V248.7ZM1007.47 259V232.1H1015.27V259H1007.47ZM1035.91 259.4C1032.85 259.4 1030.15 258.8 1027.81 257.6C1025.51 256.4 1023.73 254.767 1022.46 252.7C1021.2 250.6 1020.56 248.217 1020.56 245.55C1020.56 242.85 1021.18 240.467 1022.41 238.4C1023.68 236.3 1025.4 234.667 1027.56 233.5C1029.73 232.3 1032.18 231.7 1034.91 231.7C1037.55 231.7 1039.91 232.267 1042.01 233.4C1044.15 234.5 1045.83 236.1 1047.06 238.2C1048.3 240.267 1048.91 242.75 1048.91 245.65C1048.91 245.95 1048.9 246.3 1048.86 246.7C1048.83 247.067 1048.8 247.417 1048.76 247.75H1026.91V243.2H1044.66L1041.66 244.55C1041.66 243.15 1041.38 241.933 1040.81 240.9C1040.25 239.867 1039.46 239.067 1038.46 238.5C1037.46 237.9 1036.3 237.6 1034.96 237.6C1033.63 237.6 1032.45 237.9 1031.41 238.5C1030.41 239.067 1029.63 239.883 1029.06 240.95C1028.5 241.983 1028.21 243.217 1028.21 244.65V245.85C1028.21 247.317 1028.53 248.617 1029.16 249.75C1029.83 250.85 1030.75 251.7 1031.91 252.3C1033.11 252.867 1034.51 253.15 1036.11 253.15C1037.55 253.15 1038.8 252.933 1039.86 252.5C1040.96 252.067 1041.96 251.417 1042.86 250.55L1047.01 255.05C1045.78 256.45 1044.23 257.533 1042.36 258.3C1040.5 259.033 1038.35 259.4 1035.91 259.4ZM1070.74 259.4C1068.47 259.4 1066.49 258.9 1064.79 257.9C1063.09 256.9 1061.76 255.383 1060.79 253.35C1059.86 251.283 1059.39 248.683 1059.39 245.55C1059.39 242.383 1059.84 239.783 1060.74 237.75C1061.64 235.717 1062.94 234.2 1064.64 233.2C1066.34 232.2 1068.37 231.7 1070.74 231.7C1073.27 231.7 1075.54 232.283 1077.54 233.45C1079.57 234.583 1081.17 236.183 1082.34 238.25C1083.54 240.317 1084.14 242.75 1084.14 245.55C1084.14 248.383 1083.54 250.833 1082.34 252.9C1081.17 254.967 1079.57 256.567 1077.54 257.7C1075.54 258.833 1073.27 259.4 1070.74 259.4ZM1054.84 268.7V232.1H1062.29V237.6L1062.14 245.6L1062.64 253.55V268.7H1054.84ZM1069.39 253C1070.69 253 1071.84 252.7 1072.84 252.1C1073.87 251.5 1074.69 250.65 1075.29 249.55C1075.92 248.417 1076.24 247.083 1076.24 245.55C1076.24 243.983 1075.92 242.65 1075.29 241.55C1074.69 240.45 1073.87 239.6 1072.84 239C1071.84 238.4 1070.69 238.1 1069.39 238.1C1068.09 238.1 1066.92 238.4 1065.89 239C1064.86 239.6 1064.04 240.45 1063.44 241.55C1062.84 242.65 1062.54 243.983 1062.54 245.55C1062.54 247.083 1062.84 248.417 1063.44 249.55C1064.04 250.65 1064.86 251.5 1065.89 252.1C1066.92 252.7 1068.09 253 1069.39 253ZM1102.76 259.4C1099.69 259.4 1096.99 258.8 1094.66 257.6C1092.36 256.4 1090.57 254.767 1089.31 252.7C1088.04 250.6 1087.41 248.217 1087.41 245.55C1087.41 242.85 1088.02 240.467 1089.26 238.4C1090.52 236.3 1092.24 234.667 1094.41 233.5C1096.57 232.3 1099.02 231.7 1101.76 231.7C1104.39 231.7 1106.76 232.267 1108.86 233.4C1110.99 234.5 1112.67 236.1 1113.91 238.2C1115.14 240.267 1115.76 242.75 1115.76 245.65C1115.76 245.95 1115.74 246.3 1115.71 246.7C1115.67 247.067 1115.64 247.417 1115.61 247.75H1093.76V243.2H1111.51L1108.51 244.55C1108.51 243.15 1108.22 241.933 1107.66 240.9C1107.09 239.867 1106.31 239.067 1105.31 238.5C1104.31 237.9 1103.14 237.6 1101.81 237.6C1100.47 237.6 1099.29 237.9 1098.26 238.5C1097.26 239.067 1096.47 239.883 1095.91 240.95C1095.34 241.983 1095.06 243.217 1095.06 244.65V245.85C1095.06 247.317 1095.37 248.617 1096.01 249.75C1096.67 250.85 1097.59 251.7 1098.76 252.3C1099.96 252.867 1101.36 253.15 1102.96 253.15C1104.39 253.15 1105.64 252.933 1106.71 252.5C1107.81 252.067 1108.81 251.417 1109.71 250.55L1113.86 255.05C1112.62 256.45 1111.07 257.533 1109.21 258.3C1107.34 259.033 1105.19 259.4 1102.76 259.4ZM1130.54 259.5C1133.08 259.5 1135.34 259.167 1137.34 258.5C1139.38 257.8 1140.98 256.817 1142.14 255.55C1143.34 254.25 1143.94 252.733 1143.94 251C1143.94 248.967 1143.09 247.367 1141.39 246.2C1139.69 245 1137.36 244.4 1134.39 244.4L1134.19 245.95C1135.89 245.95 1137.43 245.667 1138.79 245.1C1140.16 244.5 1141.23 243.683 1141.99 242.65C1142.79 241.617 1143.19 240.45 1143.19 239.15C1143.19 237.517 1142.61 236.133 1141.44 235C1140.31 233.867 1138.74 233 1136.74 232.4C1134.74 231.8 1132.49 231.533 1129.99 231.6C1128.29 231.633 1126.58 231.867 1124.84 232.3C1123.11 232.733 1121.36 233.317 1119.59 234.05L1121.49 239.45C1122.99 238.85 1124.46 238.4 1125.89 238.1C1127.33 237.767 1128.71 237.6 1130.04 237.6C1131.21 237.6 1132.18 237.717 1132.94 237.95C1133.71 238.15 1134.29 238.45 1134.69 238.85C1135.09 239.25 1135.29 239.733 1135.29 240.3C1135.29 240.833 1135.13 241.3 1134.79 241.7C1134.49 242.067 1134.03 242.35 1133.39 242.55C1132.76 242.75 1131.99 242.85 1131.09 242.85H1126.24V247.7H1131.74C1133.14 247.7 1134.21 247.933 1134.94 248.4C1135.68 248.833 1136.04 249.483 1136.04 250.35C1136.04 251.017 1135.81 251.583 1135.34 252.05C1134.88 252.517 1134.19 252.883 1133.29 253.15C1132.43 253.383 1131.39 253.5 1130.19 253.5C1128.53 253.5 1126.88 253.333 1125.24 253C1123.64 252.633 1122.16 252.117 1120.79 251.45L1118.69 256.9C1120.43 257.767 1122.31 258.417 1124.34 258.85C1126.41 259.283 1128.48 259.5 1130.54 259.5ZM560.75 320V293.1H568.9L579.05 311.5H575.8L586.65 293.1H593.95L594.05 320H587V301.1L588.2 301.9L578.95 317.4H575.65L566.35 301.35L567.8 301V320H560.75ZM614.671 320.4C611.605 320.4 608.905 319.8 606.571 318.6C604.271 317.4 602.488 315.767 601.221 313.7C599.955 311.6 599.321 309.217 599.321 306.55C599.321 303.85 599.938 301.467 601.171 299.4C602.438 297.3 604.155 295.667 606.321 294.5C608.488 293.3 610.938 292.7 613.671 292.7C616.305 292.7 618.671 293.267 620.771 294.4C622.905 295.5 624.588 297.1 625.821 299.2C627.055 301.267 627.671 303.75 627.671 306.65C627.671 306.95 627.655 307.3 627.621 307.7C627.588 308.067 627.555 308.417 627.521 308.75H605.671V304.2H623.421L620.421 305.55C620.421 304.15 620.138 302.933 619.571 301.9C619.005 300.867 618.221 300.067 617.221 299.5C616.221 298.9 615.055 298.6 613.721 298.6C612.388 298.6 611.205 298.9 610.171 299.5C609.171 300.067 608.388 300.883 607.821 301.95C607.255 302.983 606.971 304.217 606.971 305.65V306.85C606.971 308.317 607.288 309.617 607.921 310.75C608.588 311.85 609.505 312.7 610.671 313.3C611.871 313.867 613.271 314.15 614.871 314.15C616.305 314.15 617.555 313.933 618.621 313.5C619.721 313.067 620.721 312.417 621.621 311.55L625.771 316.05C624.538 317.45 622.988 318.533 621.121 319.3C619.255 320.033 617.105 320.4 614.671 320.4ZM646.45 320.4C643.55 320.4 640.967 319.817 638.7 318.65C636.434 317.45 634.65 315.8 633.35 313.7C632.084 311.6 631.45 309.217 631.45 306.55C631.45 303.85 632.084 301.467 633.35 299.4C634.65 297.3 636.434 295.667 638.7 294.5C640.967 293.3 643.55 292.7 646.45 292.7C649.284 292.7 651.75 293.3 653.85 294.5C655.95 295.667 657.5 297.35 658.5 299.55L652.45 302.8C651.75 301.533 650.867 300.6 649.8 300C648.767 299.4 647.634 299.1 646.4 299.1C645.067 299.1 643.867 299.4 642.8 300C641.734 300.6 640.884 301.45 640.25 302.55C639.65 303.65 639.35 304.983 639.35 306.55C639.35 308.117 639.65 309.45 640.25 310.55C640.884 311.65 641.734 312.5 642.8 313.1C643.867 313.7 645.067 314 646.4 314C647.634 314 648.767 313.717 649.8 313.15C650.867 312.55 651.75 311.6 652.45 310.3L658.5 313.6C657.5 315.767 655.95 317.45 653.85 318.65C651.75 319.817 649.284 320.4 646.45 320.4ZM675.698 320.4C672.798 320.4 670.215 319.817 667.948 318.65C665.682 317.45 663.898 315.8 662.598 313.7C661.332 311.6 660.698 309.217 660.698 306.55C660.698 303.85 661.332 301.467 662.598 299.4C663.898 297.3 665.682 295.667 667.948 294.5C670.215 293.3 672.798 292.7 675.698 292.7C678.532 292.7 680.998 293.3 683.098 294.5C685.198 295.667 686.748 297.35 687.748 299.55L681.698 302.8C680.998 301.533 680.115 300.6 679.048 300C678.015 299.4 676.882 299.1 675.648 299.1C674.315 299.1 673.115 299.4 672.048 300C670.982 300.6 670.132 301.45 669.498 302.55C668.898 303.65 668.598 304.983 668.598 306.55C668.598 308.117 668.898 309.45 669.498 310.55C670.132 311.65 670.982 312.5 672.048 313.1C673.115 313.7 674.315 314 675.648 314C676.882 314 678.015 313.717 679.048 313.15C680.115 312.55 680.998 311.6 681.698 310.3L687.748 313.6C686.748 315.767 685.198 317.45 683.098 318.65C680.998 319.817 678.532 320.4 675.698 320.4ZM705.296 320.4C702.23 320.4 699.53 319.8 697.196 318.6C694.896 317.4 693.113 315.767 691.846 313.7C690.58 311.6 689.946 309.217 689.946 306.55C689.946 303.85 690.563 301.467 691.796 299.4C693.063 297.3 694.78 295.667 696.946 294.5C699.113 293.3 701.563 292.7 704.296 292.7C706.93 292.7 709.296 293.267 711.396 294.4C713.53 295.5 715.213 297.1 716.446 299.2C717.68 301.267 718.296 303.75 718.296 306.65C718.296 306.95 718.28 307.3 718.246 307.7C718.213 308.067 718.18 308.417 718.146 308.75H696.296V304.2H714.046L711.046 305.55C711.046 304.15 710.763 302.933 710.196 301.9C709.63 300.867 708.846 300.067 707.846 299.5C706.846 298.9 705.68 298.6 704.346 298.6C703.013 298.6 701.83 298.9 700.796 299.5C699.796 300.067 699.013 300.883 698.446 301.95C697.88 302.983 697.596 304.217 697.596 305.65V306.85C697.596 308.317 697.913 309.617 698.546 310.75C699.213 311.85 700.13 312.7 701.296 313.3C702.496 313.867 703.896 314.15 705.496 314.15C706.93 314.15 708.18 313.933 709.246 313.5C710.346 313.067 711.346 312.417 712.246 311.55L716.396 316.05C715.163 317.45 713.613 318.533 711.746 319.3C709.88 320.033 707.73 320.4 705.296 320.4ZM724.275 320V293.1H732.025V303.6H743.725V293.1H751.525V320H743.725V309.95H732.025V320H724.275ZM777.492 316.5V299.5H768.692L768.542 302.95C768.476 304.383 768.392 305.75 768.292 307.05C768.192 308.35 767.992 309.533 767.692 310.6C767.426 311.633 767.026 312.517 766.492 313.25C765.959 313.95 765.242 314.433 764.342 314.7L756.642 313.6C757.609 313.6 758.392 313.317 758.992 312.75C759.592 312.15 760.059 311.333 760.392 310.3C760.726 309.233 760.976 308.033 761.142 306.7C761.309 305.333 761.426 303.9 761.492 302.4L761.842 293.1H785.292V316.5H777.492ZM755.742 325.8V313.6H789.142V325.8H781.892V320H762.992V325.8H755.742ZM826.401 320L819.251 307.25L825.551 303.5L835.651 320H826.401ZM814.651 309.8V303.55H824.001V309.8H814.651ZM826.351 307.45L819.001 306.65L826.751 293.1H835.001L826.351 307.45ZM799.801 320H790.601L800.651 303.5L806.951 307.25L799.801 320ZM816.951 320H809.251V293.1H816.951V320ZM811.551 309.8H802.251V303.55H811.551V309.8ZM799.851 307.45L791.201 293.1H799.451L807.151 306.65L799.851 307.45ZM852.025 320.4C848.958 320.4 846.258 319.8 843.925 318.6C841.625 317.4 839.842 315.767 838.575 313.7C837.308 311.6 836.675 309.217 836.675 306.55C836.675 303.85 837.292 301.467 838.525 299.4C839.792 297.3 841.508 295.667 843.675 294.5C845.842 293.3 848.292 292.7 851.025 292.7C853.658 292.7 856.025 293.267 858.125 294.4C860.258 295.5 861.942 297.1 863.175 299.2C864.408 301.267 865.025 303.75 865.025 306.65C865.025 306.95 865.008 307.3 864.975 307.7C864.942 308.067 864.908 308.417 864.875 308.75H843.025V304.2H860.775L857.775 305.55C857.775 304.15 857.492 302.933 856.925 301.9C856.358 300.867 855.575 300.067 854.575 299.5C853.575 298.9 852.408 298.6 851.075 298.6C849.742 298.6 848.558 298.9 847.525 299.5C846.525 300.067 845.742 300.883 845.175 301.95C844.608 302.983 844.325 304.217 844.325 305.65V306.85C844.325 308.317 844.642 309.617 845.275 310.75C845.942 311.85 846.858 312.7 848.025 313.3C849.225 313.867 850.625 314.15 852.225 314.15C853.658 314.15 854.908 313.933 855.975 313.5C857.075 313.067 858.075 312.417 858.975 311.55L863.125 316.05C861.892 317.45 860.342 318.533 858.475 319.3C856.608 320.033 854.458 320.4 852.025 320.4ZM886.854 320.4C884.587 320.4 882.604 319.9 880.904 318.9C879.204 317.9 877.871 316.383 876.904 314.35C875.971 312.283 875.504 309.683 875.504 306.55C875.504 303.383 875.954 300.783 876.854 298.75C877.754 296.717 879.054 295.2 880.754 294.2C882.454 293.2 884.487 292.7 886.854 292.7C889.387 292.7 891.654 293.283 893.654 294.45C895.687 295.583 897.287 297.183 898.454 299.25C899.654 301.317 900.254 303.75 900.254 306.55C900.254 309.383 899.654 311.833 898.454 313.9C897.287 315.967 895.687 317.567 893.654 318.7C891.654 319.833 889.387 320.4 886.854 320.4ZM870.954 329.7V293.1H878.404V298.6L878.254 306.6L878.754 314.55V329.7H870.954ZM885.504 314C886.804 314 887.954 313.7 888.954 313.1C889.987 312.5 890.804 311.65 891.404 310.55C892.037 309.417 892.354 308.083 892.354 306.55C892.354 304.983 892.037 303.65 891.404 302.55C890.804 301.45 889.987 300.6 888.954 300C887.954 299.4 886.804 299.1 885.504 299.1C884.204 299.1 883.037 299.4 882.004 300C880.971 300.6 880.154 301.45 879.554 302.55C878.954 303.65 878.654 304.983 878.654 306.55C878.654 308.083 878.954 309.417 879.554 310.55C880.154 311.65 880.971 312.5 882.004 313.1C883.037 313.7 884.204 314 885.504 314Z" fill="url(#paint1_linear_57_366)"/>
</g>
<defs>
<filter id="filter0_d_57_366" x="20" y="24" width="1279" height="444" filterUnits="userSpaceOnUse" color-interpolation-filters="sRGB">
<feFlood flood-opacity="0" result="BackgroundImageFix"/>
<feColorMatrix in="SourceAlpha" type="matrix" values="0 0 0 0 0 0 0 0 0 0 0 0 0 0 0 0 0 0 127 0" result="hardAlpha"/>
<feOffset dy="4"/>
<feGaussianBlur stdDeviation="2"/>
<feComposite in2="hardAlpha" operator="out"/>
<feColorMatrix type="matrix" values="0 0 0 0 0 0 0 0 0 0 0 0 0 0 0 0 0 0 0.25 0"/>
<feBlend mode="normal" in2="BackgroundImageFix" result="effect1_dropShadow_57_366"/>
<feBlend mode="normal" in="SourceGraphic" in2="effect1_dropShadow_57_366" result="shape"/>
</filter>
<filter id="filter1_d_57_366" x="0" y="0" width="1329" height="494" filterUnits="userSpaceOnUse" color-interpolation-filters="sRGB">
<feFlood flood-opacity="0" result="BackgroundImageFix"/>
<feColorMatrix in="SourceAlpha" type="matrix" values="0 0 0 0 0 0 0 0 0 0 0 0 0 0 0 0 0 0 127 0" result="hardAlpha"/>
<feMorphology radius="20" operator="dilate" in="SourceAlpha" result="effect1_dropShadow_57_366"/>
<feOffset dx="5" dy="5"/>
<feGaussianBlur stdDeviation="4.5"/>
<feComposite in2="hardAlpha" operator="out"/>
<feColorMatrix type="matrix" values="0 0 0 0 0.758333 0 0 0 0 0.0600347 0 0 0 0 0.56281 0 0 0 0.44 0"/>
<feBlend mode="normal" in2="BackgroundImageFix" result="effect1_dropShadow_57_366"/>
<feBlend mode="normal" in="SourceGraphic" in2="effect1_dropShadow_57_366" result="shape"/>
</filter>
<filter id="filter2_d_57_366" x="556.75" y="160.45" width="618.228" height="177.25" filterUnits="userSpaceOnUse" color-interpolation-filters="sRGB">
<feFlood flood-opacity="0" result="BackgroundImageFix"/>
<feColorMatrix in="SourceAlpha" type="matrix" values="0 0 0 0 0 0 0 0 0 0 0 0 0 0 0 0 0 0 127 0" result="hardAlpha"/>
<feOffset dy="4"/>
<feGaussianBlur stdDeviation="2"/>
<feComposite in2="hardAlpha" operator="out"/>
<feColorMatrix type="matrix" values="0 0 0 0 0 0 0 0 0 0 0 0 0 0 0 0 0 0 0.25 0"/>
<feBlend mode="normal" in2="BackgroundImageFix" result="effect1_dropShadow_57_366"/>
<feBlend mode="normal" in="SourceGraphic" in2="effect1_dropShadow_57_366" result="shape"/>
</filter>
<linearGradient id="paint0_linear_57_366" x1="896.412" y1="183.5" x2="142.091" y2="557.045" gradientUnits="userSpaceOnUse">
<stop offset="0.450175" stop-color="#FFE7FE"/>
<stop offset="1" stop-color="#FFE7FE" stop-opacity="0"/>
</linearGradient>
<linearGradient id="paint1_linear_57_366" x1="880" y1="150" x2="880" y2="333" gradientUnits="userSpaceOnUse">
<stop stop-color="#C10F90"/>
<stop offset="1" stop-color="#F88600"/>
</linearGradient>
</defs>
</svg>
