<svg width="260" height="101" viewBox="0 0 260 101" fill="none" xmlns="http://www.w3.org/2000/svg">
<path d="M15.35 10.11C16.77 10.45 17.84 11.06 18.56 11.94C19.3 12.8 19.67 13.91 19.67 15.27C19.67 17.09 19 18.5 17.66 19.5C16.34 20.5 14.41 21 11.87 21H2.27V-1.43051e-06H11.3C13.6 -1.43051e-06 15.39 0.469998 16.67 1.41C17.97 2.33 18.62 3.66 18.62 5.4C18.62 6.54 18.33 7.51 17.75 8.31C17.19 9.11 16.39 9.71 15.35 10.11ZM5.24 9.24H11.09C12.55 9.24 13.66 8.95 14.42 8.37C15.2 7.79 15.59 6.94 15.59 5.82C15.59 4.7 15.2 3.85 14.42 3.27C13.64 2.67 12.53 2.37 11.09 2.37H5.24V9.24ZM11.81 18.63C15.03 18.63 16.64 17.43 16.64 15.03C16.64 13.83 16.23 12.95 15.41 12.39C14.61 11.81 13.41 11.52 11.81 11.52H5.24V18.63H11.81ZM37.8521 5.1V21H34.9721V7.62H28.1321L27.9521 11.16C27.8521 13.3 27.6621 15.09 27.3821 16.53C27.1021 17.95 26.6421 19.09 26.0021 19.95C25.3621 20.81 24.4721 21.24 23.3321 21.24C22.8121 21.24 22.2221 21.15 21.5621 20.97L21.7421 18.54C22.0021 18.6 22.2421 18.63 22.4621 18.63C23.2621 18.63 23.8621 18.28 24.2621 17.58C24.6621 16.88 24.9221 16.05 25.0421 15.09C25.1621 14.13 25.2721 12.76 25.3721 10.98L25.6421 5.1H37.8521ZM49.0909 4.95C51.2909 4.95 52.9709 5.49 54.1309 6.57C55.3109 7.65 55.9009 9.26 55.9009 11.4V21H53.1709V18.9C52.6909 19.64 52.0009 20.21 51.1009 20.61C50.2209 20.99 49.1709 21.18 47.9509 21.18C46.1709 21.18 44.7409 20.75 43.6609 19.89C42.6009 19.03 42.0709 17.9 42.0709 16.5C42.0709 15.1 42.5809 13.98 43.6009 13.14C44.6209 12.28 46.2409 11.85 48.4609 11.85H53.0209V11.28C53.0209 10.04 52.6609 9.09 51.9409 8.43C51.2209 7.77 50.1609 7.44 48.7609 7.44C47.8209 7.44 46.9009 7.6 46.0009 7.92C45.1009 8.22 44.3409 8.63 43.7209 9.15L42.5209 6.99C43.3409 6.33 44.3209 5.83 45.4609 5.49C46.6009 5.13 47.8109 4.95 49.0909 4.95ZM48.4309 18.96C49.5309 18.96 50.4809 18.72 51.2809 18.24C52.0809 17.74 52.6609 17.04 53.0209 16.14V13.92H48.5809C46.1409 13.92 44.9209 14.74 44.9209 16.38C44.9209 17.18 45.2309 17.81 45.8509 18.27C46.4709 18.73 47.3309 18.96 48.4309 18.96ZM77.2569 18.48V24.69H74.5569V21H61.2669V24.69H58.5369V18.48H59.3769C60.3969 18.42 61.0969 17.7 61.4769 16.32C61.8569 14.94 62.1169 12.99 62.2569 10.47L62.4969 5.1H74.8269V18.48H77.2569ZM64.8969 10.68C64.8169 12.68 64.6469 14.34 64.3869 15.66C64.1469 16.96 63.6969 17.9 63.0369 18.48H71.9469V7.62H65.0469L64.8969 10.68ZM81.0088 5.1H83.8888V16.68L93.6387 5.1H96.2488V21H93.3687V9.42L83.6488 21H81.0088V5.1ZM108.769 21.18C107.149 21.18 105.699 20.83 104.419 20.13C103.159 19.43 102.169 18.47 101.449 17.25C100.729 16.01 100.369 14.61 100.369 13.05C100.369 11.49 100.729 10.1 101.449 8.88C102.169 7.64 103.159 6.68 104.419 6C105.699 5.3 107.149 4.95 108.769 4.95C110.209 4.95 111.489 5.24 112.609 5.82C113.749 6.4 114.629 7.24 115.249 8.34L113.059 9.75C112.559 8.99 111.939 8.42 111.199 8.04C110.459 7.66 109.639 7.47 108.739 7.47C107.699 7.47 106.759 7.7 105.919 8.16C105.099 8.62 104.449 9.28 103.969 10.14C103.509 10.98 103.279 11.95 103.279 13.05C103.279 14.17 103.509 15.16 103.969 16.02C104.449 16.86 105.099 17.51 105.919 17.97C106.759 18.43 107.699 18.66 108.739 18.66C109.639 18.66 110.459 18.47 111.199 18.09C111.939 17.71 112.559 17.14 113.059 16.38L115.249 17.76C114.629 18.86 113.749 19.71 112.609 20.31C111.489 20.89 110.209 21.18 108.769 21.18ZM132.159 5.1V21H129.279V7.62H122.439L122.259 11.16C122.159 13.3 121.969 15.09 121.689 16.53C121.409 17.95 120.949 19.09 120.309 19.95C119.669 20.81 118.779 21.24 117.639 21.24C117.119 21.24 116.529 21.15 115.869 20.97L116.049 18.54C116.309 18.6 116.549 18.63 116.769 18.63C117.569 18.63 118.169 18.28 118.569 17.58C118.969 16.88 119.229 16.05 119.349 15.09C119.469 14.13 119.579 12.76 119.679 10.98L119.949 5.1H132.159ZM143.398 4.95C145.598 4.95 147.278 5.49 148.438 6.57C149.618 7.65 150.208 9.26 150.208 11.4V21H147.478V18.9C146.998 19.64 146.308 20.21 145.408 20.61C144.528 20.99 143.478 21.18 142.258 21.18C140.478 21.18 139.048 20.75 137.968 19.89C136.908 19.03 136.378 17.9 136.378 16.5C136.378 15.1 136.888 13.98 137.908 13.14C138.928 12.28 140.548 11.85 142.768 11.85H147.328V11.28C147.328 10.04 146.968 9.09 146.248 8.43C145.528 7.77 144.468 7.44 143.068 7.44C142.128 7.44 141.208 7.6 140.308 7.92C139.408 8.22 138.648 8.63 138.028 9.15L136.828 6.99C137.648 6.33 138.628 5.83 139.768 5.49C140.908 5.13 142.118 4.95 143.398 4.95ZM142.738 18.96C143.838 18.96 144.788 18.72 145.588 18.24C146.388 17.74 146.968 17.04 147.328 16.14V13.92H142.888C140.448 13.92 139.228 14.74 139.228 16.38C139.228 17.18 139.538 17.81 140.158 18.27C140.778 18.73 141.638 18.96 142.738 18.96ZM166.224 12.75C168.284 13.27 169.314 14.56 169.314 16.62C169.314 18.02 168.784 19.1 167.724 19.86C166.684 20.62 165.124 21 163.044 21H155.394V5.1H162.774C164.654 5.1 166.124 5.46 167.184 6.18C168.244 6.88 168.774 7.88 168.774 9.18C168.774 10.02 168.544 10.75 168.084 11.37C167.644 11.97 167.024 12.43 166.224 12.75ZM158.214 11.94H162.534C163.634 11.94 164.464 11.74 165.024 11.34C165.604 10.94 165.894 10.36 165.894 9.6C165.894 8.08 164.774 7.32 162.534 7.32H158.214V11.94ZM162.834 18.78C164.034 18.78 164.934 18.59 165.534 18.21C166.134 17.83 166.434 17.24 166.434 16.44C166.434 15.62 166.154 15.01 165.594 14.61C165.054 14.21 164.194 14.01 163.014 14.01H158.214V18.78H162.834ZM8.6 58.18C7.02 58.18 5.6 57.83 4.34 57.13C3.08 56.43 2.09 55.47 1.37 54.25C0.67 53.01 0.32 51.61 0.32 50.05C0.32 48.49 0.67 47.1 1.37 45.88C2.09 44.64 3.08 43.68 4.34 43C5.6 42.3 7.02 41.95 8.6 41.95C10.18 41.95 11.59 42.3 12.83 43C14.09 43.68 15.07 44.64 15.77 45.88C16.49 47.1 16.85 48.49 16.85 50.05C16.85 51.61 16.49 53.01 15.77 54.25C15.07 55.47 14.09 56.43 12.83 57.13C11.59 57.83 10.18 58.18 8.6 58.18ZM8.6 55.66C9.62 55.66 10.53 55.43 11.33 54.97C12.15 54.49 12.79 53.83 13.25 52.99C13.71 52.13 13.94 51.15 13.94 50.05C13.94 48.95 13.71 47.98 13.25 47.14C12.79 46.28 12.15 45.62 11.33 45.16C10.53 44.7 9.62 44.47 8.6 44.47C7.58 44.47 6.66 44.7 5.84 45.16C5.04 45.62 4.4 46.28 3.92 47.14C3.46 47.98 3.23 48.95 3.23 50.05C3.23 51.15 3.46 52.13 3.92 52.99C4.4 53.83 5.04 54.49 5.84 54.97C6.66 55.43 7.58 55.66 8.6 55.66ZM32.2728 44.62H26.4528V58H23.5728V44.62H17.7528V42.1H32.2728V44.62ZM46.0477 49.75C48.1077 50.27 49.1377 51.56 49.1377 53.62C49.1377 55.02 48.6077 56.1 47.5477 56.86C46.5077 57.62 44.9477 58 42.8677 58H35.2177V42.1H42.5977C44.4777 42.1 45.9477 42.46 47.0077 43.18C48.0677 43.88 48.5977 44.88 48.5977 46.18C48.5977 47.02 48.3677 47.75 47.9077 48.37C47.4677 48.97 46.8477 49.43 46.0477 49.75ZM38.0377 48.94H42.3577C43.4577 48.94 44.2877 48.74 44.8477 48.34C45.4277 47.94 45.7177 47.36 45.7177 46.6C45.7177 45.08 44.5977 44.32 42.3577 44.32H38.0377V48.94ZM42.6577 55.78C43.8577 55.78 44.7577 55.59 45.3577 55.21C45.9577 54.83 46.2577 54.24 46.2577 53.44C46.2577 52.62 45.9777 52.01 45.4177 51.61C44.8777 51.21 44.0177 51.01 42.8377 51.01H38.0377V55.78H42.6577ZM68.0155 50.14C68.0155 50.36 67.9955 50.65 67.9555 51.01H55.0555C55.2355 52.41 55.8455 53.54 56.8855 54.4C57.9455 55.24 59.2555 55.66 60.8155 55.66C62.7155 55.66 64.2455 55.02 65.4055 53.74L66.9955 55.6C66.2755 56.44 65.3755 57.08 64.2955 57.52C63.2355 57.96 62.0455 58.18 60.7255 58.18C59.0455 58.18 57.5555 57.84 56.2555 57.16C54.9555 56.46 53.9455 55.49 53.2255 54.25C52.5255 53.01 52.1755 51.61 52.1755 50.05C52.1755 48.51 52.5155 47.12 53.1955 45.88C53.8955 44.64 54.8455 43.68 56.0455 43C57.2655 42.3 58.6355 41.95 60.1555 41.95C61.6755 41.95 63.0255 42.3 64.2055 43C65.4055 43.68 66.3355 44.64 66.9955 45.88C67.6755 47.12 68.0155 48.54 68.0155 50.14ZM60.1555 44.38C58.7755 44.38 57.6155 44.8 56.6755 45.64C55.7555 46.48 55.2155 47.58 55.0555 48.94H65.2555C65.0955 47.6 64.5455 46.51 63.6055 45.67C62.6855 44.81 61.5355 44.38 60.1555 44.38ZM83.6595 44.62H77.8395V58H74.9595V44.62H69.1395V42.1H83.6595V44.62ZM86.6045 42.1H89.4845V53.68L99.2345 42.1H101.844V58H98.9645V46.42L89.2445 58H86.6045V42.1ZM121.085 42.1V58H118.205V44.62H111.365L111.185 48.16C111.085 50.3 110.895 52.09 110.615 53.53C110.335 54.95 109.875 56.09 109.235 56.95C108.595 57.81 107.705 58.24 106.565 58.24C106.045 58.24 105.455 58.15 104.795 57.97L104.975 55.54C105.235 55.6 105.475 55.63 105.695 55.63C106.495 55.63 107.095 55.28 107.495 54.58C107.895 53.88 108.155 53.05 108.275 52.09C108.395 51.13 108.505 49.76 108.605 47.98L108.875 42.1H121.085ZM134.71 42.1H137.59V48.85H146.65V42.1H149.53V58H146.65V51.34H137.59V58H134.71V42.1ZM160.8 41.95C163 41.95 164.68 42.49 165.84 43.57C167.02 44.65 167.61 46.26 167.61 48.4V58H164.88V55.9C164.4 56.64 163.71 57.21 162.81 57.61C161.93 57.99 160.88 58.18 159.66 58.18C157.88 58.18 156.45 57.75 155.37 56.89C154.31 56.03 153.78 54.9 153.78 53.5C153.78 52.1 154.29 50.98 155.31 50.14C156.33 49.28 157.95 48.85 160.17 48.85H164.73V48.28C164.73 47.04 164.37 46.09 163.65 45.43C162.93 44.77 161.87 44.44 160.47 44.44C159.53 44.44 158.61 44.6 157.71 44.92C156.81 45.22 156.05 45.63 155.43 46.15L154.23 43.99C155.05 43.33 156.03 42.83 157.17 42.49C158.31 42.13 159.52 41.95 160.8 41.95ZM160.14 55.96C161.24 55.96 162.19 55.72 162.99 55.24C163.79 54.74 164.37 54.04 164.73 53.14V50.92H160.29C157.85 50.92 156.63 51.74 156.63 53.38C156.63 54.18 156.94 54.81 157.56 55.27C158.18 55.73 159.04 55.96 160.14 55.96ZM191.683 49.75C193.743 50.27 194.773 51.56 194.773 53.62C194.773 55.02 194.243 56.1 193.183 56.86C192.143 57.62 190.583 58 188.503 58H180.853V42.1H188.233C190.113 42.1 191.583 42.46 192.643 43.18C193.703 43.88 194.233 44.88 194.233 46.18C194.233 47.02 194.003 47.75 193.543 48.37C193.103 48.97 192.483 49.43 191.683 49.75ZM183.673 48.94H187.993C189.093 48.94 189.923 48.74 190.483 48.34C191.063 47.94 191.353 47.36 191.353 46.6C191.353 45.08 190.233 44.32 187.993 44.32H183.673V48.94ZM188.293 55.78C189.493 55.78 190.393 55.59 190.993 55.21C191.593 54.83 191.893 54.24 191.893 53.44C191.893 52.62 191.613 52.01 191.053 51.61C190.513 51.21 189.653 51.01 188.473 51.01H183.673V55.78H188.293ZM204.95 41.95C207.15 41.95 208.83 42.49 209.99 43.57C211.17 44.65 211.76 46.26 211.76 48.4V58H209.03V55.9C208.55 56.64 207.86 57.21 206.96 57.61C206.08 57.99 205.03 58.18 203.81 58.18C202.03 58.18 200.6 57.75 199.52 56.89C198.46 56.03 197.93 54.9 197.93 53.5C197.93 52.1 198.44 50.98 199.46 50.14C200.48 49.28 202.1 48.85 204.32 48.85H208.88V48.28C208.88 47.04 208.52 46.09 207.8 45.43C207.08 44.77 206.02 44.44 204.62 44.44C203.68 44.44 202.76 44.6 201.86 44.92C200.96 45.22 200.2 45.63 199.58 46.15L198.38 43.99C199.2 43.33 200.18 42.83 201.32 42.49C202.46 42.13 203.67 41.95 204.95 41.95ZM204.29 55.96C205.39 55.96 206.34 55.72 207.14 55.24C207.94 54.74 208.52 54.04 208.88 53.14V50.92H204.44C202 50.92 200.78 51.74 200.78 53.38C200.78 54.18 201.09 54.81 201.71 55.27C202.33 55.73 203.19 55.96 204.29 55.96ZM239.596 42.1V58H216.946V42.1H219.826V55.48H226.846V42.1H229.726V55.48H236.716V42.1H239.596ZM259.558 50.14C259.558 50.36 259.538 50.65 259.498 51.01H246.598C246.778 52.41 247.388 53.54 248.428 54.4C249.488 55.24 250.798 55.66 252.358 55.66C254.258 55.66 255.788 55.02 256.948 53.74L258.538 55.6C257.818 56.44 256.918 57.08 255.838 57.52C254.778 57.96 253.588 58.18 252.268 58.18C250.588 58.18 249.098 57.84 247.798 57.16C246.498 56.46 245.488 55.49 244.768 54.25C244.068 53.01 243.718 51.61 243.718 50.05C243.718 48.51 244.058 47.12 244.738 45.88C245.438 44.64 246.388 43.68 247.588 43C248.808 42.3 250.178 41.95 251.698 41.95C253.218 41.95 254.568 42.3 255.748 43C256.948 43.68 257.878 44.64 258.538 45.88C259.218 47.12 259.558 48.54 259.558 50.14ZM251.698 44.38C250.318 44.38 249.158 44.8 248.218 45.64C247.298 46.48 246.758 47.58 246.598 48.94H256.798C256.638 47.6 256.088 46.51 255.148 45.67C254.228 44.81 253.078 44.38 251.698 44.38ZM16.52 79.1V95H13.64V81.62H4.67V95H1.79V79.1H16.52ZM30.5227 78.95C32.0627 78.95 33.4427 79.29 34.6627 79.97C35.8827 80.65 36.8327 81.6 37.5127 82.82C38.2127 84.04 38.5627 85.45 38.5627 87.05C38.5627 88.65 38.2127 90.07 37.5127 91.31C36.8327 92.53 35.8827 93.48 34.6627 94.16C33.4427 94.84 32.0627 95.18 30.5227 95.18C29.3827 95.18 28.3327 94.96 27.3727 94.52C26.4327 94.08 25.6327 93.44 24.9727 92.6V100.82H22.0927V79.1H24.8527V81.62C25.4927 80.74 26.3027 80.08 27.2827 79.64C28.2627 79.18 29.3427 78.95 30.5227 78.95ZM30.2827 92.66C31.3027 92.66 32.2127 92.43 33.0127 91.97C33.8327 91.49 34.4727 90.83 34.9327 89.99C35.4127 89.13 35.6527 88.15 35.6527 87.05C35.6527 85.95 35.4127 84.98 34.9327 84.14C34.4727 83.28 33.8327 82.62 33.0127 82.16C32.2127 81.7 31.3027 81.47 30.2827 81.47C29.2827 81.47 28.3727 81.71 27.5527 82.19C26.7527 82.65 26.1127 83.3 25.6327 84.14C25.1727 84.98 24.9427 85.95 24.9427 87.05C24.9427 88.15 25.1727 89.13 25.6327 89.99C26.0927 90.83 26.7327 91.49 27.5527 91.97C28.3727 92.43 29.2827 92.66 30.2827 92.66ZM57.117 87.14C57.117 87.36 57.097 87.65 57.057 88.01H44.157C44.337 89.41 44.947 90.54 45.987 91.4C47.047 92.24 48.357 92.66 49.917 92.66C51.817 92.66 53.347 92.02 54.507 90.74L56.097 92.6C55.377 93.44 54.477 94.08 53.397 94.52C52.337 94.96 51.147 95.18 49.827 95.18C48.147 95.18 46.657 94.84 45.357 94.16C44.057 93.46 43.047 92.49 42.327 91.25C41.627 90.01 41.277 88.61 41.277 87.05C41.277 85.51 41.617 84.12 42.297 82.88C42.997 81.64 43.947 80.68 45.147 80C46.367 79.3 47.737 78.95 49.257 78.95C50.777 78.95 52.127 79.3 53.307 80C54.507 80.68 55.437 81.64 56.097 82.88C56.777 84.12 57.117 85.54 57.117 87.14ZM49.257 81.38C47.877 81.38 46.717 81.8 45.777 82.64C44.857 83.48 44.317 84.58 44.157 85.94H54.357C54.197 84.6 53.647 83.51 52.707 82.67C51.787 81.81 50.637 81.38 49.257 81.38ZM77.4913 92.48V98.69H74.7913V95H61.5013V98.69H58.7713V92.48H59.6113C60.6313 92.42 61.3313 91.7 61.7113 90.32C62.0913 88.94 62.3512 86.99 62.4912 84.47L62.7313 79.1H75.0612V92.48H77.4913ZM65.1313 84.68C65.0513 86.68 64.8813 88.34 64.6213 89.66C64.3813 90.96 63.9313 91.9 63.2713 92.48H72.1813V81.62H65.2813L65.1313 84.68ZM94.8931 79.1V95H92.0131V81.62H85.1731L84.9931 85.16C84.8931 87.3 84.7031 89.09 84.4231 90.53C84.1431 91.95 83.6831 93.09 83.0431 93.95C82.4031 94.81 81.5131 95.24 80.3731 95.24C79.8531 95.24 79.2631 95.15 78.6031 94.97L78.7831 92.54C79.0431 92.6 79.2831 92.63 79.5031 92.63C80.3031 92.63 80.9031 92.28 81.3031 91.58C81.7031 90.88 81.9631 90.05 82.0831 89.09C82.2031 88.13 82.3131 86.76 82.4131 84.98L82.6831 79.1H94.8931ZM107.272 95.18C105.692 95.18 104.272 94.83 103.012 94.13C101.752 93.43 100.762 92.47 100.042 91.25C99.3419 90.01 98.9919 88.61 98.9919 87.05C98.9919 85.49 99.3419 84.1 100.042 82.88C100.762 81.64 101.752 80.68 103.012 80C104.272 79.3 105.692 78.95 107.272 78.95C108.852 78.95 110.262 79.3 111.502 80C112.762 80.68 113.742 81.64 114.442 82.88C115.162 84.1 115.522 85.49 115.522 87.05C115.522 88.61 115.162 90.01 114.442 91.25C113.742 92.47 112.762 93.43 111.502 94.13C110.262 94.83 108.852 95.18 107.272 95.18ZM107.272 92.66C108.292 92.66 109.202 92.43 110.002 91.97C110.822 91.49 111.462 90.83 111.922 89.99C112.382 89.13 112.612 88.15 112.612 87.05C112.612 85.95 112.382 84.98 111.922 84.14C111.462 83.28 110.822 82.62 110.002 82.16C109.202 81.7 108.292 81.47 107.272 81.47C106.252 81.47 105.332 81.7 104.512 82.16C103.712 82.62 103.072 83.28 102.592 84.14C102.132 84.98 101.902 85.95 101.902 87.05C101.902 88.15 102.132 89.13 102.592 89.99C103.072 90.83 103.712 91.49 104.512 91.97C105.332 92.43 106.252 92.66 107.272 92.66ZM133.613 88.28H130.523V95H127.643V88.28H124.553L120.173 95H116.753L122.213 86.78L117.173 79.1H120.233L124.523 85.82H127.643V79.1H130.523V85.82H133.643L137.933 79.1H141.023L135.983 86.81L141.443 95H138.023L133.613 88.28ZM158.455 87.14C158.455 87.36 158.435 87.65 158.395 88.01H145.495C145.675 89.41 146.285 90.54 147.325 91.4C148.385 92.24 149.695 92.66 151.255 92.66C153.155 92.66 154.685 92.02 155.845 90.74L157.435 92.6C156.715 93.44 155.815 94.08 154.735 94.52C153.675 94.96 152.485 95.18 151.165 95.18C149.485 95.18 147.995 94.84 146.695 94.16C145.395 93.46 144.385 92.49 143.665 91.25C142.965 90.01 142.615 88.61 142.615 87.05C142.615 85.51 142.955 84.12 143.635 82.88C144.335 81.64 145.285 80.68 146.485 80C147.705 79.3 149.075 78.95 150.595 78.95C152.115 78.95 153.465 79.3 154.645 80C155.845 80.68 156.775 81.64 157.435 82.88C158.115 84.12 158.455 85.54 158.455 87.14ZM150.595 81.38C149.215 81.38 148.055 81.8 147.115 82.64C146.195 83.48 145.655 84.58 145.495 85.94H155.695C155.535 84.6 154.985 83.51 154.045 82.67C153.125 81.81 151.975 81.38 150.595 81.38ZM162.923 79.1H165.803V85.85H174.863V79.1H177.743V95H174.863V88.34H165.803V95H162.923V79.1ZM183.343 79.1H186.223V90.68L195.973 79.1H198.583V95H195.703V83.42L185.983 95H183.343V79.1ZM218.543 87.14C218.543 87.36 218.523 87.65 218.483 88.01H205.583C205.763 89.41 206.373 90.54 207.413 91.4C208.473 92.24 209.783 92.66 211.343 92.66C213.243 92.66 214.773 92.02 215.933 90.74L217.523 92.6C216.803 93.44 215.903 94.08 214.823 94.52C213.763 94.96 212.573 95.18 211.253 95.18C209.573 95.18 208.083 94.84 206.783 94.16C205.483 93.46 204.473 92.49 203.753 91.25C203.053 90.01 202.703 88.61 202.703 87.05C202.703 85.51 203.043 84.12 203.723 82.88C204.423 81.64 205.373 80.68 206.573 80C207.793 79.3 209.163 78.95 210.683 78.95C212.203 78.95 213.553 79.3 214.733 80C215.933 80.68 216.863 81.64 217.523 82.88C218.203 84.12 218.543 85.54 218.543 87.14ZM210.683 81.38C209.303 81.38 208.143 81.8 207.203 82.64C206.283 83.48 205.743 84.58 205.583 85.94H215.783C215.623 84.6 215.073 83.51 214.133 82.67C213.213 81.81 212.063 81.38 210.683 81.38Z" fill="white"/>
</svg>
