<svg width="619" height="178" viewBox="0 0 619 178" fill="none" xmlns="http://www.w3.org/2000/svg">
<g filter="url(#filter0_d_57_365)">
<path d="M37.25 3V38H29.2V9.6H13.4V38H5.35V3H37.25ZM57.9262 38.4C55.0928 38.4 52.5428 37.8167 50.2762 36.65C48.0428 35.45 46.2928 33.8 45.0262 31.7C43.7595 29.6 43.1262 27.2167 43.1262 24.55C43.1262 21.8833 43.7595 19.5 45.0262 17.4C46.2928 15.3 48.0428 13.6667 50.2762 12.5C52.5428 11.3 55.0928 10.7 57.9262 10.7C60.7595 10.7 63.2928 11.3 65.5262 12.5C67.7595 13.6667 69.5095 15.3 70.7762 17.4C72.0428 19.5 72.6762 21.8833 72.6762 24.55C72.6762 27.2167 72.0428 29.6 70.7762 31.7C69.5095 33.8 67.7595 35.45 65.5262 36.65C63.2928 37.8167 60.7595 38.4 57.9262 38.4ZM57.9262 32C59.9262 32 61.5595 31.3333 62.8262 30C64.1262 28.6333 64.7762 26.8167 64.7762 24.55C64.7762 22.2833 64.1262 20.4833 62.8262 19.15C61.5595 17.7833 59.9262 17.1 57.9262 17.1C55.9262 17.1 54.2762 17.7833 52.9762 19.15C51.6762 20.4833 51.0262 22.2833 51.0262 24.55C51.0262 26.8167 51.6762 28.6333 52.9762 30C54.2762 31.3333 55.9262 32 57.9262 32ZM103.45 11.1V38H95.6504V17.5H87.1504L86.9004 22.25C86.7671 25.7833 86.4337 28.7167 85.9004 31.05C85.3671 33.3833 84.5004 35.2167 83.3004 36.55C82.1004 37.8833 80.4337 38.55 78.3004 38.55C77.1671 38.55 75.8171 38.35 74.2504 37.95L74.6504 31.55C75.1837 31.6167 75.5671 31.65 75.8004 31.65C76.9671 31.65 77.8337 31.2333 78.4004 30.4C79.0004 29.5333 79.4004 28.45 79.6004 27.15C79.8004 25.8167 79.9504 24.0667 80.0504 21.9L80.4504 11.1H103.45ZM137.901 11.1L125.751 39.65C124.518 42.75 122.985 44.9333 121.151 46.2C119.351 47.4667 117.168 48.1 114.601 48.1C113.201 48.1 111.818 47.8833 110.451 47.45C109.085 47.0167 107.968 46.4167 107.101 45.65L109.951 40.1C110.551 40.6333 111.235 41.05 112.001 41.35C112.801 41.65 113.585 41.8 114.351 41.8C115.418 41.8 116.285 41.5333 116.951 41C117.618 40.5 118.218 39.65 118.751 38.45L118.851 38.2L107.201 11.1H115.251L122.801 29.35L130.401 11.1H137.901ZM165.864 11.1V38H158.064V28C155.797 29.1333 153.297 29.7 150.564 29.7C146.931 29.7 144.181 28.8833 142.314 27.25C140.481 25.5833 139.564 23.0167 139.564 19.55V11.1H147.364V19.05C147.364 20.6833 147.781 21.8667 148.614 22.6C149.481 23.3333 150.714 23.7 152.314 23.7C154.347 23.7 156.264 23.2667 158.064 22.4V11.1H165.864ZM183.804 10.7C187.97 10.7 191.17 11.7 193.404 13.7C195.637 15.6667 196.754 18.65 196.754 22.65V38H189.454V34.65C187.987 37.15 185.254 38.4 181.254 38.4C179.187 38.4 177.387 38.05 175.854 37.35C174.354 36.65 173.204 35.6833 172.404 34.45C171.604 33.2167 171.204 31.8167 171.204 30.25C171.204 27.75 172.137 25.7833 174.004 24.35C175.904 22.9167 178.82 22.2 182.754 22.2H188.954C188.954 20.5 188.437 19.2 187.404 18.3C186.37 17.3667 184.82 16.9 182.754 16.9C181.32 16.9 179.904 17.1333 178.504 17.6C177.137 18.0333 175.97 18.6333 175.004 19.4L172.204 13.95C173.67 12.9167 175.42 12.1167 177.454 11.55C179.52 10.9833 181.637 10.7 183.804 10.7ZM183.204 33.15C184.537 33.15 185.72 32.85 186.754 32.25C187.787 31.6167 188.52 30.7 188.954 29.5V26.75H183.604C180.404 26.75 178.804 27.8 178.804 29.9C178.804 30.9 179.187 31.7 179.954 32.3C180.754 32.8667 181.837 33.15 183.204 33.15ZM203.529 11.1H211.279V27.1L224.379 11.1H231.529V38H223.779V22L210.729 38H203.529V11.1ZM217.029 8.2C211.163 8.2 208.213 5.61667 208.179 0.449998H213.279C213.313 1.61667 213.629 2.53333 214.229 3.2C214.863 3.83333 215.779 4.15 216.979 4.15C218.179 4.15 219.096 3.83333 219.729 3.2C220.396 2.53333 220.729 1.61667 220.729 0.449998H225.929C225.896 5.61667 222.929 8.2 217.029 8.2ZM280.138 11.1L267.988 39.65C266.754 42.75 265.221 44.9333 263.388 46.2C261.588 47.4667 259.404 48.1 256.838 48.1C255.438 48.1 254.054 47.8833 252.688 47.45C251.321 47.0167 250.204 46.4167 249.337 45.65L252.188 40.1C252.788 40.6333 253.471 41.05 254.238 41.35C255.038 41.65 255.821 41.8 256.588 41.8C257.654 41.8 258.521 41.5333 259.188 41C259.854 40.5 260.454 39.65 260.988 38.45L261.088 38.2L249.438 11.1H257.488L265.038 29.35L272.638 11.1H280.138ZM304.45 23.95C307.617 25.0167 309.2 27.15 309.2 30.35C309.2 32.7833 308.284 34.6667 306.45 36C304.617 37.3333 301.884 38 298.25 38H283.9V11.1H297.65C301.017 11.1 303.65 11.7167 305.55 12.95C307.45 14.15 308.4 15.85 308.4 18.05C308.4 19.3833 308.05 20.5667 307.35 21.6C306.684 22.6 305.717 23.3833 304.45 23.95ZM291.05 22.15H296.95C299.684 22.15 301.05 21.1833 301.05 19.25C301.05 17.35 299.684 16.4 296.95 16.4H291.05V22.15ZM297.6 32.7C300.467 32.7 301.9 31.7167 301.9 29.75C301.9 28.7167 301.567 27.9667 300.9 27.5C300.234 27 299.184 26.75 297.75 26.75H291.05V32.7H297.6ZM341.154 24.65C341.154 24.75 341.104 25.45 341.004 26.75H320.654C321.021 28.4167 321.887 29.7333 323.254 30.7C324.621 31.6667 326.321 32.15 328.354 32.15C329.754 32.15 330.987 31.95 332.054 31.55C333.154 31.1167 334.171 30.45 335.104 29.55L339.254 34.05C336.721 36.95 333.021 38.4 328.154 38.4C325.121 38.4 322.437 37.8167 320.104 36.65C317.771 35.45 315.971 33.8 314.704 31.7C313.437 29.6 312.804 27.2167 312.804 24.55C312.804 21.9167 313.421 19.55 314.654 17.45C315.921 15.3167 317.637 13.6667 319.804 12.5C322.004 11.3 324.454 10.7 327.154 10.7C329.787 10.7 332.171 11.2667 334.304 12.4C336.437 13.5333 338.104 15.1667 339.304 17.3C340.537 19.4 341.154 21.85 341.154 24.65ZM327.204 16.6C325.437 16.6 323.954 17.1 322.754 18.1C321.554 19.1 320.821 20.4667 320.554 22.2H333.804C333.537 20.5 332.804 19.15 331.604 18.15C330.404 17.1167 328.937 16.6 327.204 16.6ZM377.039 31.6V43.8H369.789V38H350.889V43.8H343.639V31.6H344.739C346.405 31.5667 347.555 30.5833 348.189 28.65C348.822 26.7167 349.222 23.9667 349.389 20.4L349.739 11.1H373.189V31.6H377.039ZM356.439 20.95C356.339 23.6833 356.122 25.9167 355.789 27.65C355.489 29.3833 354.905 30.7 354.039 31.6H365.389V17.5H356.589L356.439 20.95ZM394.547 38.4C391.714 38.4 389.164 37.8167 386.897 36.65C384.664 35.45 382.914 33.8 381.647 31.7C380.381 29.6 379.747 27.2167 379.747 24.55C379.747 21.8833 380.381 19.5 381.647 17.4C382.914 15.3 384.664 13.6667 386.897 12.5C389.164 11.3 391.714 10.7 394.547 10.7C397.381 10.7 399.914 11.3 402.147 12.5C404.381 13.6667 406.131 15.3 407.397 17.4C408.664 19.5 409.297 21.8833 409.297 24.55C409.297 27.2167 408.664 29.6 407.397 31.7C406.131 33.8 404.381 35.45 402.147 36.65C399.914 37.8167 397.381 38.4 394.547 38.4ZM394.547 32C396.547 32 398.181 31.3333 399.447 30C400.747 28.6333 401.397 26.8167 401.397 24.55C401.397 22.2833 400.747 20.4833 399.447 19.15C398.181 17.7833 396.547 17.1 394.547 17.1C392.547 17.1 390.897 17.7833 389.597 19.15C388.297 20.4833 387.647 22.2833 387.647 24.55C387.647 26.8167 388.297 28.6333 389.597 30C390.897 31.3333 392.547 32 394.547 32ZM440.912 38V21.9L432.862 35.4H429.562L421.712 21.85V38H414.662V11.1H422.812L431.412 26.65L440.562 11.1H447.862L447.962 38H440.912ZM481.234 11.1V38H473.434V17.5H464.934L464.684 22.25C464.55 25.7833 464.217 28.7167 463.684 31.05C463.15 33.3833 462.284 35.2167 461.084 36.55C459.884 37.8833 458.217 38.55 456.084 38.55C454.95 38.55 453.6 38.35 452.034 37.95L452.434 31.55C452.967 31.6167 453.35 31.65 453.584 31.65C454.75 31.65 455.617 31.2333 456.184 30.4C456.784 29.5333 457.184 28.45 457.384 27.15C457.584 25.8167 457.734 24.0667 457.834 21.9L458.234 11.1H481.234ZM514.884 24.65C514.884 24.75 514.834 25.45 514.734 26.75H494.384C494.751 28.4167 495.618 29.7333 496.984 30.7C498.351 31.6667 500.051 32.15 502.084 32.15C503.484 32.15 504.718 31.95 505.784 31.55C506.884 31.1167 507.901 30.45 508.834 29.55L512.984 34.05C510.451 36.95 506.751 38.4 501.884 38.4C498.851 38.4 496.168 37.8167 493.834 36.65C491.501 35.45 489.701 33.8 488.434 31.7C487.168 29.6 486.534 27.2167 486.534 24.55C486.534 21.9167 487.151 19.55 488.384 17.45C489.651 15.3167 491.368 13.6667 493.534 12.5C495.734 11.3 498.184 10.7 500.884 10.7C503.518 10.7 505.901 11.2667 508.034 12.4C510.168 13.5333 511.834 15.1667 513.034 17.3C514.268 19.4 514.884 21.85 514.884 24.65ZM500.934 16.6C499.168 16.6 497.684 17.1 496.484 18.1C495.284 19.1 494.551 20.4667 494.284 22.2H507.534C507.268 20.5 506.534 19.15 505.334 18.15C504.134 17.1167 502.668 16.6 500.934 16.6ZM520.863 11.1H528.613V21.6H540.313V11.1H548.113V38H540.313V27.95H528.613V38H520.863V11.1ZM555.58 11.1H563.33V27.1L576.43 11.1H583.58V38H575.83V22L562.78 38H555.58V11.1ZM614.978 11.1V38H608.028V30.3H602.278L597.178 38H588.878L595.028 29.2C593.161 28.4667 591.728 27.4167 590.728 26.05C589.761 24.65 589.278 22.9667 589.278 21C589.278 17.8333 590.411 15.4 592.678 13.7C594.978 11.9667 598.128 11.1 602.128 11.1H614.978ZM602.278 17.45C600.611 17.45 599.345 17.75 598.478 18.35C597.645 18.95 597.228 19.9167 597.228 21.25C597.228 22.5833 597.628 23.5667 598.428 24.2C599.261 24.8 600.511 25.1 602.178 25.1H608.028V17.45H602.278ZM4.75 72.1H12.5V88.1L25.6 72.1H32.75V99H25V83L11.95 99H4.75V72.1ZM67.0082 99.4C64.1749 99.4 61.6249 98.8167 59.3582 97.65C57.1249 96.45 55.3749 94.8 54.1082 92.7C52.8415 90.6 52.2082 88.2167 52.2082 85.55C52.2082 82.8833 52.8415 80.5 54.1082 78.4C55.3749 76.3 57.1249 74.6667 59.3582 73.5C61.6249 72.3 64.1749 71.7 67.0082 71.7C69.8415 71.7 72.3749 72.3 74.6082 73.5C76.8415 74.6667 78.5915 76.3 79.8582 78.4C81.1249 80.5 81.7582 82.8833 81.7582 85.55C81.7582 88.2167 81.1249 90.6 79.8582 92.7C78.5915 94.8 76.8415 96.45 74.6082 97.65C72.3749 98.8167 69.8415 99.4 67.0082 99.4ZM67.0082 93C69.0082 93 70.6415 92.3333 71.9082 91C73.2082 89.6333 73.8582 87.8167 73.8582 85.55C73.8582 83.2833 73.2082 81.4833 71.9082 80.15C70.6415 78.7833 69.0082 78.1 67.0082 78.1C65.0082 78.1 63.3582 78.7833 62.0582 80.15C60.7582 81.4833 60.1082 83.2833 60.1082 85.55C60.1082 87.8167 60.7582 89.6333 62.0582 91C63.3582 92.3333 65.0082 93 67.0082 93ZM108.746 78.5H99.6465V99H91.8965V78.5H82.7965V72.1H108.746V78.5ZM133.454 84.95C136.621 86.0167 138.204 88.15 138.204 91.35C138.204 93.7833 137.288 95.6667 135.454 97C133.621 98.3333 130.888 99 127.254 99H112.904V72.1H126.654C130.021 72.1 132.654 72.7167 134.554 73.95C136.454 75.15 137.404 76.85 137.404 79.05C137.404 80.3833 137.054 81.5667 136.354 82.6C135.688 83.6 134.721 84.3833 133.454 84.95ZM120.054 83.15H125.954C128.688 83.15 130.054 82.1833 130.054 80.25C130.054 78.35 128.688 77.4 125.954 77.4H120.054V83.15ZM126.604 93.7C129.471 93.7 130.904 92.7167 130.904 90.75C130.904 89.7167 130.571 88.9667 129.904 88.5C129.238 88 128.188 87.75 126.754 87.75H120.054V93.7H126.604ZM170.158 85.65C170.158 85.75 170.108 86.45 170.008 87.75H149.658C150.024 89.4167 150.891 90.7333 152.258 91.7C153.624 92.6667 155.324 93.15 157.358 93.15C158.758 93.15 159.991 92.95 161.058 92.55C162.158 92.1167 163.174 91.45 164.108 90.55L168.258 95.05C165.724 97.95 162.024 99.4 157.158 99.4C154.124 99.4 151.441 98.8167 149.108 97.65C146.774 96.45 144.974 94.8 143.708 92.7C142.441 90.6 141.808 88.2167 141.808 85.55C141.808 82.9167 142.424 80.55 143.658 78.45C144.924 76.3167 146.641 74.6667 148.808 73.5C151.008 72.3 153.458 71.7 156.158 71.7C158.791 71.7 161.174 72.2667 163.308 73.4C165.441 74.5333 167.108 76.1667 168.308 78.3C169.541 80.4 170.158 82.85 170.158 85.65ZM156.208 77.6C154.441 77.6 152.958 78.1 151.758 79.1C150.558 80.1 149.824 81.4667 149.558 83.2H162.808C162.541 81.5 161.808 80.15 160.608 79.15C159.408 78.1167 157.941 77.6 156.208 77.6ZM200.337 72.1V99H192.537V89C190.27 90.1333 187.77 90.7 185.037 90.7C181.403 90.7 178.653 89.8833 176.787 88.25C174.953 86.5833 174.037 84.0167 174.037 80.55V72.1H181.837V80.05C181.837 81.6833 182.253 82.8667 183.087 83.6C183.953 84.3333 185.187 84.7 186.787 84.7C188.82 84.7 190.737 84.2667 192.537 83.4V72.1H200.337ZM218.276 71.7C222.443 71.7 225.643 72.7 227.876 74.7C230.11 76.6667 231.226 79.65 231.226 83.65V99H223.926V95.65C222.46 98.15 219.726 99.4 215.726 99.4C213.66 99.4 211.86 99.05 210.326 98.35C208.826 97.65 207.676 96.6833 206.876 95.45C206.076 94.2167 205.676 92.8167 205.676 91.25C205.676 88.75 206.61 86.7833 208.476 85.35C210.376 83.9167 213.293 83.2 217.226 83.2H223.426C223.426 81.5 222.91 80.2 221.876 79.3C220.843 78.3667 219.293 77.9 217.226 77.9C215.793 77.9 214.376 78.1333 212.976 78.6C211.61 79.0333 210.443 79.6333 209.476 80.4L206.676 74.95C208.143 73.9167 209.893 73.1167 211.926 72.55C213.993 71.9833 216.11 71.7 218.276 71.7ZM217.676 94.15C219.01 94.15 220.193 93.85 221.226 93.25C222.26 92.6167 222.993 91.7 223.426 90.5V87.75H218.076C214.876 87.75 213.276 88.8 213.276 90.9C213.276 91.9 213.66 92.7 214.426 93.3C215.226 93.8667 216.31 94.15 217.676 94.15ZM238.002 72.1H245.752V88.1L258.852 72.1H266.002V99H258.252V83L245.202 99H238.002V72.1ZM251.502 69.2C245.635 69.2 242.685 66.6167 242.652 61.45H247.752C247.785 62.6167 248.102 63.5333 248.702 64.2C249.335 64.8333 250.252 65.15 251.452 65.15C252.652 65.15 253.569 64.8333 254.202 64.2C254.869 63.5333 255.202 62.6167 255.202 61.45H260.402C260.369 66.6167 257.402 69.2 251.502 69.2ZM308.21 84.95C311.377 86.0167 312.96 88.15 312.96 91.35C312.96 93.7833 312.043 95.6667 310.21 97C308.377 98.3333 305.643 99 302.01 99H287.66V72.1H301.41C304.777 72.1 307.41 72.7167 309.31 73.95C311.21 75.15 312.16 76.85 312.16 79.05C312.16 80.3833 311.81 81.5667 311.11 82.6C310.443 83.6 309.477 84.3833 308.21 84.95ZM294.81 83.15H300.71C303.443 83.15 304.81 82.1833 304.81 80.25C304.81 78.35 303.443 77.4 300.71 77.4H294.81V83.15ZM301.36 93.7C304.227 93.7 305.66 92.7167 305.66 90.75C305.66 89.7167 305.327 88.9667 304.66 88.5C303.993 88 302.943 87.75 301.51 87.75H294.81V93.7H301.36ZM331.564 99.4C328.697 99.4 326.114 98.8167 323.814 97.65C321.547 96.45 319.764 94.8 318.464 92.7C317.197 90.6 316.564 88.2167 316.564 85.55C316.564 82.8833 317.197 80.5 318.464 78.4C319.764 76.3 321.547 74.6667 323.814 73.5C326.114 72.3 328.697 71.7 331.564 71.7C334.397 71.7 336.864 72.3 338.964 73.5C341.097 74.6667 342.647 76.35 343.614 78.55L337.564 81.8C336.164 79.3333 334.147 78.1 331.514 78.1C329.48 78.1 327.797 78.7667 326.464 80.1C325.13 81.4333 324.464 83.25 324.464 85.55C324.464 87.85 325.13 89.6667 326.464 91C327.797 92.3333 329.48 93 331.514 93C334.18 93 336.197 91.7667 337.564 89.3L343.614 92.6C342.647 94.7333 341.097 96.4 338.964 97.6C336.864 98.8 334.397 99.4 331.564 99.4ZM374.162 85.65C374.162 85.75 374.112 86.45 374.012 87.75H353.662C354.028 89.4167 354.895 90.7333 356.262 91.7C357.628 92.6667 359.328 93.15 361.362 93.15C362.762 93.15 363.995 92.95 365.062 92.55C366.162 92.1167 367.178 91.45 368.112 90.55L372.262 95.05C369.728 97.95 366.028 99.4 361.162 99.4C358.128 99.4 355.445 98.8167 353.112 97.65C350.778 96.45 348.978 94.8 347.712 92.7C346.445 90.6 345.812 88.2167 345.812 85.55C345.812 82.9167 346.428 80.55 347.662 78.45C348.928 76.3167 350.645 74.6667 352.812 73.5C355.012 72.3 357.462 71.7 360.162 71.7C362.795 71.7 365.178 72.2667 367.312 73.4C369.445 74.5333 371.112 76.1667 372.312 78.3C373.545 80.4 374.162 82.85 374.162 85.65ZM360.212 77.6C358.445 77.6 356.962 78.1 355.762 79.1C354.562 80.1 353.828 81.4667 353.562 83.2H366.812C366.545 81.5 365.812 80.15 364.612 79.15C363.412 78.1167 361.945 77.6 360.212 77.6ZM406.391 99V82.9L398.341 96.4H395.041L387.191 82.85V99H380.141V72.1H388.291L396.891 87.65L406.041 72.1H413.341L413.441 99H406.391ZM459.272 72.1V99H451.472V89C449.206 90.1333 446.706 90.7 443.972 90.7C440.339 90.7 437.589 89.8833 435.722 88.25C433.889 86.5833 432.972 84.0167 432.972 80.55V72.1H440.772V80.05C440.772 81.6833 441.189 82.8667 442.022 83.6C442.889 84.3333 444.122 84.7 445.722 84.7C447.756 84.7 449.672 84.2667 451.472 83.4V72.1H459.272ZM492.912 85.65C492.912 85.75 492.862 86.45 492.762 87.75H472.412C472.778 89.4167 473.645 90.7333 475.012 91.7C476.378 92.6667 478.078 93.15 480.112 93.15C481.512 93.15 482.745 92.95 483.812 92.55C484.912 92.1167 485.928 91.45 486.862 90.55L491.012 95.05C488.478 97.95 484.778 99.4 479.912 99.4C476.878 99.4 474.195 98.8167 471.862 97.65C469.528 96.45 467.728 94.8 466.462 92.7C465.195 90.6 464.562 88.2167 464.562 85.55C464.562 82.9167 465.178 80.55 466.412 78.45C467.678 76.3167 469.395 74.6667 471.562 73.5C473.762 72.3 476.212 71.7 478.912 71.7C481.545 71.7 483.928 72.2667 486.062 73.4C488.195 74.5333 489.862 76.1667 491.062 78.3C492.295 80.4 492.912 82.85 492.912 85.65ZM478.962 77.6C477.195 77.6 475.712 78.1 474.512 79.1C473.312 80.1 472.578 81.4667 472.312 83.2H485.562C485.295 81.5 484.562 80.15 483.362 79.15C482.162 78.1167 480.695 77.6 478.962 77.6ZM514.741 71.7C517.241 71.7 519.507 72.2833 521.541 73.45C523.607 74.5833 525.224 76.2 526.391 78.3C527.557 80.3667 528.141 82.7833 528.141 85.55C528.141 88.3167 527.557 90.75 526.391 92.85C525.224 94.9167 523.607 96.5333 521.541 97.7C519.507 98.8333 517.241 99.4 514.741 99.4C511.307 99.4 508.607 98.3167 506.641 96.15V108.7H498.841V72.1H506.291V75.2C508.224 72.8667 511.041 71.7 514.741 71.7ZM513.391 93C515.391 93 517.024 92.3333 518.291 91C519.591 89.6333 520.241 87.8167 520.241 85.55C520.241 83.2833 519.591 81.4833 518.291 80.15C517.024 78.7833 515.391 78.1 513.391 78.1C511.391 78.1 509.741 78.7833 508.441 80.15C507.174 81.4833 506.541 83.2833 506.541 85.55C506.541 87.8167 507.174 89.6333 508.441 91C509.741 92.3333 511.391 93 513.391 93ZM559.757 85.65C559.757 85.75 559.707 86.45 559.607 87.75H539.257C539.624 89.4167 540.491 90.7333 541.857 91.7C543.224 92.6667 544.924 93.15 546.957 93.15C548.357 93.15 549.591 92.95 550.657 92.55C551.757 92.1167 552.774 91.45 553.707 90.55L557.857 95.05C555.324 97.95 551.624 99.4 546.757 99.4C543.724 99.4 541.041 98.8167 538.707 97.65C536.374 96.45 534.574 94.8 533.307 92.7C532.041 90.6 531.407 88.2167 531.407 85.55C531.407 82.9167 532.024 80.55 533.257 78.45C534.524 76.3167 536.241 74.6667 538.407 73.5C540.607 72.3 543.057 71.7 545.757 71.7C548.391 71.7 550.774 72.2667 552.907 73.4C555.041 74.5333 556.707 76.1667 557.907 78.3C559.141 80.4 559.757 82.85 559.757 85.65ZM545.807 77.6C544.041 77.6 542.557 78.1 541.357 79.1C540.157 80.1 539.424 81.4667 539.157 83.2H552.407C552.141 81.5 551.407 80.15 550.207 79.15C549.007 78.1167 547.541 77.6 545.807 77.6ZM582.845 85C584.445 85.5 585.678 86.2667 586.545 87.3C587.445 88.3333 587.895 89.5667 587.895 91C587.895 92.7 587.311 94.2 586.145 95.5C584.978 96.7667 583.378 97.75 581.345 98.45C579.311 99.15 577.011 99.5 574.445 99.5C572.345 99.5 570.278 99.2833 568.245 98.85C566.211 98.4167 564.328 97.7667 562.595 96.9L564.695 91.45C567.528 92.8167 570.661 93.5 574.095 93.5C575.928 93.5 577.361 93.2333 578.395 92.7C579.461 92.1333 579.995 91.35 579.995 90.35C579.995 89.4833 579.628 88.8333 578.895 88.4C578.161 87.9333 577.095 87.7 575.695 87.7H570.195V82.85H574.995C576.361 82.85 577.411 82.6333 578.145 82.2C578.878 81.7667 579.245 81.1333 579.245 80.3C579.245 79.4333 578.778 78.7667 577.845 78.3C576.945 77.8333 575.645 77.6 573.945 77.6C571.345 77.6 568.511 78.2167 565.445 79.45L563.545 74.05C567.278 72.4167 570.911 71.6 574.445 71.6C576.878 71.6 579.045 71.9 580.945 72.5C582.878 73.1 584.395 73.9833 585.495 75.15C586.595 76.2833 587.145 77.6167 587.145 79.15C587.145 80.4167 586.761 81.5667 585.995 82.6C585.228 83.6 584.178 84.4 582.845 85ZM31 160V143.9L22.95 157.4H19.65L11.8 143.85V160H4.75V133.1H12.9L21.5 148.65L30.65 133.1H37.95L38.05 160H31ZM71.6715 146.65C71.6715 146.75 71.6215 147.45 71.5215 148.75H51.1715C51.5382 150.417 52.4048 151.733 53.7715 152.7C55.1382 153.667 56.8382 154.15 58.8715 154.15C60.2715 154.15 61.5048 153.95 62.5715 153.55C63.6715 153.117 64.6882 152.45 65.6215 151.55L69.7715 156.05C67.2382 158.95 63.5382 160.4 58.6715 160.4C55.6382 160.4 52.9548 159.817 50.6215 158.65C48.2882 157.45 46.4882 155.8 45.2215 153.7C43.9548 151.6 43.3215 149.217 43.3215 146.55C43.3215 143.917 43.9382 141.55 45.1715 139.45C46.4382 137.317 48.1548 135.667 50.3215 134.5C52.5215 133.3 54.9715 132.7 57.6715 132.7C60.3048 132.7 62.6882 133.267 64.8215 134.4C66.9548 135.533 68.6215 137.167 69.8215 139.3C71.0548 141.4 71.6715 143.85 71.6715 146.65ZM57.7215 138.6C55.9548 138.6 54.4715 139.1 53.2715 140.1C52.0715 141.1 51.3382 142.467 51.0715 144.2H64.3215C64.0548 142.5 63.3215 141.15 62.1215 140.15C60.9215 139.117 59.4548 138.6 57.7215 138.6ZM90.4504 160.4C87.5837 160.4 85.0004 159.817 82.7004 158.65C80.4337 157.45 78.6504 155.8 77.3504 153.7C76.0837 151.6 75.4504 149.217 75.4504 146.55C75.4504 143.883 76.0837 141.5 77.3504 139.4C78.6504 137.3 80.4337 135.667 82.7004 134.5C85.0004 133.3 87.5837 132.7 90.4504 132.7C93.2837 132.7 95.7504 133.3 97.8504 134.5C99.9837 135.667 101.534 137.35 102.5 139.55L96.4504 142.8C95.0504 140.333 93.0337 139.1 90.4004 139.1C88.3671 139.1 86.6837 139.767 85.3504 141.1C84.0171 142.433 83.3504 144.25 83.3504 146.55C83.3504 148.85 84.0171 150.667 85.3504 152C86.6837 153.333 88.3671 154 90.4004 154C93.0671 154 95.0837 152.767 96.4504 150.3L102.5 153.6C101.534 155.733 99.9837 157.4 97.8504 158.6C95.7504 159.8 93.2837 160.4 90.4504 160.4ZM119.698 160.4C116.832 160.4 114.248 159.817 111.948 158.65C109.682 157.45 107.898 155.8 106.598 153.7C105.332 151.6 104.698 149.217 104.698 146.55C104.698 143.883 105.332 141.5 106.598 139.4C107.898 137.3 109.682 135.667 111.948 134.5C114.248 133.3 116.832 132.7 119.698 132.7C122.532 132.7 124.998 133.3 127.098 134.5C129.232 135.667 130.782 137.35 131.748 139.55L125.698 142.8C124.298 140.333 122.282 139.1 119.648 139.1C117.615 139.1 115.932 139.767 114.598 141.1C113.265 142.433 112.598 144.25 112.598 146.55C112.598 148.85 113.265 150.667 114.598 152C115.932 153.333 117.615 154 119.648 154C122.315 154 124.332 152.767 125.698 150.3L131.748 153.6C130.782 155.733 129.232 157.4 127.098 158.6C124.998 159.8 122.532 160.4 119.698 160.4ZM162.296 146.65C162.296 146.75 162.246 147.45 162.146 148.75H141.796C142.163 150.417 143.03 151.733 144.396 152.7C145.763 153.667 147.463 154.15 149.496 154.15C150.896 154.15 152.13 153.95 153.196 153.55C154.296 153.117 155.313 152.45 156.246 151.55L160.396 156.05C157.863 158.95 154.163 160.4 149.296 160.4C146.263 160.4 143.58 159.817 141.246 158.65C138.913 157.45 137.113 155.8 135.846 153.7C134.58 151.6 133.946 149.217 133.946 146.55C133.946 143.917 134.563 141.55 135.796 139.45C137.063 137.317 138.78 135.667 140.946 134.5C143.146 133.3 145.596 132.7 148.296 132.7C150.93 132.7 153.313 133.267 155.446 134.4C157.58 135.533 159.246 137.167 160.446 139.3C161.68 141.4 162.296 143.85 162.296 146.65ZM148.346 138.6C146.58 138.6 145.096 139.1 143.896 140.1C142.696 141.1 141.963 142.467 141.696 144.2H154.946C154.68 142.5 153.946 141.15 152.746 140.15C151.546 139.117 150.08 138.6 148.346 138.6ZM168.275 133.1H176.025V143.6H187.725V133.1H195.525V160H187.725V149.95H176.025V160H168.275V133.1ZM233.142 153.6V165.8H225.892V160H206.992V165.8H199.742V153.6H200.842C202.509 153.567 203.659 152.583 204.292 150.65C204.926 148.717 205.326 145.967 205.492 142.4L205.842 133.1H229.292V153.6H233.142ZM212.542 142.95C212.442 145.683 212.226 147.917 211.892 149.65C211.592 151.383 211.009 152.7 210.142 153.6H221.492V139.5H212.692L212.542 142.95ZM264.701 149.8H260.951V160H253.251V149.8H249.501L243.801 160H234.601L243.051 146.1L235.201 133.1H243.451L249.401 143.55H253.251V133.1H260.951V143.55H264.751L270.751 133.1H279.001L271.151 146.1L279.651 160H270.401L264.701 149.8ZM309.025 146.65C309.025 146.75 308.975 147.45 308.875 148.75H288.525C288.892 150.417 289.758 151.733 291.125 152.7C292.492 153.667 294.192 154.15 296.225 154.15C297.625 154.15 298.858 153.95 299.925 153.55C301.025 153.117 302.042 152.45 302.975 151.55L307.125 156.05C304.592 158.95 300.892 160.4 296.025 160.4C292.992 160.4 290.308 159.817 287.975 158.65C285.642 157.45 283.842 155.8 282.575 153.7C281.308 151.6 280.675 149.217 280.675 146.55C280.675 143.917 281.292 141.55 282.525 139.45C283.792 137.317 285.508 135.667 287.675 134.5C289.875 133.3 292.325 132.7 295.025 132.7C297.658 132.7 300.042 133.267 302.175 134.4C304.308 135.533 305.975 137.167 307.175 139.3C308.408 141.4 309.025 143.85 309.025 146.65ZM295.075 138.6C293.308 138.6 291.825 139.1 290.625 140.1C289.425 141.1 288.692 142.467 288.425 144.2H301.675C301.408 142.5 300.675 141.15 299.475 140.15C298.275 139.117 296.808 138.6 295.075 138.6ZM330.854 132.7C333.354 132.7 335.621 133.283 337.654 134.45C339.721 135.583 341.337 137.2 342.504 139.3C343.671 141.367 344.254 143.783 344.254 146.55C344.254 149.317 343.671 151.75 342.504 153.85C341.337 155.917 339.721 157.533 337.654 158.7C335.621 159.833 333.354 160.4 330.854 160.4C327.421 160.4 324.721 159.317 322.754 157.15V169.7H314.954V133.1H322.404V136.2C324.337 133.867 327.154 132.7 330.854 132.7ZM329.504 154C331.504 154 333.137 153.333 334.404 152C335.704 150.633 336.354 148.817 336.354 146.55C336.354 144.283 335.704 142.483 334.404 141.15C333.137 139.783 331.504 139.1 329.504 139.1C327.504 139.1 325.854 139.783 324.554 141.15C323.287 142.483 322.654 144.283 322.654 146.55C322.654 148.817 323.287 150.633 324.554 152C325.854 153.333 327.504 154 329.504 154Z" fill="url(#paint0_linear_57_365)"/>
</g>
<defs>
<filter id="filter0_d_57_365" x="0.75" y="0.450195" width="618.228" height="177.25" filterUnits="userSpaceOnUse" color-interpolation-filters="sRGB">
<feFlood flood-opacity="0" result="BackgroundImageFix"/>
<feColorMatrix in="SourceAlpha" type="matrix" values="0 0 0 0 0 0 0 0 0 0 0 0 0 0 0 0 0 0 127 0" result="hardAlpha"/>
<feOffset dy="4"/>
<feGaussianBlur stdDeviation="2"/>
<feComposite in2="hardAlpha" operator="out"/>
<feColorMatrix type="matrix" values="0 0 0 0 0 0 0 0 0 0 0 0 0 0 0 0 0 0 0.25 0"/>
<feBlend mode="normal" in2="BackgroundImageFix" result="effect1_dropShadow_57_365"/>
<feBlend mode="normal" in="SourceGraphic" in2="effect1_dropShadow_57_365" result="shape"/>
</filter>
<linearGradient id="paint0_linear_57_365" x1="324" y1="-10" x2="324" y2="173" gradientUnits="userSpaceOnUse">
<stop stop-color="#C10F90"/>
<stop offset="1" stop-color="#F88600"/>
</linearGradient>
</defs>
</svg>
