<svg width="639" height="167" viewBox="0 0 639 167" fill="none" xmlns="http://www.w3.org/2000/svg">
<g filter="url(#filter0_d_72_383)">
<path d="M23.9 36.6C20.3333 36.6 17.1 35.8333 14.2 34.3C11.3333 32.7333 9.06667 30.5833 7.4 27.85C5.76667 25.0833 4.95 21.9667 4.95 18.5C4.95 15.0333 5.76667 11.9333 7.4 9.2C9.06667 6.43333 11.3333 4.28333 14.2 2.75C17.1 1.18333 20.35 0.399999 23.95 0.399999C26.9833 0.399999 29.7167 0.933333 32.15 2C34.6167 3.06667 36.6833 4.6 38.35 6.6L33.15 11.4C30.7833 8.66667 27.85 7.3 24.35 7.3C22.1833 7.3 20.25 7.78333 18.55 8.75C16.85 9.68333 15.5167 11 14.55 12.7C13.6167 14.4 13.15 16.3333 13.15 18.5C13.15 20.6667 13.6167 22.6 14.55 24.3C15.5167 26 16.85 27.3333 18.55 28.3C20.25 29.2333 22.1833 29.7 24.35 29.7C27.85 29.7 30.7833 28.3167 33.15 25.55L38.35 30.35C36.6833 32.3833 34.6167 33.9333 32.15 35C29.6833 36.0667 26.9333 36.6 23.9 36.6ZM67.9504 9.1V36H60.1504V15.5H51.6504L51.4004 20.25C51.2671 23.7833 50.9337 26.7167 50.4004 29.05C49.8671 31.3833 49.0004 33.2167 47.8004 34.55C46.6004 35.8833 44.9337 36.55 42.8004 36.55C41.6671 36.55 40.3171 36.35 38.7504 35.95L39.1504 29.55C39.6837 29.6167 40.0671 29.65 40.3004 29.65C41.4671 29.65 42.3337 29.2333 42.9004 28.4C43.5004 27.5333 43.9004 26.45 44.1004 25.15C44.3004 23.8167 44.4504 22.0667 44.5504 19.9L44.9504 9.1H67.9504ZM101.601 22.65C101.601 22.75 101.551 23.45 101.451 24.75H81.1012C81.4678 26.4167 82.3345 27.7333 83.7012 28.7C85.0678 29.6667 86.7678 30.15 88.8012 30.15C90.2012 30.15 91.4345 29.95 92.5012 29.55C93.6012 29.1167 94.6178 28.45 95.5512 27.55L99.7012 32.05C97.1678 34.95 93.4678 36.4 88.6012 36.4C85.5678 36.4 82.8845 35.8167 80.5512 34.65C78.2178 33.45 76.4178 31.8 75.1512 29.7C73.8845 27.6 73.2512 25.2167 73.2512 22.55C73.2512 19.9167 73.8678 17.55 75.1012 15.45C76.3678 13.3167 78.0845 11.6667 80.2512 10.5C82.4512 9.3 84.9012 8.7 87.6012 8.7C90.2345 8.7 92.6178 9.26667 94.7512 10.4C96.8845 11.5333 98.5512 13.1667 99.7512 15.3C100.985 17.4 101.601 19.85 101.601 22.65ZM87.6512 14.6C85.8845 14.6 84.4012 15.1 83.2012 16.1C82.0012 17.1 81.2678 18.4667 81.0012 20.2H94.2512C93.9845 18.5 93.2512 17.15 92.0512 16.15C90.8512 15.1167 89.3845 14.6 87.6512 14.6ZM137.486 29.6V41.8H130.236V36H111.336V41.8H104.086V29.6H105.186C106.853 29.5667 108.003 28.5833 108.636 26.65C109.269 24.7167 109.669 21.9667 109.836 18.4L110.186 9.1H133.636V29.6H137.486ZM116.886 18.95C116.786 21.6833 116.569 23.9167 116.236 25.65C115.936 27.3833 115.353 28.7 114.486 29.6H125.836V15.5H117.036L116.886 18.95ZM142.395 9.1H150.145V25.1L163.245 9.1H170.395V36H162.645V20L149.595 36H142.395V9.1ZM209.503 22C211.103 22.5 212.336 23.2667 213.203 24.3C214.103 25.3333 214.553 26.5667 214.553 28C214.553 29.7 213.969 31.2 212.803 32.5C211.636 33.7667 210.036 34.75 208.003 35.45C205.969 36.15 203.669 36.5 201.103 36.5C199.003 36.5 196.936 36.2833 194.903 35.85C192.869 35.4167 190.986 34.7667 189.253 33.9L191.353 28.45C194.186 29.8167 197.319 30.5 200.753 30.5C202.586 30.5 204.019 30.2333 205.053 29.7C206.119 29.1333 206.653 28.35 206.653 27.35C206.653 26.4833 206.286 25.8333 205.553 25.4C204.819 24.9333 203.753 24.7 202.353 24.7H196.853V19.85H201.653C203.019 19.85 204.069 19.6333 204.803 19.2C205.536 18.7667 205.903 18.1333 205.903 17.3C205.903 16.4333 205.436 15.7667 204.503 15.3C203.603 14.8333 202.303 14.6 200.603 14.6C198.003 14.6 195.169 15.2167 192.103 16.45L190.203 11.05C193.936 9.41667 197.569 8.6 201.103 8.6C203.536 8.6 205.703 8.9 207.603 9.5C209.536 10.1 211.053 10.9833 212.153 12.15C213.253 13.2833 213.803 14.6167 213.803 16.15C213.803 17.4167 213.419 18.5667 212.653 19.6C211.886 20.6 210.836 21.4 209.503 22ZM230.677 8.7C234.843 8.7 238.043 9.7 240.277 11.7C242.51 13.6667 243.627 16.65 243.627 20.65V36H236.327V32.65C234.86 35.15 232.127 36.4 228.127 36.4C226.06 36.4 224.26 36.05 222.727 35.35C221.227 34.65 220.077 33.6833 219.277 32.45C218.477 31.2167 218.077 29.8167 218.077 28.25C218.077 25.75 219.01 23.7833 220.877 22.35C222.777 20.9167 225.693 20.2 229.627 20.2H235.827C235.827 18.5 235.31 17.2 234.277 16.3C233.243 15.3667 231.693 14.9 229.627 14.9C228.193 14.9 226.777 15.1333 225.377 15.6C224.01 16.0333 222.843 16.6333 221.877 17.4L219.077 11.95C220.543 10.9167 222.293 10.1167 224.327 9.55C226.393 8.98333 228.51 8.7 230.677 8.7ZM230.077 31.15C231.41 31.15 232.593 30.85 233.627 30.25C234.66 29.6167 235.393 28.7 235.827 27.5V24.75H230.477C227.277 24.75 225.677 25.8 225.677 27.9C225.677 28.9 226.06 29.7 226.827 30.3C227.627 30.8667 228.71 31.15 230.077 31.15ZM282.013 22C283.613 22.5 284.846 23.2667 285.713 24.3C286.613 25.3333 287.063 26.5667 287.063 28C287.063 29.7 286.479 31.2 285.313 32.5C284.146 33.7667 282.546 34.75 280.513 35.45C278.479 36.15 276.179 36.5 273.613 36.5C271.513 36.5 269.446 36.2833 267.412 35.85C265.379 35.4167 263.496 34.7667 261.763 33.9L263.863 28.45C266.696 29.8167 269.829 30.5 273.263 30.5C275.096 30.5 276.529 30.2333 277.563 29.7C278.629 29.1333 279.163 28.35 279.163 27.35C279.163 26.4833 278.796 25.8333 278.063 25.4C277.329 24.9333 276.263 24.7 274.863 24.7H269.363V19.85H274.163C275.529 19.85 276.579 19.6333 277.313 19.2C278.046 18.7667 278.413 18.1333 278.413 17.3C278.413 16.4333 277.946 15.7667 277.013 15.3C276.113 14.8333 274.813 14.6 273.113 14.6C270.513 14.6 267.679 15.2167 264.613 16.45L262.713 11.05C266.446 9.41667 270.079 8.6 273.613 8.6C276.046 8.6 278.213 8.9 280.113 9.5C282.046 10.1 283.563 10.9833 284.663 12.15C285.763 13.2833 286.313 14.6167 286.313 16.15C286.313 17.4167 285.929 18.5667 285.163 19.6C284.396 20.6 283.346 21.4 282.013 22ZM303.186 8.7C307.353 8.7 310.553 9.7 312.786 11.7C315.02 13.6667 316.136 16.65 316.136 20.65V36H308.836V32.65C307.37 35.15 304.636 36.4 300.636 36.4C298.57 36.4 296.77 36.05 295.236 35.35C293.736 34.65 292.586 33.6833 291.786 32.45C290.986 31.2167 290.586 29.8167 290.586 28.25C290.586 25.75 291.52 23.7833 293.386 22.35C295.286 20.9167 298.203 20.2 302.136 20.2H308.336C308.336 18.5 307.82 17.2 306.786 16.3C305.753 15.3667 304.203 14.9 302.136 14.9C300.703 14.9 299.286 15.1333 297.886 15.6C296.52 16.0333 295.353 16.6333 294.386 17.4L291.586 11.95C293.053 10.9167 294.803 10.1167 296.836 9.55C298.903 8.98333 301.02 8.7 303.186 8.7ZM302.586 31.15C303.92 31.15 305.103 30.85 306.136 30.25C307.17 29.6167 307.903 28.7 308.336 27.5V24.75H302.986C299.786 24.75 298.186 25.8 298.186 27.9C298.186 28.9 298.57 29.7 299.336 30.3C300.136 30.8667 301.22 31.15 302.586 31.15ZM334.762 25.8H330.712V36H322.912V9.1H330.712V19.55H334.912L342.212 9.1H350.512L341.112 22L351.162 36H341.962L334.762 25.8ZM364.954 8.7C369.121 8.7 372.321 9.7 374.554 11.7C376.787 13.6667 377.904 16.65 377.904 20.65V36H370.604V32.65C369.137 35.15 366.404 36.4 362.404 36.4C360.337 36.4 358.537 36.05 357.004 35.35C355.504 34.65 354.354 33.6833 353.554 32.45C352.754 31.2167 352.354 29.8167 352.354 28.25C352.354 25.75 353.287 23.7833 355.154 22.35C357.054 20.9167 359.971 20.2 363.904 20.2H370.104C370.104 18.5 369.587 17.2 368.554 16.3C367.521 15.3667 365.971 14.9 363.904 14.9C362.471 14.9 361.054 15.1333 359.654 15.6C358.287 16.0333 357.121 16.6333 356.154 17.4L353.354 11.95C354.821 10.9167 356.571 10.1167 358.604 9.55C360.671 8.98333 362.787 8.7 364.954 8.7ZM364.354 31.15C365.687 31.15 366.871 30.85 367.904 30.25C368.937 29.6167 369.671 28.7 370.104 27.5V24.75H364.754C361.554 24.75 359.954 25.8 359.954 27.9C359.954 28.9 360.337 29.7 361.104 30.3C361.904 30.8667 362.987 31.15 364.354 31.15ZM401.886 22C403.486 22.5 404.719 23.2667 405.586 24.3C406.486 25.3333 406.936 26.5667 406.936 28C406.936 29.7 406.352 31.2 405.186 32.5C404.019 33.7667 402.419 34.75 400.386 35.45C398.352 36.15 396.052 36.5 393.486 36.5C391.386 36.5 389.319 36.2833 387.286 35.85C385.252 35.4167 383.369 34.7667 381.636 33.9L383.736 28.45C386.569 29.8167 389.702 30.5 393.136 30.5C394.969 30.5 396.402 30.2333 397.436 29.7C398.502 29.1333 399.036 28.35 399.036 27.35C399.036 26.4833 398.669 25.8333 397.936 25.4C397.202 24.9333 396.136 24.7 394.736 24.7H389.236V19.85H394.036C395.402 19.85 396.452 19.6333 397.186 19.2C397.919 18.7667 398.286 18.1333 398.286 17.3C398.286 16.4333 397.819 15.7667 396.886 15.3C395.986 14.8333 394.686 14.6 392.986 14.6C390.386 14.6 387.552 15.2167 384.486 16.45L382.586 11.05C386.319 9.41667 389.952 8.6 393.486 8.6C395.919 8.6 398.086 8.9 399.986 9.5C401.919 10.1 403.436 10.9833 404.536 12.15C405.636 13.2833 406.186 14.6167 406.186 16.15C406.186 17.4167 405.802 18.5667 405.036 19.6C404.269 20.6 403.219 21.4 401.886 22ZM423.059 8.7C427.226 8.7 430.426 9.7 432.659 11.7C434.893 13.6667 436.009 16.65 436.009 20.65V36H428.709V32.65C427.243 35.15 424.509 36.4 420.509 36.4C418.443 36.4 416.643 36.05 415.109 35.35C413.609 34.65 412.459 33.6833 411.659 32.45C410.859 31.2167 410.459 29.8167 410.459 28.25C410.459 25.75 411.393 23.7833 413.259 22.35C415.159 20.9167 418.076 20.2 422.009 20.2H428.209C428.209 18.5 427.693 17.2 426.659 16.3C425.626 15.3667 424.076 14.9 422.009 14.9C420.576 14.9 419.159 15.1333 417.759 15.6C416.393 16.0333 415.226 16.6333 414.259 17.4L411.459 11.95C412.926 10.9167 414.676 10.1167 416.709 9.55C418.776 8.98333 420.893 8.7 423.059 8.7ZM422.459 31.15C423.793 31.15 424.976 30.85 426.009 30.25C427.043 29.6167 427.776 28.7 428.209 27.5V24.75H422.859C419.659 24.75 418.059 25.8 418.059 27.9C418.059 28.9 418.443 29.7 419.209 30.3C420.009 30.8667 421.093 31.15 422.459 31.15ZM469.035 36V19.9L460.985 33.4H457.685L449.835 19.85V36H442.785V9.1H450.935L459.535 24.65L468.685 9.1H475.985L476.085 36H469.035ZM483.557 9.1H491.307V25.1L504.407 9.1H511.557V36H503.807V20L490.757 36H483.557V9.1ZM521.905 26.7C523.305 26.7 524.455 27.15 525.355 28.05C526.255 28.9167 526.705 30.0667 526.705 31.5C526.705 32.1667 526.621 32.8333 526.455 33.5C526.288 34.1667 525.921 35.1667 525.355 36.5L522.505 43.7H517.555L519.755 35.75C518.921 35.4167 518.255 34.8833 517.755 34.15C517.288 33.3833 517.055 32.5 517.055 31.5C517.055 30.0667 517.505 28.9167 518.405 28.05C519.338 27.15 520.505 26.7 521.905 26.7ZM546.301 9.1H554.051V19.6H565.751V9.1H573.551V36H565.751V25.95H554.051V36H546.301V9.1ZM607.168 22.65C607.168 22.75 607.118 23.45 607.018 24.75H586.668C587.034 26.4167 587.901 27.7333 589.268 28.7C590.634 29.6667 592.334 30.15 594.368 30.15C595.768 30.15 597.001 29.95 598.068 29.55C599.168 29.1167 600.184 28.45 601.118 27.55L605.268 32.05C602.734 34.95 599.034 36.4 594.168 36.4C591.134 36.4 588.451 35.8167 586.118 34.65C583.784 33.45 581.984 31.8 580.718 29.7C579.451 27.6 578.818 25.2167 578.818 22.55C578.818 19.9167 579.434 17.55 580.668 15.45C581.934 13.3167 583.651 11.6667 585.818 10.5C588.018 9.3 590.468 8.7 593.168 8.7C595.801 8.7 598.184 9.26667 600.318 10.4C602.451 11.5333 604.118 13.1667 605.318 15.3C606.551 17.4 607.168 19.85 607.168 22.65ZM593.218 14.6C591.451 14.6 589.968 15.1 588.768 16.1C587.568 17.1 586.834 18.4667 586.568 20.2H599.818C599.551 18.5 598.818 17.15 597.618 16.15C596.418 15.1167 594.951 14.6 593.218 14.6ZM33.5 70.1V97H25.7V76.5H14.5V97H6.75V70.1H33.5ZM67.1285 83.65C67.1285 83.75 67.0785 84.45 66.9785 85.75H46.6285C46.9952 87.4167 47.8618 88.7333 49.2285 89.7C50.5952 90.6667 52.2952 91.15 54.3285 91.15C55.7285 91.15 56.9618 90.95 58.0285 90.55C59.1285 90.1167 60.1452 89.45 61.0785 88.55L65.2285 93.05C62.6952 95.95 58.9952 97.4 54.1285 97.4C51.0952 97.4 48.4118 96.8167 46.0785 95.65C43.7452 94.45 41.9452 92.8 40.6785 90.7C39.4118 88.6 38.7785 86.2167 38.7785 83.55C38.7785 80.9167 39.3952 78.55 40.6285 76.45C41.8952 74.3167 43.6118 72.6667 45.7785 71.5C47.9785 70.3 50.4285 69.7 53.1285 69.7C55.7618 69.7 58.1452 70.2667 60.2785 71.4C62.4119 72.5333 64.0785 74.1667 65.2785 76.3C66.5119 78.4 67.1285 80.85 67.1285 83.65ZM53.1785 75.6C51.4118 75.6 49.9285 76.1 48.7285 77.1C47.5285 78.1 46.7952 79.4667 46.5285 81.2H59.7785C59.5119 79.5 58.7785 78.15 57.5785 77.15C56.3785 76.1167 54.9118 75.6 53.1785 75.6ZM88.9574 69.7C91.4574 69.7 93.7241 70.2833 95.7574 71.45C97.8241 72.5833 99.4408 74.2 100.607 76.3C101.774 78.3667 102.357 80.7833 102.357 83.55C102.357 86.3167 101.774 88.75 100.607 90.85C99.4408 92.9167 97.8241 94.5333 95.7574 95.7C93.7241 96.8333 91.4574 97.4 88.9574 97.4C85.5241 97.4 82.8241 96.3167 80.8574 94.15V106.7H73.0574V70.1H80.5074V73.2C82.4408 70.8667 85.2574 69.7 88.9574 69.7ZM87.6074 91C89.6074 91 91.2408 90.3333 92.5074 89C93.8074 87.6333 94.4574 85.8167 94.4574 83.55C94.4574 81.2833 93.8074 79.4833 92.5074 78.15C91.2408 76.7833 89.6074 76.1 87.6074 76.1C85.6074 76.1 83.9574 76.7833 82.6574 78.15C81.3908 79.4833 80.7574 81.2833 80.7574 83.55C80.7574 85.8167 81.3908 87.6333 82.6574 89C83.9574 90.3333 85.6074 91 87.6074 91ZM133.974 83.65C133.974 83.75 133.924 84.45 133.824 85.75H113.474C113.841 87.4167 114.708 88.7333 116.074 89.7C117.441 90.6667 119.141 91.15 121.174 91.15C122.574 91.15 123.808 90.95 124.874 90.55C125.974 90.1167 126.991 89.45 127.924 88.55L132.074 93.05C129.541 95.95 125.841 97.4 120.974 97.4C117.941 97.4 115.258 96.8167 112.924 95.65C110.591 94.45 108.791 92.8 107.524 90.7C106.258 88.6 105.624 86.2167 105.624 83.55C105.624 80.9167 106.241 78.55 107.474 76.45C108.741 74.3167 110.458 72.6667 112.624 71.5C114.824 70.3 117.274 69.7 119.974 69.7C122.608 69.7 124.991 70.2667 127.124 71.4C129.258 72.5333 130.924 74.1667 132.124 76.3C133.358 78.4 133.974 80.85 133.974 83.65ZM120.024 75.6C118.258 75.6 116.774 76.1 115.574 77.1C114.374 78.1 113.641 79.4667 113.374 81.2H126.624C126.358 79.5 125.624 78.15 124.424 77.15C123.224 76.1167 121.758 75.6 120.024 75.6ZM156.121 97L150.221 88.75L144.121 97H135.621L145.971 83.45L135.971 70.1H144.721L150.421 77.95L156.271 70.1H164.571L154.571 83.25L164.971 97H156.121ZM180.58 97.4C177.747 97.4 175.197 96.8167 172.93 95.65C170.697 94.45 168.947 92.8 167.68 90.7C166.414 88.6 165.78 86.2167 165.78 83.55C165.78 80.8833 166.414 78.5 167.68 76.4C168.947 74.3 170.697 72.6667 172.93 71.5C175.197 70.3 177.747 69.7 180.58 69.7C183.414 69.7 185.947 70.3 188.18 71.5C190.414 72.6667 192.164 74.3 193.43 76.4C194.697 78.5 195.33 80.8833 195.33 83.55C195.33 86.2167 194.697 88.6 193.43 90.7C192.164 92.8 190.414 94.45 188.18 95.65C185.947 96.8167 183.414 97.4 180.58 97.4ZM180.58 91C182.58 91 184.214 90.3333 185.48 89C186.78 87.6333 187.43 85.8167 187.43 83.55C187.43 81.2833 186.78 79.4833 185.48 78.15C184.214 76.7833 182.58 76.1 180.58 76.1C178.58 76.1 176.93 76.7833 175.63 78.15C174.33 79.4833 173.68 81.2833 173.68 83.55C173.68 85.8167 174.33 87.6333 175.63 89C176.93 90.3333 178.58 91 180.58 91ZM230.455 90.6V102.8H223.205V97H204.305V102.8H197.055V90.6H198.155C199.821 90.5667 200.971 89.5833 201.605 87.65C202.238 85.7167 202.638 82.9667 202.805 79.4L203.155 70.1H226.605V90.6H230.455ZM209.855 79.95C209.755 82.6833 209.538 84.9167 209.205 86.65C208.905 88.3833 208.321 89.7 207.455 90.6H218.805V76.5H210.005L209.855 79.95ZM259.263 70.1V97H252.313V89.3H246.563L241.463 97H233.163L239.313 88.2C237.447 87.4667 236.013 86.4167 235.013 85.05C234.047 83.65 233.563 81.9667 233.563 80C233.563 76.8333 234.697 74.4 236.963 72.7C239.263 70.9667 242.413 70.1 246.413 70.1H259.263ZM246.563 76.45C244.897 76.45 243.63 76.75 242.763 77.35C241.93 77.95 241.513 78.9167 241.513 80.25C241.513 81.5833 241.913 82.5667 242.713 83.2C243.547 83.8 244.797 84.1 246.463 84.1H252.313V76.45H246.563ZM307.67 70.1V97H299.87V76.5H288.67V97H280.92V70.1H307.67ZM327.748 97.4C324.915 97.4 322.365 96.8167 320.098 95.65C317.865 94.45 316.115 92.8 314.848 90.7C313.582 88.6 312.948 86.2167 312.948 83.55C312.948 80.8833 313.582 78.5 314.848 76.4C316.115 74.3 317.865 72.6667 320.098 71.5C322.365 70.3 324.915 69.7 327.748 69.7C330.582 69.7 333.115 70.3 335.348 71.5C337.582 72.6667 339.332 74.3 340.598 76.4C341.865 78.5 342.498 80.8833 342.498 83.55C342.498 86.2167 341.865 88.6 340.598 90.7C339.332 92.8 337.582 94.45 335.348 95.65C333.115 96.8167 330.582 97.4 327.748 97.4ZM327.748 91C329.748 91 331.382 90.3333 332.648 89C333.948 87.6333 334.598 85.8167 334.598 83.55C334.598 81.2833 333.948 79.4833 332.648 78.15C331.382 76.7833 329.748 76.1 327.748 76.1C325.748 76.1 324.098 76.7833 322.798 78.15C321.498 79.4833 320.848 81.2833 320.848 83.55C320.848 85.8167 321.498 87.6333 322.798 89C324.098 90.3333 325.748 91 327.748 91ZM388.273 97V80.9L380.223 94.4H376.923L369.073 80.85V97H362.023V70.1H370.173L378.773 85.65L387.923 70.1H395.223L395.323 97H388.273ZM402.795 70.1H410.545V86.1L423.645 70.1H430.795V97H423.045V81L409.995 97H402.795V70.1ZM464.093 70.1V97H456.293V76.5H447.793L447.543 81.25C447.41 84.7833 447.076 87.7167 446.543 90.05C446.01 92.3833 445.143 94.2167 443.943 95.55C442.743 96.8833 441.076 97.55 438.943 97.55C437.81 97.55 436.46 97.35 434.893 96.95L435.293 90.55C435.826 90.6167 436.21 90.65 436.443 90.65C437.61 90.65 438.476 90.2333 439.043 89.4C439.643 88.5333 440.043 87.45 440.243 86.15C440.443 84.8167 440.593 83.0667 440.693 80.9L441.093 70.1H464.093ZM497.394 70.1V97H489.594V76.5H481.094L480.844 81.25C480.71 84.7833 480.377 87.7167 479.844 90.05C479.31 92.3833 478.444 94.2167 477.244 95.55C476.044 96.8833 474.377 97.55 472.244 97.55C471.11 97.55 469.76 97.35 468.194 96.95L468.594 90.55C469.127 90.6167 469.51 90.65 469.744 90.65C470.91 90.65 471.777 90.2333 472.344 89.4C472.944 88.5333 473.344 87.45 473.544 86.15C473.744 84.8167 473.894 83.0667 473.994 80.9L474.394 70.1H497.394ZM504.895 70.1H512.645V86.1L525.745 70.1H532.895V97H525.145V81L512.095 97H504.895V70.1ZM552.993 97.4C550.159 97.4 547.609 96.8167 545.343 95.65C543.109 94.45 541.359 92.8 540.093 90.7C538.826 88.6 538.193 86.2167 538.193 83.55C538.193 80.8833 538.826 78.5 540.093 76.4C541.359 74.3 543.109 72.6667 545.343 71.5C547.609 70.3 550.159 69.7 552.993 69.7C555.826 69.7 558.359 70.3 560.593 71.5C562.826 72.6667 564.576 74.3 565.843 76.4C567.109 78.5 567.743 80.8833 567.743 83.55C567.743 86.2167 567.109 88.6 565.843 90.7C564.576 92.8 562.826 94.45 560.593 95.65C558.359 96.8167 555.826 97.4 552.993 97.4ZM552.993 91C554.993 91 556.626 90.3333 557.893 89C559.193 87.6333 559.843 85.8167 559.843 83.55C559.843 81.2833 559.193 79.4833 557.893 78.15C556.626 76.7833 554.993 76.1 552.993 76.1C550.993 76.1 549.343 76.7833 548.043 78.15C546.743 79.4833 546.093 81.2833 546.093 83.55C546.093 85.8167 546.743 87.6333 548.043 89C549.343 90.3333 550.993 91 552.993 91ZM573.107 70.1H580.857V80.6H592.557V70.1H600.357V97H592.557V86.95H580.857V97H573.107V70.1ZM634.774 70.1L622.624 98.65C621.391 101.75 619.858 103.933 618.024 105.2C616.224 106.467 614.041 107.1 611.474 107.1C610.074 107.1 608.691 106.883 607.324 106.45C605.958 106.017 604.841 105.417 603.974 104.65L606.824 99.1C607.424 99.6333 608.108 100.05 608.874 100.35C609.674 100.65 610.458 100.8 611.224 100.8C612.291 100.8 613.158 100.533 613.824 100C614.491 99.5 615.091 98.65 615.624 97.45L615.724 97.2L604.074 70.1H612.124L619.674 88.35L627.274 70.1H634.774ZM19.55 158.4C16.6833 158.4 14.1 157.817 11.8 156.65C9.53333 155.45 7.75 153.8 6.45 151.7C5.18333 149.6 4.55 147.217 4.55 144.55C4.55 141.883 5.18333 139.5 6.45 137.4C7.75 135.3 9.53333 133.667 11.8 132.5C14.1 131.3 16.6833 130.7 19.55 130.7C22.3833 130.7 24.85 131.3 26.95 132.5C29.0833 133.667 30.6333 135.35 31.6 137.55L25.55 140.8C24.15 138.333 22.1333 137.1 19.5 137.1C17.4667 137.1 15.7833 137.767 14.45 139.1C13.1167 140.433 12.45 142.25 12.45 144.55C12.45 146.85 13.1167 148.667 14.45 150C15.7833 151.333 17.4667 152 19.5 152C22.1667 152 24.1833 150.767 25.55 148.3L31.6 151.6C30.6333 153.733 29.0833 155.4 26.95 156.6C24.85 157.8 22.3833 158.4 19.55 158.4ZM48.798 158.4C45.9314 158.4 43.348 157.817 41.048 156.65C38.7814 155.45 36.998 153.8 35.698 151.7C34.4314 149.6 33.798 147.217 33.798 144.55C33.798 141.883 34.4314 139.5 35.698 137.4C36.998 135.3 38.7814 133.667 41.048 132.5C43.348 131.3 45.9314 130.7 48.798 130.7C51.6314 130.7 54.098 131.3 56.198 132.5C58.3314 133.667 59.8814 135.35 60.848 137.55L54.798 140.8C53.398 138.333 51.3814 137.1 48.748 137.1C46.7147 137.1 45.0314 137.767 43.698 139.1C42.3647 140.433 41.698 142.25 41.698 144.55C41.698 146.85 42.3647 148.667 43.698 150C45.0314 151.333 46.7147 152 48.748 152C51.4147 152 53.4314 150.767 54.798 148.3L60.848 151.6C59.8814 153.733 58.3314 155.4 56.198 156.6C54.098 157.8 51.6314 158.4 48.798 158.4ZM79.7379 139.7C83.2379 139.733 85.8879 140.517 87.6879 142.05C89.4879 143.583 90.3879 145.783 90.3879 148.65C90.3879 151.65 89.3712 153.967 87.3379 155.6C85.3046 157.233 82.4212 158.05 78.6879 158.05L65.5879 158V131.1H73.3379V139.7H79.7379ZM93.2879 131.1H101.038V158H93.2879V131.1ZM77.9879 152.5C79.4879 152.533 80.6379 152.217 81.4379 151.55C82.2379 150.883 82.6379 149.883 82.6379 148.55C82.6379 147.25 82.2379 146.3 81.4379 145.7C80.6712 145.1 79.5212 144.783 77.9879 144.75L73.3379 144.7V152.5H77.9879ZM134.357 131.1V158H126.557V137.5H118.057L117.807 142.25C117.673 145.783 117.34 148.717 116.807 151.05C116.273 153.383 115.407 155.217 114.207 156.55C113.007 157.883 111.34 158.55 109.207 158.55C108.073 158.55 106.723 158.35 105.157 157.95L105.557 151.55C106.09 151.617 106.473 151.65 106.707 151.65C107.873 151.65 108.74 151.233 109.307 150.4C109.907 149.533 110.307 148.45 110.507 147.15C110.707 145.817 110.857 144.067 110.957 141.9L111.357 131.1H134.357ZM154.457 158.4C151.624 158.4 149.074 157.817 146.807 156.65C144.574 155.45 142.824 153.8 141.557 151.7C140.291 149.6 139.657 147.217 139.657 144.55C139.657 141.883 140.291 139.5 141.557 137.4C142.824 135.3 144.574 133.667 146.807 132.5C149.074 131.3 151.624 130.7 154.457 130.7C157.291 130.7 159.824 131.3 162.057 132.5C164.291 133.667 166.041 135.3 167.307 137.4C168.574 139.5 169.207 141.883 169.207 144.55C169.207 147.217 168.574 149.6 167.307 151.7C166.041 153.8 164.291 155.45 162.057 156.65C159.824 157.817 157.291 158.4 154.457 158.4ZM154.457 152C156.457 152 158.091 151.333 159.357 150C160.657 148.633 161.307 146.817 161.307 144.55C161.307 142.283 160.657 140.483 159.357 139.15C158.091 137.783 156.457 137.1 154.457 137.1C152.457 137.1 150.807 137.783 149.507 139.15C148.207 140.483 147.557 142.283 147.557 144.55C147.557 146.817 148.207 148.633 149.507 150C150.807 151.333 152.457 152 154.457 152ZM186.422 147.8H182.372V158H174.572V131.1H182.372V141.55H186.572L193.872 131.1H202.172L192.772 144L202.822 158H193.622L186.422 147.8ZM220.813 131.1H228.563V147.1L241.663 131.1H248.813V158H241.063V142L228.013 158H220.813V131.1ZM283.271 158.4C280.404 158.4 277.821 157.817 275.521 156.65C273.254 155.45 271.471 153.8 270.171 151.7C268.904 149.6 268.271 147.217 268.271 144.55C268.271 141.883 268.904 139.5 270.171 137.4C271.471 135.3 273.254 133.667 275.521 132.5C277.821 131.3 280.404 130.7 283.271 130.7C286.104 130.7 288.571 131.3 290.671 132.5C292.804 133.667 294.354 135.35 295.321 137.55L289.271 140.8C287.871 138.333 285.854 137.1 283.221 137.1C281.187 137.1 279.504 137.767 278.171 139.1C276.837 140.433 276.171 142.25 276.171 144.55C276.171 146.85 276.837 148.667 278.171 150C279.504 151.333 281.187 152 283.221 152C285.887 152 287.904 150.767 289.271 148.3L295.321 151.6C294.354 153.733 292.804 155.4 290.671 156.6C288.571 157.8 286.104 158.4 283.271 158.4ZM310.511 130.7C314.677 130.7 317.877 131.7 320.111 133.7C322.344 135.667 323.461 138.65 323.461 142.65V158H316.161V154.65C314.694 157.15 311.961 158.4 307.961 158.4C305.894 158.4 304.094 158.05 302.561 157.35C301.061 156.65 299.911 155.683 299.111 154.45C298.311 153.217 297.911 151.817 297.911 150.25C297.911 147.75 298.844 145.783 300.711 144.35C302.611 142.917 305.527 142.2 309.461 142.2H315.661C315.661 140.5 315.144 139.2 314.111 138.3C313.077 137.367 311.527 136.9 309.461 136.9C308.027 136.9 306.611 137.133 305.211 137.6C303.844 138.033 302.677 138.633 301.711 139.4L298.911 133.95C300.377 132.917 302.127 132.117 304.161 131.55C306.227 130.983 308.344 130.7 310.511 130.7ZM309.911 153.15C311.244 153.15 312.427 152.85 313.461 152.25C314.494 151.617 315.227 150.7 315.661 149.5V146.75H310.311C307.111 146.75 305.511 147.8 305.511 149.9C305.511 150.9 305.894 151.7 306.661 152.3C307.461 152.867 308.544 153.15 309.911 153.15ZM330.236 131.1H337.986V147.1L351.086 131.1H358.236V158H350.486V142L337.436 158H330.236V131.1ZM343.736 128.2C337.87 128.2 334.92 125.617 334.886 120.45H339.986C340.02 121.617 340.336 122.533 340.936 123.2C341.57 123.833 342.486 124.15 343.686 124.15C344.886 124.15 345.803 123.833 346.436 123.2C347.103 122.533 347.436 121.617 347.436 120.45H352.636C352.603 125.617 349.636 128.2 343.736 128.2ZM388.334 137.5H379.234V158H371.484V137.5H362.384V131.1H388.334V137.5ZM403.969 158.4C401.136 158.4 398.586 157.817 396.319 156.65C394.086 155.45 392.336 153.8 391.069 151.7C389.802 149.6 389.169 147.217 389.169 144.55C389.169 141.883 389.802 139.5 391.069 137.4C392.336 135.3 394.086 133.667 396.319 132.5C398.586 131.3 401.136 130.7 403.969 130.7C406.802 130.7 409.336 131.3 411.569 132.5C413.802 133.667 415.552 135.3 416.819 137.4C418.086 139.5 418.719 141.883 418.719 144.55C418.719 147.217 418.086 149.6 416.819 151.7C415.552 153.8 413.802 155.45 411.569 156.65C409.336 157.817 406.802 158.4 403.969 158.4ZM403.969 152C405.969 152 407.602 151.333 408.869 150C410.169 148.633 410.819 146.817 410.819 144.55C410.819 142.283 410.169 140.483 408.869 139.15C407.602 137.783 405.969 137.1 403.969 137.1C401.969 137.1 400.319 137.783 399.019 139.15C397.719 140.483 397.069 142.283 397.069 144.55C397.069 146.817 397.719 148.633 399.019 150C400.319 151.333 401.969 152 403.969 152ZM444.634 143.95C447.801 145.017 449.384 147.15 449.384 150.35C449.384 152.783 448.467 154.667 446.634 156C444.801 157.333 442.067 158 438.434 158H424.084V131.1H437.834C441.201 131.1 443.834 131.717 445.734 132.95C447.634 134.15 448.584 135.85 448.584 138.05C448.584 139.383 448.234 140.567 447.534 141.6C446.867 142.6 445.901 143.383 444.634 143.95ZM431.234 142.15H437.134C439.867 142.15 441.234 141.183 441.234 139.25C441.234 137.35 439.867 136.4 437.134 136.4H431.234V142.15ZM437.784 152.7C440.651 152.7 442.084 151.717 442.084 149.75C442.084 148.717 441.751 147.967 441.084 147.5C440.417 147 439.367 146.75 437.934 146.75H431.234V152.7H437.784Z" fill="url(#paint0_linear_72_383)"/>
</g>
<defs>
<filter id="filter0_d_72_383" x="0.549805" y="0.400024" width="638.225" height="166.15" filterUnits="userSpaceOnUse" color-interpolation-filters="sRGB">
<feFlood flood-opacity="0" result="BackgroundImageFix"/>
<feColorMatrix in="SourceAlpha" type="matrix" values="0 0 0 0 0 0 0 0 0 0 0 0 0 0 0 0 0 0 127 0" result="hardAlpha"/>
<feOffset dy="4"/>
<feGaussianBlur stdDeviation="2"/>
<feComposite in2="hardAlpha" operator="out"/>
<feColorMatrix type="matrix" values="0 0 0 0 0 0 0 0 0 0 0 0 0 0 0 0 0 0 0.25 0"/>
<feBlend mode="normal" in2="BackgroundImageFix" result="effect1_dropShadow_72_383"/>
<feBlend mode="normal" in="SourceGraphic" in2="effect1_dropShadow_72_383" result="shape"/>
</filter>
<linearGradient id="paint0_linear_72_383" x1="326" y1="-12" x2="326" y2="183" gradientUnits="userSpaceOnUse">
<stop stop-color="#C10F90"/>
<stop offset="1" stop-color="#F88600"/>
</linearGradient>
</defs>
</svg>
